<ttFont>
    <TTGlyph name="A" xMin="9" yMin="0" xMax="617" yMax="690">
      <contour>
        <pt x="450" y="208" on="1"/>
        <pt x="175" y="208" on="1"/>
        <pt x="111" y="0" on="1"/>
        <pt x="9" y="0" on="1"/>
        <pt x="225" y="663" on="1"/>
        <pt x="233" y="690" on="0"/>
        <pt x="262" y="690" on="1"/>
        <pt x="364" y="690" on="1"/>
        <pt x="394" y="690" on="0"/>
        <pt x="400" y="663" on="1"/>
        <pt x="617" y="0" on="1"/>
        <pt x="514" y="0" on="1"/>
      </contour>
      <contour>
        <pt x="424" y="295" on="1"/>
        <pt x="343" y="557" on="1"/>
        <pt x="340" y="566" on="0"/>
        <pt x="329" y="604" on="0"/>
        <pt x="326" y="613" on="1"/>
        <pt x="299" y="613" on="1"/>
        <pt x="283" y="557" on="1"/>
        <pt x="202" y="295" on="1"/>
      </contour>
    </TTGlyph>
    <TTGlyph name="AE" xMin="-4" yMin="-2" xMax="865" yMax="691">
      <contour>
        <pt x="861" y="84" on="1"/>
        <pt x="865" y="6" on="1"/>
        <pt x="770" y="-2" on="0"/>
        <pt x="568" y="-2" on="1"/>
        <pt x="515" y="-2" on="0"/>
        <pt x="450" y="68" on="0"/>
        <pt x="450" y="122" on="1"/>
        <pt x="450" y="216" on="1"/>
        <pt x="223" y="216" on="1"/>
        <pt x="101" y="0" on="1"/>
        <pt x="-4" y="0" on="1"/>
        <pt x="329" y="577" on="1"/>
        <pt x="365" y="643" on="0"/>
        <pt x="465" y="691" on="0"/>
        <pt x="565" y="691" on="1"/>
        <pt x="759" y="691" on="0"/>
        <pt x="865" y="684" on="1"/>
        <pt x="861" y="605" on="1"/>
        <pt x="608" y="605" on="1"/>
        <pt x="579" y="605" on="0"/>
        <pt x="544" y="569" on="0"/>
        <pt x="544" y="538" on="1"/>
        <pt x="544" y="404" on="1"/>
        <pt x="822" y="404" on="1"/>
        <pt x="822" y="322" on="1"/>
        <pt x="544" y="322" on="1"/>
        <pt x="544" y="148" on="1"/>
        <pt x="544" y="114" on="0"/>
        <pt x="574" y="84" on="0"/>
        <pt x="608" y="84" on="1"/>
      </contour>
      <contour>
        <pt x="450" y="299" on="1"/>
        <pt x="450" y="552" on="1"/>
        <pt x="450" y="572" on="0"/>
        <pt x="468" y="613" on="0"/>
        <pt x="480" y="623" on="1"/>
        <pt x="471" y="623" on="1"/>
        <pt x="443" y="607" on="0"/>
        <pt x="417" y="562" on="1"/>
        <pt x="269" y="299" on="1"/>
      </contour>
    </TTGlyph>
    <TTGlyph name="Aacute" xMin="9" yMin="0" xMax="617" yMax="917">
      <contour>
        <pt x="277" y="726" on="1"/>
        <pt x="244" y="771" on="1"/>
        <pt x="421" y="917" on="1"/>
        <pt x="476" y="843" on="1"/>
      </contour>
      <contour>
        <pt x="450" y="208" on="1"/>
        <pt x="175" y="208" on="1"/>
        <pt x="111" y="0" on="1"/>
        <pt x="9" y="0" on="1"/>
        <pt x="225" y="663" on="1"/>
        <pt x="233" y="690" on="0"/>
        <pt x="262" y="690" on="1"/>
        <pt x="364" y="690" on="1"/>
        <pt x="394" y="690" on="0"/>
        <pt x="400" y="663" on="1"/>
        <pt x="617" y="0" on="1"/>
        <pt x="514" y="0" on="1"/>
      </contour>
      <contour>
        <pt x="424" y="295" on="1"/>
        <pt x="343" y="557" on="1"/>
        <pt x="340" y="566" on="0"/>
        <pt x="329" y="604" on="0"/>
        <pt x="326" y="613" on="1"/>
        <pt x="299" y="613" on="1"/>
        <pt x="283" y="557" on="1"/>
        <pt x="202" y="295" on="1"/>
      </contour>
    </TTGlyph>
    <TTGlyph name="Abreve" xMin="9" yMin="0" xMax="617" yMax="886">
      <contour>
        <pt x="416" y="886" on="1"/>
        <pt x="465" y="878" on="1"/>
        <pt x="470" y="819" on="0"/>
        <pt x="386" y="744" on="0"/>
        <pt x="313" y="744" on="1"/>
        <pt x="239" y="744" on="0"/>
        <pt x="155" y="819" on="0"/>
        <pt x="160" y="878" on="1"/>
        <pt x="209" y="886" on="1"/>
        <pt x="209" y="815" on="0"/>
        <pt x="314" y="815" on="1"/>
        <pt x="363" y="815" on="0"/>
        <pt x="417" y="852" on="0"/>
      </contour>
      <contour>
        <pt x="450" y="208" on="1"/>
        <pt x="175" y="208" on="1"/>
        <pt x="111" y="0" on="1"/>
        <pt x="9" y="0" on="1"/>
        <pt x="225" y="663" on="1"/>
        <pt x="233" y="690" on="0"/>
        <pt x="262" y="690" on="1"/>
        <pt x="364" y="690" on="1"/>
        <pt x="394" y="690" on="0"/>
        <pt x="400" y="663" on="1"/>
        <pt x="617" y="0" on="1"/>
        <pt x="514" y="0" on="1"/>
      </contour>
      <contour>
        <pt x="424" y="295" on="1"/>
        <pt x="343" y="557" on="1"/>
        <pt x="340" y="566" on="0"/>
        <pt x="329" y="604" on="0"/>
        <pt x="326" y="613" on="1"/>
        <pt x="299" y="613" on="1"/>
        <pt x="283" y="557" on="1"/>
        <pt x="202" y="295" on="1"/>
      </contour>
    </TTGlyph>
    <TTGlyph name="Acircumflex" xMin="9" yMin="0" xMax="617" yMax="899">
      <contour>
        <pt x="179" y="729" on="1"/>
        <pt x="147" y="770" on="1"/>
        <pt x="278" y="899" on="1"/>
        <pt x="348" y="899" on="1"/>
        <pt x="480" y="770" on="1"/>
        <pt x="446" y="729" on="1"/>
        <pt x="317" y="825" on="1"/>
        <pt x="309" y="825" on="1"/>
      </contour>
      <contour>
        <pt x="450" y="208" on="1"/>
        <pt x="175" y="208" on="1"/>
        <pt x="111" y="0" on="1"/>
        <pt x="9" y="0" on="1"/>
        <pt x="225" y="663" on="1"/>
        <pt x="233" y="690" on="0"/>
        <pt x="262" y="690" on="1"/>
        <pt x="364" y="690" on="1"/>
        <pt x="394" y="690" on="0"/>
        <pt x="400" y="663" on="1"/>
        <pt x="617" y="0" on="1"/>
        <pt x="514" y="0" on="1"/>
      </contour>
      <contour>
        <pt x="424" y="295" on="1"/>
        <pt x="343" y="557" on="1"/>
        <pt x="340" y="566" on="0"/>
        <pt x="329" y="604" on="0"/>
        <pt x="326" y="613" on="1"/>
        <pt x="299" y="613" on="1"/>
        <pt x="283" y="557" on="1"/>
        <pt x="202" y="295" on="1"/>
      </contour>
    </TTGlyph>
    <TTGlyph name="Adieresis" xMin="9" yMin="0" xMax="617" yMax="872">
      <contour>
        <pt x="241" y="765" on="1"/>
        <pt x="208" y="765" on="1"/>
        <pt x="182" y="765" on="0"/>
        <pt x="182" y="792" on="1"/>
        <pt x="182" y="846" on="1"/>
        <pt x="182" y="872" on="0"/>
        <pt x="208" y="872" on="1"/>
        <pt x="241" y="872" on="1"/>
        <pt x="266" y="872" on="0"/>
        <pt x="266" y="846" on="1"/>
        <pt x="266" y="792" on="1"/>
        <pt x="266" y="765" on="0"/>
      </contour>
      <contour>
        <pt x="418" y="765" on="1"/>
        <pt x="386" y="765" on="1"/>
        <pt x="359" y="765" on="0"/>
        <pt x="359" y="792" on="1"/>
        <pt x="359" y="846" on="1"/>
        <pt x="359" y="872" on="0"/>
        <pt x="386" y="872" on="1"/>
        <pt x="418" y="872" on="1"/>
        <pt x="444" y="872" on="0"/>
        <pt x="444" y="846" on="1"/>
        <pt x="444" y="792" on="1"/>
        <pt x="444" y="765" on="0"/>
      </contour>
      <contour>
        <pt x="450" y="208" on="1"/>
        <pt x="175" y="208" on="1"/>
        <pt x="111" y="0" on="1"/>
        <pt x="9" y="0" on="1"/>
        <pt x="225" y="663" on="1"/>
        <pt x="233" y="690" on="0"/>
        <pt x="262" y="690" on="1"/>
        <pt x="364" y="690" on="1"/>
        <pt x="394" y="690" on="0"/>
        <pt x="400" y="663" on="1"/>
        <pt x="617" y="0" on="1"/>
        <pt x="514" y="0" on="1"/>
      </contour>
      <contour>
        <pt x="424" y="295" on="1"/>
        <pt x="343" y="557" on="1"/>
        <pt x="340" y="566" on="0"/>
        <pt x="329" y="604" on="0"/>
        <pt x="326" y="613" on="1"/>
        <pt x="299" y="613" on="1"/>
        <pt x="283" y="557" on="1"/>
        <pt x="202" y="295" on="1"/>
      </contour>
    </TTGlyph>
    <TTGlyph name="Agrave" xMin="9" yMin="0" xMax="617" yMax="917">
      <contour>
        <pt x="333" y="726" on="1"/>
        <pt x="134" y="843" on="1"/>
        <pt x="188" y="917" on="1"/>
        <pt x="365" y="771" on="1"/>
      </contour>
      <contour>
        <pt x="450" y="208" on="1"/>
        <pt x="175" y="208" on="1"/>
        <pt x="111" y="0" on="1"/>
        <pt x="9" y="0" on="1"/>
        <pt x="225" y="663" on="1"/>
        <pt x="233" y="690" on="0"/>
        <pt x="262" y="690" on="1"/>
        <pt x="364" y="690" on="1"/>
        <pt x="394" y="690" on="0"/>
        <pt x="400" y="663" on="1"/>
        <pt x="617" y="0" on="1"/>
        <pt x="514" y="0" on="1"/>
      </contour>
      <contour>
        <pt x="424" y="295" on="1"/>
        <pt x="343" y="557" on="1"/>
        <pt x="340" y="566" on="0"/>
        <pt x="329" y="604" on="0"/>
        <pt x="326" y="613" on="1"/>
        <pt x="299" y="613" on="1"/>
        <pt x="283" y="557" on="1"/>
        <pt x="202" y="295" on="1"/>
      </contour>
    </TTGlyph>
    <TTGlyph name="Amacron" xMin="9" yMin="0" xMax="617" yMax="853">
      <contour>
        <pt x="455" y="782" on="1"/>
        <pt x="172" y="782" on="1"/>
        <pt x="172" y="853" on="1"/>
        <pt x="455" y="853" on="1"/>
      </contour>
      <contour>
        <pt x="450" y="208" on="1"/>
        <pt x="175" y="208" on="1"/>
        <pt x="111" y="0" on="1"/>
        <pt x="9" y="0" on="1"/>
        <pt x="225" y="663" on="1"/>
        <pt x="233" y="690" on="0"/>
        <pt x="262" y="690" on="1"/>
        <pt x="364" y="690" on="1"/>
        <pt x="394" y="690" on="0"/>
        <pt x="400" y="663" on="1"/>
        <pt x="617" y="0" on="1"/>
        <pt x="514" y="0" on="1"/>
      </contour>
      <contour>
        <pt x="424" y="295" on="1"/>
        <pt x="343" y="557" on="1"/>
        <pt x="340" y="566" on="0"/>
        <pt x="329" y="604" on="0"/>
        <pt x="326" y="613" on="1"/>
        <pt x="299" y="613" on="1"/>
        <pt x="283" y="557" on="1"/>
        <pt x="202" y="295" on="1"/>
      </contour>
    </TTGlyph>
    <TTGlyph name="Aogonek" xMin="9" yMin="-212" xMax="633" yMax="690">
      <contour>
        <pt x="621" y="-153" on="1"/>
        <pt x="633" y="-193" on="1"/>
        <pt x="568" y="-219" on="0"/>
        <pt x="491" y="-205" on="0"/>
        <pt x="465" y="-152" on="0"/>
        <pt x="478" y="-116" on="1"/>
        <pt x="500" y="-57" on="0"/>
        <pt x="572" y="0" on="1"/>
        <pt x="514" y="0" on="1"/>
        <pt x="450" y="208" on="1"/>
        <pt x="175" y="208" on="1"/>
        <pt x="111" y="0" on="1"/>
        <pt x="9" y="0" on="1"/>
        <pt x="225" y="663" on="1"/>
        <pt x="233" y="690" on="0"/>
        <pt x="262" y="690" on="1"/>
        <pt x="364" y="690" on="1"/>
        <pt x="394" y="690" on="0"/>
        <pt x="400" y="663" on="1"/>
        <pt x="617" y="0" on="1"/>
        <pt x="565" y="-61" on="0"/>
        <pt x="546" y="-111" on="1"/>
        <pt x="531" y="-146" on="0"/>
        <pt x="575" y="-168" on="0"/>
      </contour>
      <contour>
        <pt x="424" y="295" on="1"/>
        <pt x="343" y="557" on="1"/>
        <pt x="340" y="566" on="0"/>
        <pt x="329" y="604" on="0"/>
        <pt x="326" y="613" on="1"/>
        <pt x="299" y="613" on="1"/>
        <pt x="283" y="557" on="1"/>
        <pt x="202" y="295" on="1"/>
      </contour>
    </TTGlyph>
    <TTGlyph name="Aring" xMin="9" yMin="0" xMax="617" yMax="927">
      <contour>
        <pt x="313" y="714" on="1"/>
        <pt x="268" y="714" on="0"/>
        <pt x="204" y="775" on="0"/>
        <pt x="204" y="865" on="0"/>
        <pt x="268" y="927" on="0"/>
        <pt x="358" y="927" on="0"/>
        <pt x="423" y="865" on="0"/>
        <pt x="423" y="775" on="0"/>
        <pt x="359" y="714" on="0"/>
      </contour>
      <contour>
        <pt x="313" y="879" on="1"/>
        <pt x="289" y="879" on="0"/>
        <pt x="257" y="847" on="0"/>
        <pt x="257" y="820" on="1"/>
        <pt x="257" y="794" on="0"/>
        <pt x="289" y="762" on="0"/>
        <pt x="313" y="762" on="1"/>
        <pt x="338" y="762" on="0"/>
        <pt x="370" y="794" on="0"/>
        <pt x="370" y="846" on="0"/>
        <pt x="338" y="879" on="0"/>
      </contour>
      <contour>
        <pt x="450" y="208" on="1"/>
        <pt x="175" y="208" on="1"/>
        <pt x="111" y="0" on="1"/>
        <pt x="9" y="0" on="1"/>
        <pt x="225" y="663" on="1"/>
        <pt x="233" y="690" on="0"/>
        <pt x="262" y="690" on="1"/>
        <pt x="364" y="690" on="1"/>
        <pt x="394" y="690" on="0"/>
        <pt x="400" y="663" on="1"/>
        <pt x="617" y="0" on="1"/>
        <pt x="514" y="0" on="1"/>
      </contour>
      <contour>
        <pt x="424" y="295" on="1"/>
        <pt x="343" y="557" on="1"/>
        <pt x="340" y="566" on="0"/>
        <pt x="329" y="604" on="0"/>
        <pt x="326" y="613" on="1"/>
        <pt x="299" y="613" on="1"/>
        <pt x="283" y="557" on="1"/>
        <pt x="202" y="295" on="1"/>
      </contour>
    </TTGlyph>
    <TTGlyph name="Atilde" xMin="9" yMin="0" xMax="617" yMax="883">
      <contour>
        <pt x="197" y="763" on="1"/>
        <pt x="153" y="763" on="1"/>
        <pt x="146" y="823" on="0"/>
        <pt x="192" y="886" on="0"/>
        <pt x="231" y="883" on="1"/>
        <pt x="264" y="880" on="0"/>
        <pt x="356" y="832" on="0"/>
        <pt x="382" y="829" on="1"/>
        <pt x="409" y="826" on="0"/>
        <pt x="429" y="849" on="0"/>
        <pt x="429" y="878" on="1"/>
        <pt x="473" y="878" on="1"/>
        <pt x="480" y="820" on="0"/>
        <pt x="436" y="757" on="0"/>
        <pt x="395" y="760" on="1"/>
        <pt x="358" y="763" on="0"/>
        <pt x="263" y="812" on="0"/>
        <pt x="242" y="815" on="1"/>
        <pt x="216" y="818" on="0"/>
        <pt x="197" y="794" on="0"/>
      </contour>
      <contour>
        <pt x="450" y="208" on="1"/>
        <pt x="175" y="208" on="1"/>
        <pt x="111" y="0" on="1"/>
        <pt x="9" y="0" on="1"/>
        <pt x="225" y="663" on="1"/>
        <pt x="233" y="690" on="0"/>
        <pt x="262" y="690" on="1"/>
        <pt x="364" y="690" on="1"/>
        <pt x="394" y="690" on="0"/>
        <pt x="400" y="663" on="1"/>
        <pt x="617" y="0" on="1"/>
        <pt x="514" y="0" on="1"/>
      </contour>
      <contour>
        <pt x="424" y="295" on="1"/>
        <pt x="343" y="557" on="1"/>
        <pt x="340" y="566" on="0"/>
        <pt x="329" y="604" on="0"/>
        <pt x="326" y="613" on="1"/>
        <pt x="299" y="613" on="1"/>
        <pt x="283" y="557" on="1"/>
        <pt x="202" y="295" on="1"/>
      </contour>
    </TTGlyph>
    <TTGlyph name="B" xMin="84" yMin="-8" xMax="566" yMax="698">
      <contour>
        <pt x="428" y="360" on="1"/>
        <pt x="428" y="356" on="1"/>
        <pt x="503" y="349" on="0"/>
        <pt x="566" y="258" on="0"/>
        <pt x="566" y="172" on="1"/>
        <pt x="566" y="68" on="0"/>
        <pt x="467" y="-8" on="0"/>
        <pt x="344" y="-8" on="1"/>
        <pt x="175" y="-8" on="0"/>
        <pt x="84" y="0" on="1"/>
        <pt x="84" y="690" on="1"/>
        <pt x="165" y="698" on="0"/>
        <pt x="314" y="698" on="1"/>
        <pt x="444" y="698" on="0"/>
        <pt x="545" y="623" on="0"/>
        <pt x="545" y="518" on="1"/>
        <pt x="545" y="443" on="0"/>
        <pt x="489" y="366" on="0"/>
      </contour>
      <contour>
        <pt x="182" y="396" on="1"/>
        <pt x="322" y="396" on="1"/>
        <pt x="394" y="396" on="0"/>
        <pt x="449" y="441" on="0"/>
        <pt x="449" y="506" on="1"/>
        <pt x="449" y="570" on="0"/>
        <pt x="389" y="613" on="0"/>
        <pt x="309" y="613" on="1"/>
        <pt x="182" y="613" on="1"/>
      </contour>
      <contour>
        <pt x="182" y="78" on="1"/>
        <pt x="329" y="77" on="1"/>
        <pt x="408" y="77" on="0"/>
        <pt x="465" y="122" on="0"/>
        <pt x="465" y="189" on="1"/>
        <pt x="465" y="264" on="0"/>
        <pt x="404" y="318" on="0"/>
        <pt x="323" y="319" on="1"/>
        <pt x="182" y="319" on="1"/>
      </contour>
    </TTGlyph>
    <TTGlyph name="C" xMin="59" yMin="-12" xMax="537" yMax="702">
      <contour>
        <pt x="527" y="88" on="1"/>
        <pt x="537" y="12" on="1"/>
        <pt x="454" y="-12" on="0"/>
        <pt x="332" y="-12" on="1"/>
        <pt x="181" y="-12" on="0"/>
        <pt x="59" y="148" on="0"/>
        <pt x="59" y="542" on="0"/>
        <pt x="181" y="702" on="0"/>
        <pt x="332" y="702" on="1"/>
        <pt x="440" y="702" on="0"/>
        <pt x="523" y="682" on="1"/>
        <pt x="513" y="605" on="1"/>
        <pt x="433" y="613" on="0"/>
        <pt x="332" y="613" on="1"/>
        <pt x="237" y="613" on="0"/>
        <pt x="164" y="497" on="0"/>
        <pt x="164" y="193" on="0"/>
        <pt x="237" y="77" on="0"/>
        <pt x="332" y="77" on="1"/>
        <pt x="459" y="77" on="0"/>
      </contour>
    </TTGlyph>
    <TTGlyph name="Cacute" xMin="59" yMin="-12" xMax="537" yMax="917">
      <contour>
        <pt x="483" y="843" on="1"/>
        <pt x="284" y="726" on="1"/>
        <pt x="251" y="771" on="1"/>
        <pt x="428" y="917" on="1"/>
      </contour>
      <contour>
        <pt x="527" y="88" on="1"/>
        <pt x="537" y="12" on="1"/>
        <pt x="454" y="-12" on="0"/>
        <pt x="332" y="-12" on="1"/>
        <pt x="181" y="-12" on="0"/>
        <pt x="59" y="148" on="0"/>
        <pt x="59" y="542" on="0"/>
        <pt x="181" y="702" on="0"/>
        <pt x="332" y="702" on="1"/>
        <pt x="440" y="702" on="0"/>
        <pt x="523" y="682" on="1"/>
        <pt x="513" y="605" on="1"/>
        <pt x="433" y="613" on="0"/>
        <pt x="332" y="613" on="1"/>
        <pt x="237" y="613" on="0"/>
        <pt x="164" y="497" on="0"/>
        <pt x="164" y="193" on="0"/>
        <pt x="237" y="77" on="0"/>
        <pt x="332" y="77" on="1"/>
        <pt x="459" y="77" on="0"/>
      </contour>
    </TTGlyph>
    <TTGlyph name="Ccaron" xMin="59" yMin="-12" xMax="537" yMax="913">
      <contour>
        <pt x="488" y="872" on="1"/>
        <pt x="343" y="743" on="1"/>
        <pt x="299" y="743" on="1"/>
        <pt x="155" y="872" on="1"/>
        <pt x="187" y="913" on="1"/>
        <pt x="317" y="829" on="1"/>
        <pt x="325" y="829" on="1"/>
        <pt x="454" y="913" on="1"/>
      </contour>
      <contour>
        <pt x="527" y="88" on="1"/>
        <pt x="537" y="12" on="1"/>
        <pt x="454" y="-12" on="0"/>
        <pt x="332" y="-12" on="1"/>
        <pt x="181" y="-12" on="0"/>
        <pt x="59" y="148" on="0"/>
        <pt x="59" y="542" on="0"/>
        <pt x="181" y="702" on="0"/>
        <pt x="332" y="702" on="1"/>
        <pt x="440" y="702" on="0"/>
        <pt x="523" y="682" on="1"/>
        <pt x="513" y="605" on="1"/>
        <pt x="433" y="613" on="0"/>
        <pt x="332" y="613" on="1"/>
        <pt x="237" y="613" on="0"/>
        <pt x="164" y="497" on="0"/>
        <pt x="164" y="193" on="0"/>
        <pt x="237" y="77" on="0"/>
        <pt x="332" y="77" on="1"/>
        <pt x="459" y="77" on="0"/>
      </contour>
    </TTGlyph>
    <TTGlyph name="Ccedilla" xMin="59" yMin="-243" xMax="537" yMax="702">
      <contour>
        <pt x="527" y="88" on="1"/>
        <pt x="537" y="12" on="1"/>
        <pt x="454" y="-12" on="0"/>
        <pt x="332" y="-12" on="1"/>
        <pt x="181" y="-12" on="0"/>
        <pt x="59" y="148" on="0"/>
        <pt x="59" y="542" on="0"/>
        <pt x="181" y="702" on="0"/>
        <pt x="332" y="702" on="1"/>
        <pt x="440" y="702" on="0"/>
        <pt x="523" y="682" on="1"/>
        <pt x="513" y="605" on="1"/>
        <pt x="433" y="613" on="0"/>
        <pt x="332" y="613" on="1"/>
        <pt x="237" y="613" on="0"/>
        <pt x="164" y="497" on="0"/>
        <pt x="164" y="193" on="0"/>
        <pt x="237" y="77" on="0"/>
        <pt x="332" y="77" on="1"/>
        <pt x="459" y="77" on="0"/>
      </contour>
      <contour>
        <pt x="268" y="-99" on="1"/>
        <pt x="278" y="-54" on="1"/>
        <pt x="343" y="-48" on="0"/>
        <pt x="397" y="-74" on="0"/>
        <pt x="396" y="-119" on="1"/>
        <pt x="394" y="-184" on="0"/>
        <pt x="296" y="-253" on="0"/>
        <pt x="223" y="-243" on="1"/>
        <pt x="238" y="-192" on="1"/>
        <pt x="276" y="-193" on="0"/>
        <pt x="325" y="-157" on="0"/>
        <pt x="327" y="-127" on="1"/>
        <pt x="328" y="-111" on="0"/>
        <pt x="304" y="-100" on="0"/>
      </contour>
    </TTGlyph>
    <TTGlyph name="Cdotaccent" xMin="59" yMin="-12" xMax="537" yMax="869">
      <contour>
        <pt x="305" y="869" on="1"/>
        <pt x="336" y="869" on="1"/>
        <pt x="364" y="869" on="0"/>
        <pt x="364" y="840" on="1"/>
        <pt x="364" y="784" on="1"/>
        <pt x="364" y="756" on="0"/>
        <pt x="336" y="756" on="1"/>
        <pt x="305" y="756" on="1"/>
        <pt x="276" y="756" on="0"/>
        <pt x="276" y="784" on="1"/>
        <pt x="276" y="840" on="1"/>
        <pt x="276" y="869" on="0"/>
      </contour>
      <contour>
        <pt x="527" y="88" on="1"/>
        <pt x="537" y="12" on="1"/>
        <pt x="454" y="-12" on="0"/>
        <pt x="332" y="-12" on="1"/>
        <pt x="181" y="-12" on="0"/>
        <pt x="59" y="148" on="0"/>
        <pt x="59" y="542" on="0"/>
        <pt x="181" y="702" on="0"/>
        <pt x="332" y="702" on="1"/>
        <pt x="440" y="702" on="0"/>
        <pt x="523" y="682" on="1"/>
        <pt x="513" y="605" on="1"/>
        <pt x="433" y="613" on="0"/>
        <pt x="332" y="613" on="1"/>
        <pt x="237" y="613" on="0"/>
        <pt x="164" y="497" on="0"/>
        <pt x="164" y="193" on="0"/>
        <pt x="237" y="77" on="0"/>
        <pt x="332" y="77" on="1"/>
        <pt x="459" y="77" on="0"/>
      </contour>
    </TTGlyph>
    <TTGlyph name="D" xMin="84" yMin="-9" xMax="606" yMax="699">
      <contour>
        <pt x="84" y="0" on="1"/>
        <pt x="84" y="690" on="1"/>
        <pt x="215" y="699" on="0"/>
        <pt x="333" y="699" on="1"/>
        <pt x="485" y="699" on="0"/>
        <pt x="606" y="545" on="0"/>
        <pt x="606" y="145" on="0"/>
        <pt x="485" y="-9" on="0"/>
        <pt x="333" y="-9" on="1"/>
        <pt x="215" y="-9" on="0"/>
      </contour>
      <contour>
        <pt x="184" y="611" on="1"/>
        <pt x="184" y="81" on="1"/>
        <pt x="248" y="78" on="0"/>
        <pt x="333" y="78" on="1"/>
        <pt x="427" y="78" on="0"/>
        <pt x="500" y="194" on="0"/>
        <pt x="500" y="496" on="0"/>
        <pt x="427" y="612" on="0"/>
        <pt x="333" y="612" on="1"/>
        <pt x="303" y="612" on="0"/>
        <pt x="204" y="611" on="0"/>
      </contour>
    </TTGlyph>
    <TTGlyph name="Dcaron" xMin="84" yMin="-9" xMax="606" yMax="913">
      <contour>
        <pt x="296" y="743" on="1"/>
        <pt x="152" y="872" on="1"/>
        <pt x="184" y="913" on="1"/>
        <pt x="314" y="829" on="1"/>
        <pt x="322" y="829" on="1"/>
        <pt x="451" y="913" on="1"/>
        <pt x="485" y="872" on="1"/>
        <pt x="340" y="743" on="1"/>
      </contour>
      <contour>
        <pt x="84" y="0" on="1"/>
        <pt x="84" y="690" on="1"/>
        <pt x="215" y="699" on="0"/>
        <pt x="333" y="699" on="1"/>
        <pt x="485" y="699" on="0"/>
        <pt x="606" y="545" on="0"/>
        <pt x="606" y="145" on="0"/>
        <pt x="485" y="-9" on="0"/>
        <pt x="333" y="-9" on="1"/>
        <pt x="215" y="-9" on="0"/>
      </contour>
      <contour>
        <pt x="184" y="611" on="1"/>
        <pt x="184" y="81" on="1"/>
        <pt x="248" y="78" on="0"/>
        <pt x="333" y="78" on="1"/>
        <pt x="427" y="78" on="0"/>
        <pt x="500" y="194" on="0"/>
        <pt x="500" y="496" on="0"/>
        <pt x="427" y="612" on="0"/>
        <pt x="333" y="612" on="1"/>
        <pt x="303" y="612" on="0"/>
        <pt x="204" y="611" on="0"/>
      </contour>
    </TTGlyph>
    <TTGlyph name="Dcroat" xMin="22" yMin="-9" xMax="610" yMax="699">
      <contour>
        <pt x="89" y="393" on="1"/>
        <pt x="89" y="690" on="1"/>
        <pt x="220" y="699" on="0"/>
        <pt x="338" y="699" on="1"/>
        <pt x="489" y="699" on="0"/>
        <pt x="610" y="544" on="0"/>
        <pt x="610" y="146" on="0"/>
        <pt x="489" y="-9" on="0"/>
        <pt x="338" y="-9" on="1"/>
        <pt x="220" y="-9" on="0"/>
        <pt x="89" y="0" on="1"/>
        <pt x="89" y="338" on="1"/>
        <pt x="22" y="338" on="1"/>
        <pt x="22" y="393" on="1"/>
      </contour>
      <contour>
        <pt x="188" y="338" on="1"/>
        <pt x="188" y="81" on="1"/>
        <pt x="254" y="78" on="0"/>
        <pt x="338" y="78" on="1"/>
        <pt x="432" y="78" on="0"/>
        <pt x="505" y="194" on="0"/>
        <pt x="505" y="496" on="0"/>
        <pt x="432" y="612" on="0"/>
        <pt x="338" y="612" on="1"/>
        <pt x="307" y="612" on="0"/>
        <pt x="209" y="611" on="0"/>
        <pt x="188" y="611" on="1"/>
        <pt x="188" y="393" on="1"/>
        <pt x="334" y="393" on="1"/>
        <pt x="334" y="338" on="1"/>
      </contour>
    </TTGlyph>
    <TTGlyph name="Delta" xMin="23" yMin="0" xMax="606" yMax="690">
      <contour>
        <pt x="606" y="40" on="1"/>
        <pt x="606" y="0" on="1"/>
        <pt x="23" y="0" on="1"/>
        <pt x="23" y="40" on="1"/>
        <pt x="264" y="690" on="1"/>
        <pt x="365" y="690" on="1"/>
      </contour>
      <contour>
        <pt x="488" y="81" on="1"/>
        <pt x="337" y="513" on="1"/>
        <pt x="335" y="517" on="0"/>
        <pt x="315" y="593" on="1"/>
        <pt x="311" y="580" on="0"/>
        <pt x="296" y="526" on="0"/>
        <pt x="292" y="512" on="1"/>
        <pt x="139" y="81" on="1"/>
      </contour>
    </TTGlyph>
    <TTGlyph name="E" xMin="78" yMin="-2" xMax="513" yMax="692">
      <contour>
        <pt x="508" y="83" on="1"/>
        <pt x="513" y="6" on="1"/>
        <pt x="422" y="-2" on="0"/>
        <pt x="217" y="-2" on="1"/>
        <pt x="153" y="-2" on="0"/>
        <pt x="79" y="65" on="0"/>
        <pt x="78" y="122" on="1"/>
        <pt x="78" y="568" on="1"/>
        <pt x="79" y="625" on="0"/>
        <pt x="153" y="692" on="0"/>
        <pt x="217" y="692" on="1"/>
        <pt x="422" y="692" on="0"/>
        <pt x="513" y="684" on="1"/>
        <pt x="508" y="606" on="1"/>
        <pt x="234" y="606" on="1"/>
        <pt x="204" y="606" on="0"/>
        <pt x="179" y="577" on="0"/>
        <pt x="179" y="542" on="1"/>
        <pt x="179" y="404" on="1"/>
        <pt x="470" y="404" on="1"/>
        <pt x="470" y="323" on="1"/>
        <pt x="179" y="323" on="1"/>
        <pt x="179" y="147" on="1"/>
        <pt x="179" y="112" on="0"/>
        <pt x="204" y="83" on="0"/>
        <pt x="234" y="83" on="1"/>
      </contour>
    </TTGlyph>
    <TTGlyph name="Eacute" xMin="78" yMin="-2" xMax="513" yMax="937">
      <contour>
        <pt x="273" y="746" on="1"/>
        <pt x="241" y="790" on="1"/>
        <pt x="418" y="937" on="1"/>
        <pt x="473" y="863" on="1"/>
      </contour>
      <contour>
        <pt x="508" y="83" on="1"/>
        <pt x="513" y="6" on="1"/>
        <pt x="422" y="-2" on="0"/>
        <pt x="217" y="-2" on="1"/>
        <pt x="153" y="-2" on="0"/>
        <pt x="79" y="65" on="0"/>
        <pt x="78" y="122" on="1"/>
        <pt x="78" y="568" on="1"/>
        <pt x="79" y="625" on="0"/>
        <pt x="153" y="692" on="0"/>
        <pt x="217" y="692" on="1"/>
        <pt x="422" y="692" on="0"/>
        <pt x="513" y="684" on="1"/>
        <pt x="508" y="606" on="1"/>
        <pt x="234" y="606" on="1"/>
        <pt x="204" y="606" on="0"/>
        <pt x="179" y="577" on="0"/>
        <pt x="179" y="542" on="1"/>
        <pt x="179" y="404" on="1"/>
        <pt x="470" y="404" on="1"/>
        <pt x="470" y="323" on="1"/>
        <pt x="179" y="323" on="1"/>
        <pt x="179" y="147" on="1"/>
        <pt x="179" y="112" on="0"/>
        <pt x="204" y="83" on="0"/>
        <pt x="234" y="83" on="1"/>
      </contour>
    </TTGlyph>
    <TTGlyph name="Ecaron" xMin="78" yMin="-2" xMax="513" yMax="933">
      <contour>
        <pt x="289" y="762" on="1"/>
        <pt x="145" y="892" on="1"/>
        <pt x="177" y="933" on="1"/>
        <pt x="307" y="849" on="1"/>
        <pt x="315" y="849" on="1"/>
        <pt x="444" y="933" on="1"/>
        <pt x="478" y="892" on="1"/>
        <pt x="333" y="762" on="1"/>
      </contour>
      <contour>
        <pt x="508" y="83" on="1"/>
        <pt x="513" y="6" on="1"/>
        <pt x="422" y="-2" on="0"/>
        <pt x="217" y="-2" on="1"/>
        <pt x="153" y="-2" on="0"/>
        <pt x="79" y="65" on="0"/>
        <pt x="78" y="122" on="1"/>
        <pt x="78" y="568" on="1"/>
        <pt x="79" y="625" on="0"/>
        <pt x="153" y="692" on="0"/>
        <pt x="217" y="692" on="1"/>
        <pt x="422" y="692" on="0"/>
        <pt x="513" y="684" on="1"/>
        <pt x="508" y="606" on="1"/>
        <pt x="234" y="606" on="1"/>
        <pt x="204" y="606" on="0"/>
        <pt x="179" y="577" on="0"/>
        <pt x="179" y="542" on="1"/>
        <pt x="179" y="404" on="1"/>
        <pt x="470" y="404" on="1"/>
        <pt x="470" y="323" on="1"/>
        <pt x="179" y="323" on="1"/>
        <pt x="179" y="147" on="1"/>
        <pt x="179" y="112" on="0"/>
        <pt x="204" y="83" on="0"/>
        <pt x="234" y="83" on="1"/>
      </contour>
    </TTGlyph>
    <TTGlyph name="Ecircumflex" xMin="78" yMin="-2" xMax="513" yMax="919">
      <contour>
        <pt x="176" y="748" on="1"/>
        <pt x="144" y="790" on="1"/>
        <pt x="275" y="919" on="1"/>
        <pt x="345" y="919" on="1"/>
        <pt x="476" y="790" on="1"/>
        <pt x="443" y="748" on="1"/>
        <pt x="314" y="845" on="1"/>
        <pt x="306" y="845" on="1"/>
      </contour>
      <contour>
        <pt x="508" y="83" on="1"/>
        <pt x="513" y="6" on="1"/>
        <pt x="422" y="-2" on="0"/>
        <pt x="217" y="-2" on="1"/>
        <pt x="153" y="-2" on="0"/>
        <pt x="79" y="65" on="0"/>
        <pt x="78" y="122" on="1"/>
        <pt x="78" y="568" on="1"/>
        <pt x="79" y="625" on="0"/>
        <pt x="153" y="692" on="0"/>
        <pt x="217" y="692" on="1"/>
        <pt x="422" y="692" on="0"/>
        <pt x="513" y="684" on="1"/>
        <pt x="508" y="606" on="1"/>
        <pt x="234" y="606" on="1"/>
        <pt x="204" y="606" on="0"/>
        <pt x="179" y="577" on="0"/>
        <pt x="179" y="542" on="1"/>
        <pt x="179" y="404" on="1"/>
        <pt x="470" y="404" on="1"/>
        <pt x="470" y="323" on="1"/>
        <pt x="179" y="323" on="1"/>
        <pt x="179" y="147" on="1"/>
        <pt x="179" y="112" on="0"/>
        <pt x="204" y="83" on="0"/>
        <pt x="234" y="83" on="1"/>
      </contour>
    </TTGlyph>
    <TTGlyph name="Edieresis" xMin="78" yMin="-2" xMax="513" yMax="892">
      <contour>
        <pt x="237" y="785" on="1"/>
        <pt x="205" y="785" on="1"/>
        <pt x="179" y="785" on="0"/>
        <pt x="179" y="811" on="1"/>
        <pt x="179" y="866" on="1"/>
        <pt x="179" y="892" on="0"/>
        <pt x="205" y="892" on="1"/>
        <pt x="237" y="892" on="1"/>
        <pt x="263" y="892" on="0"/>
        <pt x="263" y="866" on="1"/>
        <pt x="263" y="811" on="1"/>
        <pt x="263" y="785" on="0"/>
      </contour>
      <contour>
        <pt x="414" y="785" on="1"/>
        <pt x="383" y="785" on="1"/>
        <pt x="356" y="785" on="0"/>
        <pt x="356" y="811" on="1"/>
        <pt x="356" y="866" on="1"/>
        <pt x="356" y="892" on="0"/>
        <pt x="383" y="892" on="1"/>
        <pt x="414" y="892" on="1"/>
        <pt x="441" y="892" on="0"/>
        <pt x="441" y="866" on="1"/>
        <pt x="441" y="811" on="1"/>
        <pt x="441" y="785" on="0"/>
      </contour>
      <contour>
        <pt x="508" y="83" on="1"/>
        <pt x="513" y="6" on="1"/>
        <pt x="422" y="-2" on="0"/>
        <pt x="217" y="-2" on="1"/>
        <pt x="153" y="-2" on="0"/>
        <pt x="79" y="65" on="0"/>
        <pt x="78" y="122" on="1"/>
        <pt x="78" y="568" on="1"/>
        <pt x="79" y="625" on="0"/>
        <pt x="153" y="692" on="0"/>
        <pt x="217" y="692" on="1"/>
        <pt x="422" y="692" on="0"/>
        <pt x="513" y="684" on="1"/>
        <pt x="508" y="606" on="1"/>
        <pt x="234" y="606" on="1"/>
        <pt x="204" y="606" on="0"/>
        <pt x="179" y="577" on="0"/>
        <pt x="179" y="542" on="1"/>
        <pt x="179" y="404" on="1"/>
        <pt x="470" y="404" on="1"/>
        <pt x="470" y="323" on="1"/>
        <pt x="179" y="323" on="1"/>
        <pt x="179" y="147" on="1"/>
        <pt x="179" y="112" on="0"/>
        <pt x="204" y="83" on="0"/>
        <pt x="234" y="83" on="1"/>
      </contour>
    </TTGlyph>
    <TTGlyph name="Edotaccent" xMin="78" yMin="-2" xMax="513" yMax="888">
      <contour>
        <pt x="325" y="775" on="1"/>
        <pt x="295" y="775" on="1"/>
        <pt x="266" y="775" on="0"/>
        <pt x="266" y="804" on="1"/>
        <pt x="266" y="860" on="1"/>
        <pt x="266" y="888" on="0"/>
        <pt x="295" y="888" on="1"/>
        <pt x="325" y="888" on="1"/>
        <pt x="354" y="888" on="0"/>
        <pt x="354" y="860" on="1"/>
        <pt x="354" y="804" on="1"/>
        <pt x="354" y="775" on="0"/>
      </contour>
      <contour>
        <pt x="508" y="83" on="1"/>
        <pt x="513" y="6" on="1"/>
        <pt x="422" y="-2" on="0"/>
        <pt x="217" y="-2" on="1"/>
        <pt x="153" y="-2" on="0"/>
        <pt x="79" y="65" on="0"/>
        <pt x="78" y="122" on="1"/>
        <pt x="78" y="568" on="1"/>
        <pt x="79" y="625" on="0"/>
        <pt x="153" y="692" on="0"/>
        <pt x="217" y="692" on="1"/>
        <pt x="422" y="692" on="0"/>
        <pt x="513" y="684" on="1"/>
        <pt x="508" y="606" on="1"/>
        <pt x="234" y="606" on="1"/>
        <pt x="204" y="606" on="0"/>
        <pt x="179" y="577" on="0"/>
        <pt x="179" y="542" on="1"/>
        <pt x="179" y="404" on="1"/>
        <pt x="470" y="404" on="1"/>
        <pt x="470" y="323" on="1"/>
        <pt x="179" y="323" on="1"/>
        <pt x="179" y="147" on="1"/>
        <pt x="179" y="112" on="0"/>
        <pt x="204" y="83" on="0"/>
        <pt x="234" y="83" on="1"/>
      </contour>
    </TTGlyph>
    <TTGlyph name="Egrave" xMin="78" yMin="-2" xMax="513" yMax="937">
      <contour>
        <pt x="329" y="746" on="1"/>
        <pt x="130" y="863" on="1"/>
        <pt x="185" y="937" on="1"/>
        <pt x="362" y="790" on="1"/>
      </contour>
      <contour>
        <pt x="508" y="83" on="1"/>
        <pt x="513" y="6" on="1"/>
        <pt x="422" y="-2" on="0"/>
        <pt x="217" y="-2" on="1"/>
        <pt x="153" y="-2" on="0"/>
        <pt x="79" y="65" on="0"/>
        <pt x="78" y="122" on="1"/>
        <pt x="78" y="568" on="1"/>
        <pt x="79" y="625" on="0"/>
        <pt x="153" y="692" on="0"/>
        <pt x="217" y="692" on="1"/>
        <pt x="422" y="692" on="0"/>
        <pt x="513" y="684" on="1"/>
        <pt x="508" y="606" on="1"/>
        <pt x="234" y="606" on="1"/>
        <pt x="204" y="606" on="0"/>
        <pt x="179" y="577" on="0"/>
        <pt x="179" y="542" on="1"/>
        <pt x="179" y="404" on="1"/>
        <pt x="470" y="404" on="1"/>
        <pt x="470" y="323" on="1"/>
        <pt x="179" y="323" on="1"/>
        <pt x="179" y="147" on="1"/>
        <pt x="179" y="112" on="0"/>
        <pt x="204" y="83" on="0"/>
        <pt x="234" y="83" on="1"/>
      </contour>
    </TTGlyph>
    <TTGlyph name="Emacron" xMin="78" yMin="-2" xMax="513" yMax="873">
      <contour>
        <pt x="451" y="802" on="1"/>
        <pt x="169" y="802" on="1"/>
        <pt x="169" y="873" on="1"/>
        <pt x="451" y="873" on="1"/>
      </contour>
      <contour>
        <pt x="508" y="83" on="1"/>
        <pt x="513" y="6" on="1"/>
        <pt x="422" y="-2" on="0"/>
        <pt x="217" y="-2" on="1"/>
        <pt x="153" y="-2" on="0"/>
        <pt x="79" y="65" on="0"/>
        <pt x="78" y="122" on="1"/>
        <pt x="78" y="568" on="1"/>
        <pt x="79" y="625" on="0"/>
        <pt x="153" y="692" on="0"/>
        <pt x="217" y="692" on="1"/>
        <pt x="422" y="692" on="0"/>
        <pt x="513" y="684" on="1"/>
        <pt x="508" y="606" on="1"/>
        <pt x="234" y="606" on="1"/>
        <pt x="204" y="606" on="0"/>
        <pt x="179" y="577" on="0"/>
        <pt x="179" y="542" on="1"/>
        <pt x="179" y="404" on="1"/>
        <pt x="470" y="404" on="1"/>
        <pt x="470" y="323" on="1"/>
        <pt x="179" y="323" on="1"/>
        <pt x="179" y="147" on="1"/>
        <pt x="179" y="112" on="0"/>
        <pt x="204" y="83" on="0"/>
        <pt x="234" y="83" on="1"/>
      </contour>
    </TTGlyph>
    <TTGlyph name="Eng" xMin="84" yMin="-215" xMax="624" yMax="690">
      <contour>
        <pt x="624" y="690" on="1"/>
        <pt x="624" y="-75" on="1"/>
        <pt x="624" y="-142" on="0"/>
        <pt x="550" y="-216" on="0"/>
        <pt x="487" y="-215" on="1"/>
        <pt x="434" y="-215" on="0"/>
        <pt x="394" y="-201" on="1"/>
        <pt x="405" y="-138" on="1"/>
        <pt x="452" y="-138" on="1"/>
        <pt x="530" y="-138" on="0"/>
        <pt x="530" y="-67" on="1"/>
        <pt x="530" y="0" on="1"/>
        <pt x="495" y="0" on="1"/>
        <pt x="481" y="0" on="0"/>
        <pt x="466" y="28" on="1"/>
        <pt x="233" y="483" on="1"/>
        <pt x="214" y="519" on="0"/>
        <pt x="191" y="579" on="1"/>
        <pt x="179" y="579" on="1"/>
        <pt x="184" y="547" on="0"/>
        <pt x="184" y="482" on="1"/>
        <pt x="184" y="0" on="1"/>
        <pt x="84" y="0" on="1"/>
        <pt x="84" y="651" on="1"/>
        <pt x="84" y="690" on="0"/>
        <pt x="122" y="690" on="1"/>
        <pt x="195" y="690" on="1"/>
        <pt x="223" y="690" on="0"/>
        <pt x="239" y="659" on="1"/>
        <pt x="466" y="219" on="1"/>
        <pt x="486" y="181" on="0"/>
        <pt x="514" y="115" on="1"/>
        <pt x="529" y="115" on="1"/>
        <pt x="524" y="173" on="0"/>
        <pt x="524" y="220" on="1"/>
        <pt x="524" y="690" on="1"/>
      </contour>
    </TTGlyph>
    <TTGlyph name="Eogonek" xMin="78" yMin="-195" xMax="528" yMax="692">
      <contour>
        <pt x="517" y="-148" on="1"/>
        <pt x="528" y="-187" on="1"/>
        <pt x="432" y="-222" on="0"/>
        <pt x="353" y="-168" on="0"/>
        <pt x="374" y="-110" on="1"/>
        <pt x="394" y="-53" on="0"/>
        <pt x="464" y="2" on="1"/>
        <pt x="385" y="-2" on="0"/>
        <pt x="217" y="-2" on="1"/>
        <pt x="153" y="-2" on="0"/>
        <pt x="79" y="65" on="0"/>
        <pt x="78" y="122" on="1"/>
        <pt x="78" y="568" on="1"/>
        <pt x="79" y="625" on="0"/>
        <pt x="153" y="692" on="0"/>
        <pt x="217" y="692" on="1"/>
        <pt x="422" y="692" on="0"/>
        <pt x="513" y="684" on="1"/>
        <pt x="508" y="606" on="1"/>
        <pt x="234" y="606" on="1"/>
        <pt x="204" y="606" on="0"/>
        <pt x="179" y="577" on="0"/>
        <pt x="179" y="542" on="1"/>
        <pt x="179" y="404" on="1"/>
        <pt x="470" y="404" on="1"/>
        <pt x="470" y="323" on="1"/>
        <pt x="179" y="323" on="1"/>
        <pt x="179" y="147" on="1"/>
        <pt x="179" y="112" on="0"/>
        <pt x="204" y="83" on="0"/>
        <pt x="234" y="83" on="1"/>
        <pt x="508" y="83" on="1"/>
        <pt x="513" y="6" on="1"/>
        <pt x="461" y="-57" on="0"/>
        <pt x="442" y="-105" on="1"/>
        <pt x="427" y="-140" on="0"/>
        <pt x="471" y="-163" on="0"/>
      </contour>
    </TTGlyph>
    <TTGlyph name="Eth" xMin="22" yMin="-9" xMax="610" yMax="699">
      <contour>
        <pt x="89" y="393" on="1"/>
        <pt x="89" y="690" on="1"/>
        <pt x="220" y="699" on="0"/>
        <pt x="338" y="699" on="1"/>
        <pt x="489" y="699" on="0"/>
        <pt x="610" y="544" on="0"/>
        <pt x="610" y="146" on="0"/>
        <pt x="489" y="-9" on="0"/>
        <pt x="338" y="-9" on="1"/>
        <pt x="220" y="-9" on="0"/>
        <pt x="89" y="0" on="1"/>
        <pt x="89" y="338" on="1"/>
        <pt x="22" y="338" on="1"/>
        <pt x="22" y="393" on="1"/>
      </contour>
      <contour>
        <pt x="188" y="338" on="1"/>
        <pt x="188" y="81" on="1"/>
        <pt x="254" y="78" on="0"/>
        <pt x="338" y="78" on="1"/>
        <pt x="432" y="78" on="0"/>
        <pt x="505" y="194" on="0"/>
        <pt x="505" y="496" on="0"/>
        <pt x="432" y="612" on="0"/>
        <pt x="338" y="612" on="1"/>
        <pt x="307" y="612" on="0"/>
        <pt x="209" y="611" on="0"/>
        <pt x="188" y="611" on="1"/>
        <pt x="188" y="393" on="1"/>
        <pt x="334" y="393" on="1"/>
        <pt x="334" y="338" on="1"/>
      </contour>
    </TTGlyph>
    <TTGlyph name="Euro" xMin="50" yMin="-12" xMax="588" yMax="702">
      <contour>
        <pt x="577" y="89" on="1"/>
        <pt x="588" y="12" on="1"/>
        <pt x="513" y="-12" on="0"/>
        <pt x="408" y="-12" on="1"/>
        <pt x="276" y="-12" on="0"/>
        <pt x="146" y="120" on="0"/>
        <pt x="133" y="258" on="1"/>
        <pt x="50" y="258" on="1"/>
        <pt x="50" y="317" on="1"/>
        <pt x="129" y="317" on="1"/>
        <pt x="129" y="345" on="1"/>
        <pt x="129" y="374" on="0"/>
        <pt x="130" y="387" on="1"/>
        <pt x="51" y="387" on="1"/>
        <pt x="51" y="446" on="1"/>
        <pt x="134" y="446" on="1"/>
        <pt x="149" y="576" on="0"/>
        <pt x="279" y="702" on="0"/>
        <pt x="408" y="702" on="1"/>
        <pt x="498" y="702" on="0"/>
        <pt x="575" y="682" on="1"/>
        <pt x="565" y="603" on="1"/>
        <pt x="485" y="617" on="0"/>
        <pt x="402" y="612" on="1"/>
        <pt x="330" y="609" on="0"/>
        <pt x="252" y="528" on="0"/>
        <pt x="240" y="446" on="1"/>
        <pt x="488" y="446" on="1"/>
        <pt x="481" y="387" on="1"/>
        <pt x="234" y="387" on="1"/>
        <pt x="234" y="380" on="0"/>
        <pt x="233" y="351" on="0"/>
        <pt x="233" y="343" on="1"/>
        <pt x="234" y="317" on="1"/>
        <pt x="451" y="317" on="1"/>
        <pt x="444" y="258" on="1"/>
        <pt x="238" y="258" on="1"/>
        <pt x="248" y="168" on="0"/>
        <pt x="326" y="80" on="0"/>
        <pt x="402" y="78" on="1"/>
        <pt x="496" y="73" on="0"/>
      </contour>
    </TTGlyph>
    <TTGlyph name="F" xMin="82" yMin="0" xMax="507" yMax="692">
      <contour>
        <pt x="502" y="606" on="1"/>
        <pt x="246" y="606" on="1"/>
        <pt x="211" y="606" on="0"/>
        <pt x="182" y="577" on="0"/>
        <pt x="182" y="542" on="1"/>
        <pt x="182" y="393" on="1"/>
        <pt x="464" y="393" on="1"/>
        <pt x="464" y="312" on="1"/>
        <pt x="182" y="312" on="1"/>
        <pt x="182" y="0" on="1"/>
        <pt x="82" y="0" on="1"/>
        <pt x="82" y="563" on="1"/>
        <pt x="82" y="624" on="0"/>
        <pt x="157" y="692" on="0"/>
        <pt x="221" y="692" on="1"/>
        <pt x="419" y="692" on="0"/>
        <pt x="507" y="683" on="1"/>
      </contour>
    </TTGlyph>
    <TTGlyph name="G" xMin="59" yMin="-13" xMax="564" yMax="703">
      <contour>
        <pt x="564" y="398" on="1"/>
        <pt x="564" y="0" on="1"/>
        <pt x="490" y="0" on="1"/>
        <pt x="480" y="70" on="1"/>
        <pt x="393" y="-13" on="0"/>
        <pt x="275" y="-13" on="1"/>
        <pt x="161" y="-13" on="0"/>
        <pt x="59" y="161" on="0"/>
        <pt x="59" y="348" on="1"/>
        <pt x="59" y="487" on="0"/>
        <pt x="117" y="640" on="0"/>
        <pt x="241" y="703" on="0"/>
        <pt x="353" y="703" on="1"/>
        <pt x="461" y="703" on="0"/>
        <pt x="545" y="682" on="1"/>
        <pt x="535" y="606" on="1"/>
        <pt x="451" y="614" on="0"/>
        <pt x="359" y="614" on="1"/>
        <pt x="312" y="614" on="0"/>
        <pt x="254" y="603" on="0"/>
        <pt x="204" y="571" on="0"/>
        <pt x="179" y="509" on="0"/>
        <pt x="165" y="413" on="0"/>
        <pt x="165" y="341" on="1"/>
        <pt x="165" y="192" on="0"/>
        <pt x="226" y="74" on="0"/>
        <pt x="303" y="74" on="1"/>
        <pt x="376" y="74" on="0"/>
        <pt x="466" y="135" on="1"/>
        <pt x="466" y="398" on="1"/>
      </contour>
    </TTGlyph>
    <TTGlyph name="Gbreve" xMin="59" yMin="-13" xMax="564" yMax="886">
      <contour>
        <pt x="431" y="886" on="1"/>
        <pt x="480" y="878" on="1"/>
        <pt x="485" y="819" on="0"/>
        <pt x="401" y="744" on="0"/>
        <pt x="328" y="744" on="1"/>
        <pt x="254" y="744" on="0"/>
        <pt x="170" y="819" on="0"/>
        <pt x="175" y="878" on="1"/>
        <pt x="224" y="886" on="1"/>
        <pt x="224" y="815" on="0"/>
        <pt x="329" y="815" on="1"/>
        <pt x="378" y="815" on="0"/>
        <pt x="432" y="852" on="0"/>
      </contour>
      <contour>
        <pt x="564" y="398" on="1"/>
        <pt x="564" y="0" on="1"/>
        <pt x="490" y="0" on="1"/>
        <pt x="480" y="70" on="1"/>
        <pt x="393" y="-13" on="0"/>
        <pt x="275" y="-13" on="1"/>
        <pt x="161" y="-13" on="0"/>
        <pt x="59" y="161" on="0"/>
        <pt x="59" y="348" on="1"/>
        <pt x="59" y="487" on="0"/>
        <pt x="117" y="640" on="0"/>
        <pt x="241" y="703" on="0"/>
        <pt x="353" y="703" on="1"/>
        <pt x="461" y="703" on="0"/>
        <pt x="545" y="682" on="1"/>
        <pt x="535" y="606" on="1"/>
        <pt x="451" y="614" on="0"/>
        <pt x="359" y="614" on="1"/>
        <pt x="312" y="614" on="0"/>
        <pt x="254" y="603" on="0"/>
        <pt x="204" y="571" on="0"/>
        <pt x="179" y="509" on="0"/>
        <pt x="165" y="413" on="0"/>
        <pt x="165" y="341" on="1"/>
        <pt x="165" y="192" on="0"/>
        <pt x="226" y="74" on="0"/>
        <pt x="303" y="74" on="1"/>
        <pt x="376" y="74" on="0"/>
        <pt x="466" y="135" on="1"/>
        <pt x="466" y="398" on="1"/>
      </contour>
    </TTGlyph>
    <TTGlyph name="Gcommaaccent" xMin="59" yMin="-277" xMax="564" yMax="703">
      <contour>
        <pt x="564" y="398" on="1"/>
        <pt x="564" y="0" on="1"/>
        <pt x="490" y="0" on="1"/>
        <pt x="480" y="70" on="1"/>
        <pt x="393" y="-13" on="0"/>
        <pt x="275" y="-13" on="1"/>
        <pt x="161" y="-13" on="0"/>
        <pt x="59" y="161" on="0"/>
        <pt x="59" y="348" on="1"/>
        <pt x="59" y="487" on="0"/>
        <pt x="117" y="640" on="0"/>
        <pt x="241" y="703" on="0"/>
        <pt x="353" y="703" on="1"/>
        <pt x="461" y="703" on="0"/>
        <pt x="545" y="682" on="1"/>
        <pt x="535" y="606" on="1"/>
        <pt x="451" y="614" on="0"/>
        <pt x="359" y="614" on="1"/>
        <pt x="312" y="614" on="0"/>
        <pt x="254" y="603" on="0"/>
        <pt x="204" y="571" on="0"/>
        <pt x="179" y="509" on="0"/>
        <pt x="165" y="413" on="0"/>
        <pt x="165" y="341" on="1"/>
        <pt x="165" y="192" on="0"/>
        <pt x="226" y="74" on="0"/>
        <pt x="303" y="74" on="1"/>
        <pt x="376" y="74" on="0"/>
        <pt x="466" y="135" on="1"/>
        <pt x="466" y="398" on="1"/>
      </contour>
      <contour>
        <pt x="313" y="-58" on="1"/>
        <pt x="339" y="-58" on="1"/>
        <pt x="357" y="-58" on="0"/>
        <pt x="370" y="-71" on="0"/>
        <pt x="370" y="-88" on="1"/>
        <pt x="370" y="-142" on="1"/>
        <pt x="369" y="-217" on="0"/>
        <pt x="336" y="-277" on="1"/>
        <pt x="294" y="-266" on="1"/>
        <pt x="304" y="-216" on="0"/>
        <pt x="304" y="-163" on="1"/>
        <pt x="293" y="-163" on="0"/>
        <pt x="279" y="-149" on="0"/>
        <pt x="280" y="-137" on="1"/>
        <pt x="280" y="-88" on="1"/>
        <pt x="281" y="-71" on="0"/>
        <pt x="295" y="-58" on="0"/>
      </contour>
    </TTGlyph>
    <TTGlyph name="Gdotaccent" xMin="59" yMin="-13" xMax="564" yMax="869">
      <contour>
        <pt x="344" y="756" on="1"/>
        <pt x="313" y="756" on="1"/>
        <pt x="284" y="756" on="0"/>
        <pt x="284" y="784" on="1"/>
        <pt x="284" y="840" on="1"/>
        <pt x="284" y="869" on="0"/>
        <pt x="313" y="869" on="1"/>
        <pt x="344" y="869" on="1"/>
        <pt x="372" y="869" on="0"/>
        <pt x="372" y="840" on="1"/>
        <pt x="372" y="784" on="1"/>
        <pt x="372" y="756" on="0"/>
      </contour>
      <contour>
        <pt x="564" y="398" on="1"/>
        <pt x="564" y="0" on="1"/>
        <pt x="490" y="0" on="1"/>
        <pt x="480" y="70" on="1"/>
        <pt x="393" y="-13" on="0"/>
        <pt x="275" y="-13" on="1"/>
        <pt x="161" y="-13" on="0"/>
        <pt x="59" y="161" on="0"/>
        <pt x="59" y="348" on="1"/>
        <pt x="59" y="487" on="0"/>
        <pt x="117" y="640" on="0"/>
        <pt x="241" y="703" on="0"/>
        <pt x="353" y="703" on="1"/>
        <pt x="461" y="703" on="0"/>
        <pt x="545" y="682" on="1"/>
        <pt x="535" y="606" on="1"/>
        <pt x="451" y="614" on="0"/>
        <pt x="359" y="614" on="1"/>
        <pt x="312" y="614" on="0"/>
        <pt x="254" y="603" on="0"/>
        <pt x="204" y="571" on="0"/>
        <pt x="179" y="509" on="0"/>
        <pt x="165" y="413" on="0"/>
        <pt x="165" y="341" on="1"/>
        <pt x="165" y="192" on="0"/>
        <pt x="226" y="74" on="0"/>
        <pt x="303" y="74" on="1"/>
        <pt x="376" y="74" on="0"/>
        <pt x="466" y="135" on="1"/>
        <pt x="466" y="398" on="1"/>
      </contour>
    </TTGlyph>
    <TTGlyph name="H" xMin="84" yMin="0" xMax="586" yMax="690">
      <contour>
        <pt x="586" y="690" on="1"/>
        <pt x="586" y="0" on="1"/>
        <pt x="486" y="0" on="1"/>
        <pt x="486" y="325" on="1"/>
        <pt x="184" y="325" on="1"/>
        <pt x="184" y="0" on="1"/>
        <pt x="84" y="0" on="1"/>
        <pt x="84" y="690" on="1"/>
        <pt x="184" y="690" on="1"/>
        <pt x="184" y="411" on="1"/>
        <pt x="486" y="411" on="1"/>
        <pt x="486" y="690" on="1"/>
      </contour>
    </TTGlyph>
    <TTGlyph name="Hbar" xMin="19" yMin="0" xMax="658" yMax="690">
      <contour>
        <pt x="658" y="518" on="1"/>
        <pt x="590" y="518" on="1"/>
        <pt x="590" y="0" on="1"/>
        <pt x="490" y="0" on="1"/>
        <pt x="490" y="325" on="1"/>
        <pt x="188" y="325" on="1"/>
        <pt x="188" y="0" on="1"/>
        <pt x="88" y="0" on="1"/>
        <pt x="88" y="518" on="1"/>
        <pt x="19" y="518" on="1"/>
        <pt x="19" y="570" on="1"/>
        <pt x="88" y="570" on="1"/>
        <pt x="88" y="690" on="1"/>
        <pt x="188" y="690" on="1"/>
        <pt x="188" y="570" on="1"/>
        <pt x="490" y="570" on="1"/>
        <pt x="490" y="690" on="1"/>
        <pt x="590" y="690" on="1"/>
        <pt x="590" y="570" on="1"/>
        <pt x="658" y="570" on="1"/>
      </contour>
      <contour>
        <pt x="490" y="518" on="1"/>
        <pt x="188" y="518" on="1"/>
        <pt x="188" y="411" on="1"/>
        <pt x="490" y="411" on="1"/>
      </contour>
    </TTGlyph>
    <TTGlyph name="I" xMin="84" yMin="0" xMax="184" yMax="690">
      <contour>
        <pt x="184" y="0" on="1"/>
        <pt x="84" y="0" on="1"/>
        <pt x="84" y="690" on="1"/>
        <pt x="184" y="690" on="1"/>
      </contour>
    </TTGlyph>
    <TTGlyph name="IJ" xMin="84" yMin="-9" xMax="530" yMax="690">
      <contour>
        <pt x="184" y="0" on="1"/>
        <pt x="84" y="0" on="1"/>
        <pt x="84" y="690" on="1"/>
        <pt x="184" y="690" on="1"/>
      </contour>
      <contour>
        <pt x="530" y="690" on="1"/>
        <pt x="530" y="151" on="1"/>
        <pt x="530" y="73" on="0"/>
        <pt x="460" y="-10" on="0"/>
        <pt x="394" y="-9" on="1"/>
        <pt x="333" y="-9" on="0"/>
        <pt x="296" y="4" on="1"/>
        <pt x="307" y="76" on="1"/>
        <pt x="355" y="76" on="1"/>
        <pt x="430" y="76" on="0"/>
        <pt x="430" y="146" on="1"/>
        <pt x="430" y="690" on="1"/>
      </contour>
    </TTGlyph>
    <TTGlyph name="Iacute" xMin="65" yMin="0" xMax="297" yMax="917">
      <contour>
        <pt x="297" y="843" on="1"/>
        <pt x="98" y="726" on="1"/>
        <pt x="65" y="771" on="1"/>
        <pt x="242" y="917" on="1"/>
      </contour>
      <contour>
        <pt x="184" y="0" on="1"/>
        <pt x="84" y="0" on="1"/>
        <pt x="84" y="690" on="1"/>
        <pt x="184" y="690" on="1"/>
      </contour>
    </TTGlyph>
    <TTGlyph name="Icircumflex" xMin="-32" yMin="0" xMax="301" yMax="899">
      <contour>
        <pt x="301" y="770" on="1"/>
        <pt x="267" y="729" on="1"/>
        <pt x="138" y="825" on="1"/>
        <pt x="130" y="825" on="1"/>
        <pt x="0" y="729" on="1"/>
        <pt x="-32" y="770" on="1"/>
        <pt x="99" y="899" on="1"/>
        <pt x="169" y="899" on="1"/>
      </contour>
      <contour>
        <pt x="184" y="0" on="1"/>
        <pt x="84" y="0" on="1"/>
        <pt x="84" y="690" on="1"/>
        <pt x="184" y="690" on="1"/>
      </contour>
    </TTGlyph>
    <TTGlyph name="Idieresis" xMin="3" yMin="0" xMax="265" yMax="872">
      <contour>
        <pt x="29" y="872" on="1"/>
        <pt x="62" y="872" on="1"/>
        <pt x="87" y="872" on="0"/>
        <pt x="87" y="846" on="1"/>
        <pt x="87" y="792" on="1"/>
        <pt x="87" y="765" on="0"/>
        <pt x="62" y="765" on="1"/>
        <pt x="29" y="765" on="1"/>
        <pt x="3" y="765" on="0"/>
        <pt x="3" y="792" on="1"/>
        <pt x="3" y="846" on="1"/>
        <pt x="3" y="872" on="0"/>
      </contour>
      <contour>
        <pt x="207" y="872" on="1"/>
        <pt x="239" y="872" on="1"/>
        <pt x="265" y="872" on="0"/>
        <pt x="265" y="846" on="1"/>
        <pt x="265" y="792" on="1"/>
        <pt x="265" y="765" on="0"/>
        <pt x="239" y="765" on="1"/>
        <pt x="207" y="765" on="1"/>
        <pt x="180" y="765" on="0"/>
        <pt x="180" y="792" on="1"/>
        <pt x="180" y="846" on="1"/>
        <pt x="180" y="872" on="0"/>
      </contour>
      <contour>
        <pt x="184" y="0" on="1"/>
        <pt x="84" y="0" on="1"/>
        <pt x="84" y="690" on="1"/>
        <pt x="184" y="690" on="1"/>
      </contour>
    </TTGlyph>
    <TTGlyph name="Idotaccent" xMin="84" yMin="0" xMax="184" yMax="869">
      <contour>
        <pt x="119" y="869" on="1"/>
        <pt x="150" y="869" on="1"/>
        <pt x="178" y="869" on="0"/>
        <pt x="178" y="840" on="1"/>
        <pt x="178" y="784" on="1"/>
        <pt x="178" y="756" on="0"/>
        <pt x="150" y="756" on="1"/>
        <pt x="119" y="756" on="1"/>
        <pt x="90" y="756" on="0"/>
        <pt x="90" y="784" on="1"/>
        <pt x="90" y="840" on="1"/>
        <pt x="90" y="869" on="0"/>
      </contour>
      <contour>
        <pt x="184" y="0" on="1"/>
        <pt x="84" y="0" on="1"/>
        <pt x="84" y="690" on="1"/>
        <pt x="184" y="690" on="1"/>
      </contour>
    </TTGlyph>
    <TTGlyph name="Igrave" xMin="-46" yMin="0" xMax="186" yMax="917">
      <contour>
        <pt x="186" y="771" on="1"/>
        <pt x="154" y="726" on="1"/>
        <pt x="-46" y="843" on="1"/>
        <pt x="9" y="917" on="1"/>
      </contour>
      <contour>
        <pt x="184" y="0" on="1"/>
        <pt x="84" y="0" on="1"/>
        <pt x="84" y="690" on="1"/>
        <pt x="184" y="690" on="1"/>
      </contour>
    </TTGlyph>
    <TTGlyph name="Imacron" xMin="-7" yMin="0" xMax="275" yMax="853">
      <contour>
        <pt x="275" y="782" on="1"/>
        <pt x="-7" y="782" on="1"/>
        <pt x="-7" y="853" on="1"/>
        <pt x="275" y="853" on="1"/>
      </contour>
      <contour>
        <pt x="184" y="0" on="1"/>
        <pt x="84" y="0" on="1"/>
        <pt x="84" y="690" on="1"/>
        <pt x="184" y="690" on="1"/>
      </contour>
    </TTGlyph>
    <TTGlyph name="Iogonek" xMin="27" yMin="-212" xMax="188" yMax="690">
      <contour>
        <pt x="176" y="-153" on="1"/>
        <pt x="188" y="-193" on="1"/>
        <pt x="150" y="-208" on="0"/>
        <pt x="89" y="-216" on="0"/>
        <pt x="52" y="-202" on="0"/>
        <pt x="27" y="-175" on="0"/>
        <pt x="28" y="-137" on="0"/>
        <pt x="34" y="-116" on="1"/>
        <pt x="54" y="-57" on="0"/>
        <pt x="128" y="0" on="1"/>
        <pt x="84" y="0" on="1"/>
        <pt x="84" y="690" on="1"/>
        <pt x="184" y="690" on="1"/>
        <pt x="184" y="0" on="1"/>
        <pt x="172" y="0" on="1"/>
        <pt x="120" y="-61" on="0"/>
        <pt x="101" y="-111" on="1"/>
        <pt x="86" y="-145" on="0"/>
        <pt x="131" y="-168" on="0"/>
      </contour>
    </TTGlyph>
    <TTGlyph name="J" xMin="28" yMin="-9" xMax="262" yMax="690">
      <contour>
        <pt x="262" y="690" on="1"/>
        <pt x="262" y="151" on="1"/>
        <pt x="262" y="72" on="0"/>
        <pt x="192" y="-10" on="0"/>
        <pt x="126" y="-9" on="1"/>
        <pt x="67" y="-9" on="0"/>
        <pt x="28" y="4" on="1"/>
        <pt x="39" y="76" on="1"/>
        <pt x="88" y="76" on="1"/>
        <pt x="162" y="76" on="0"/>
        <pt x="162" y="146" on="1"/>
        <pt x="162" y="690" on="1"/>
      </contour>
    </TTGlyph>
    <TTGlyph name="K" xMin="84" yMin="0" xMax="580" yMax="690">
      <contour>
        <pt x="255" y="319" on="1"/>
        <pt x="177" y="319" on="1"/>
        <pt x="184" y="277" on="0"/>
        <pt x="184" y="248" on="1"/>
        <pt x="184" y="0" on="1"/>
        <pt x="84" y="0" on="1"/>
        <pt x="84" y="690" on="1"/>
        <pt x="184" y="690" on="1"/>
        <pt x="184" y="478" on="1"/>
        <pt x="184" y="435" on="0"/>
        <pt x="177" y="400" on="1"/>
        <pt x="255" y="400" on="1"/>
        <pt x="458" y="690" on="1"/>
        <pt x="567" y="690" on="1"/>
        <pt x="372" y="408" on="1"/>
        <pt x="356" y="385" on="0"/>
        <pt x="330" y="360" on="1"/>
        <pt x="330" y="357" on="1"/>
        <pt x="358" y="333" on="0"/>
        <pt x="378" y="305" on="1"/>
        <pt x="580" y="0" on="1"/>
        <pt x="469" y="0" on="1"/>
      </contour>
    </TTGlyph>
    <TTGlyph name="Kcommaaccent" xMin="84" yMin="-277" xMax="580" yMax="690">
      <contour>
        <pt x="580" y="0" on="1"/>
        <pt x="469" y="0" on="1"/>
        <pt x="255" y="319" on="1"/>
        <pt x="177" y="319" on="1"/>
        <pt x="184" y="277" on="0"/>
        <pt x="184" y="248" on="1"/>
        <pt x="184" y="0" on="1"/>
        <pt x="84" y="0" on="1"/>
        <pt x="84" y="690" on="1"/>
        <pt x="184" y="690" on="1"/>
        <pt x="184" y="478" on="1"/>
        <pt x="184" y="435" on="0"/>
        <pt x="177" y="400" on="1"/>
        <pt x="255" y="400" on="1"/>
        <pt x="458" y="690" on="1"/>
        <pt x="567" y="690" on="1"/>
        <pt x="372" y="408" on="1"/>
        <pt x="356" y="385" on="0"/>
        <pt x="330" y="360" on="1"/>
        <pt x="330" y="357" on="1"/>
        <pt x="358" y="333" on="0"/>
        <pt x="378" y="305" on="1"/>
      </contour>
      <contour>
        <pt x="304" y="-58" on="1"/>
        <pt x="330" y="-58" on="1"/>
        <pt x="348" y="-58" on="0"/>
        <pt x="361" y="-71" on="0"/>
        <pt x="361" y="-88" on="1"/>
        <pt x="361" y="-142" on="1"/>
        <pt x="360" y="-217" on="0"/>
        <pt x="327" y="-277" on="1"/>
        <pt x="285" y="-266" on="1"/>
        <pt x="295" y="-216" on="0"/>
        <pt x="295" y="-163" on="1"/>
        <pt x="270" y="-163" on="0"/>
        <pt x="270" y="-137" on="1"/>
        <pt x="270" y="-88" on="1"/>
        <pt x="271" y="-71" on="0"/>
        <pt x="287" y="-58" on="0"/>
      </contour>
    </TTGlyph>
    <TTGlyph name="L" xMin="82" yMin="-2" xMax="495" yMax="690">
      <contour>
        <pt x="182" y="690" on="1"/>
        <pt x="182" y="148" on="1"/>
        <pt x="182" y="113" on="0"/>
        <pt x="210" y="84" on="0"/>
        <pt x="245" y="84" on="1"/>
        <pt x="490" y="84" on="1"/>
        <pt x="495" y="7" on="1"/>
        <pt x="398" y="-2" on="0"/>
        <pt x="229" y="-2" on="1"/>
        <pt x="82" y="-2" on="0"/>
        <pt x="82" y="134" on="1"/>
        <pt x="82" y="690" on="1"/>
      </contour>
    </TTGlyph>
    <TTGlyph name="Lacute" xMin="65" yMin="-2" xMax="495" yMax="917">
      <contour>
        <pt x="296" y="843" on="1"/>
        <pt x="97" y="726" on="1"/>
        <pt x="65" y="771" on="1"/>
        <pt x="242" y="917" on="1"/>
      </contour>
      <contour>
        <pt x="182" y="690" on="1"/>
        <pt x="182" y="148" on="1"/>
        <pt x="182" y="113" on="0"/>
        <pt x="210" y="84" on="0"/>
        <pt x="245" y="84" on="1"/>
        <pt x="490" y="84" on="1"/>
        <pt x="495" y="7" on="1"/>
        <pt x="398" y="-2" on="0"/>
        <pt x="229" y="-2" on="1"/>
        <pt x="82" y="-2" on="0"/>
        <pt x="82" y="134" on="1"/>
        <pt x="82" y="690" on="1"/>
      </contour>
    </TTGlyph>
    <TTGlyph name="Lcaron" xMin="82" yMin="-2" xMax="495" yMax="691">
      <contour>
        <pt x="326" y="691" on="1"/>
        <pt x="352" y="691" on="1"/>
        <pt x="370" y="691" on="0"/>
        <pt x="384" y="678" on="0"/>
        <pt x="384" y="661" on="1"/>
        <pt x="384" y="607" on="1"/>
        <pt x="383" y="534" on="0"/>
        <pt x="349" y="472" on="1"/>
        <pt x="307" y="483" on="1"/>
        <pt x="317" y="532" on="0"/>
        <pt x="317" y="586" on="1"/>
        <pt x="306" y="586" on="0"/>
        <pt x="292" y="600" on="0"/>
        <pt x="293" y="612" on="1"/>
        <pt x="293" y="661" on="1"/>
        <pt x="294" y="691" on="0"/>
      </contour>
      <contour>
        <pt x="182" y="690" on="1"/>
        <pt x="182" y="148" on="1"/>
        <pt x="182" y="113" on="0"/>
        <pt x="210" y="84" on="0"/>
        <pt x="245" y="84" on="1"/>
        <pt x="490" y="84" on="1"/>
        <pt x="495" y="7" on="1"/>
        <pt x="398" y="-2" on="0"/>
        <pt x="229" y="-2" on="1"/>
        <pt x="82" y="-2" on="0"/>
        <pt x="82" y="134" on="1"/>
        <pt x="82" y="690" on="1"/>
      </contour>
    </TTGlyph>
    <TTGlyph name="Lcommaaccent" xMin="82" yMin="-278" xMax="495" yMax="690">
      <contour>
        <pt x="182" y="690" on="1"/>
        <pt x="182" y="148" on="1"/>
        <pt x="182" y="113" on="0"/>
        <pt x="210" y="84" on="0"/>
        <pt x="245" y="84" on="1"/>
        <pt x="490" y="84" on="1"/>
        <pt x="495" y="7" on="1"/>
        <pt x="398" y="-2" on="0"/>
        <pt x="229" y="-2" on="1"/>
        <pt x="82" y="-2" on="0"/>
        <pt x="82" y="134" on="1"/>
        <pt x="82" y="690" on="1"/>
      </contour>
      <contour>
        <pt x="283" y="-59" on="1"/>
        <pt x="308" y="-59" on="1"/>
        <pt x="326" y="-59" on="0"/>
        <pt x="340" y="-72" on="0"/>
        <pt x="340" y="-89" on="1"/>
        <pt x="340" y="-143" on="1"/>
        <pt x="339" y="-216" on="0"/>
        <pt x="305" y="-278" on="1"/>
        <pt x="263" y="-267" on="1"/>
        <pt x="273" y="-218" on="0"/>
        <pt x="273" y="-164" on="1"/>
        <pt x="249" y="-164" on="0"/>
        <pt x="249" y="-138" on="1"/>
        <pt x="249" y="-89" on="1"/>
        <pt x="250" y="-59" on="0"/>
      </contour>
    </TTGlyph>
    <TTGlyph name="Ldot" xMin="82" yMin="-2" xMax="495" yMax="690">
      <contour>
        <pt x="182" y="690" on="1"/>
        <pt x="182" y="148" on="1"/>
        <pt x="182" y="113" on="0"/>
        <pt x="210" y="84" on="0"/>
        <pt x="245" y="84" on="1"/>
        <pt x="490" y="84" on="1"/>
        <pt x="495" y="7" on="1"/>
        <pt x="398" y="-2" on="0"/>
        <pt x="229" y="-2" on="1"/>
        <pt x="82" y="-2" on="0"/>
        <pt x="82" y="134" on="1"/>
        <pt x="82" y="690" on="1"/>
      </contour>
      <contour>
        <pt x="409" y="340" on="1"/>
        <pt x="378" y="340" on="1"/>
        <pt x="349" y="340" on="0"/>
        <pt x="349" y="368" on="1"/>
        <pt x="349" y="424" on="1"/>
        <pt x="349" y="453" on="0"/>
        <pt x="378" y="453" on="1"/>
        <pt x="409" y="453" on="1"/>
        <pt x="437" y="453" on="0"/>
        <pt x="437" y="424" on="1"/>
        <pt x="437" y="368" on="1"/>
        <pt x="437" y="340" on="0"/>
      </contour>
    </TTGlyph>
    <TTGlyph name="Lslash" xMin="19" yMin="-2" xMax="501" yMax="690">
      <contour>
        <pt x="497" y="84" on="1"/>
        <pt x="501" y="7" on="1"/>
        <pt x="404" y="-2" on="0"/>
        <pt x="236" y="-2" on="1"/>
        <pt x="88" y="-2" on="0"/>
        <pt x="88" y="134" on="1"/>
        <pt x="88" y="331" on="1"/>
        <pt x="19" y="302" on="1"/>
        <pt x="19" y="363" on="1"/>
        <pt x="88" y="392" on="1"/>
        <pt x="88" y="690" on="1"/>
        <pt x="188" y="690" on="1"/>
        <pt x="188" y="433" on="1"/>
        <pt x="302" y="480" on="1"/>
        <pt x="302" y="419" on="1"/>
        <pt x="188" y="372" on="1"/>
        <pt x="188" y="148" on="1"/>
        <pt x="188" y="113" on="0"/>
        <pt x="217" y="84" on="0"/>
        <pt x="252" y="84" on="1"/>
      </contour>
    </TTGlyph>
    <TTGlyph name="M" xMin="71" yMin="0" xMax="811" yMax="690">
      <contour>
        <pt x="633" y="690" on="1"/>
        <pt x="742" y="690" on="1"/>
        <pt x="781" y="690" on="0"/>
        <pt x="783" y="649" on="1"/>
        <pt x="811" y="0" on="1"/>
        <pt x="711" y="0" on="1"/>
        <pt x="687" y="607" on="1"/>
        <pt x="667" y="607" on="1"/>
        <pt x="527" y="116" on="1"/>
        <pt x="518" y="82" on="0"/>
        <pt x="484" y="82" on="1"/>
        <pt x="397" y="82" on="1"/>
        <pt x="362" y="82" on="0"/>
        <pt x="353" y="116" on="1"/>
        <pt x="212" y="607" on="1"/>
        <pt x="193" y="607" on="1"/>
        <pt x="170" y="0" on="1"/>
        <pt x="71" y="0" on="1"/>
        <pt x="97" y="649" on="1"/>
        <pt x="99" y="690" on="0"/>
        <pt x="138" y="690" on="1"/>
        <pt x="249" y="690" on="1"/>
        <pt x="280" y="690" on="0"/>
        <pt x="291" y="656" on="1"/>
        <pt x="408" y="252" on="1"/>
        <pt x="418" y="216" on="0"/>
        <pt x="431" y="159" on="1"/>
        <pt x="449" y="159" on="1"/>
        <pt x="461" y="212" on="0"/>
        <pt x="473" y="253" on="1"/>
        <pt x="589" y="656" on="1"/>
        <pt x="600" y="690" on="0"/>
      </contour>
    </TTGlyph>
    <TTGlyph name="N" xMin="84" yMin="0" xMax="624" yMax="690">
      <contour>
        <pt x="624" y="690" on="1"/>
        <pt x="624" y="39" on="1"/>
        <pt x="624" y="0" on="0"/>
        <pt x="587" y="0" on="1"/>
        <pt x="492" y="0" on="1"/>
        <pt x="462" y="0" on="0"/>
        <pt x="449" y="31" on="1"/>
        <pt x="234" y="501" on="1"/>
        <pt x="198" y="579" on="0"/>
        <pt x="193" y="597" on="1"/>
        <pt x="179" y="597" on="1"/>
        <pt x="184" y="557" on="0"/>
        <pt x="184" y="501" on="1"/>
        <pt x="184" y="0" on="1"/>
        <pt x="84" y="0" on="1"/>
        <pt x="84" y="651" on="1"/>
        <pt x="84" y="690" on="0"/>
        <pt x="122" y="690" on="1"/>
        <pt x="214" y="690" on="1"/>
        <pt x="243" y="690" on="0"/>
        <pt x="258" y="659" on="1"/>
        <pt x="467" y="201" on="1"/>
        <pt x="471" y="192" on="0"/>
        <pt x="491" y="151" on="0"/>
        <pt x="508" y="114" on="0"/>
        <pt x="515" y="98" on="1"/>
        <pt x="530" y="98" on="1"/>
        <pt x="525" y="158" on="0"/>
        <pt x="525" y="205" on="1"/>
        <pt x="525" y="690" on="1"/>
      </contour>
    </TTGlyph>
    <TTGlyph name="Nacute" xMin="84" yMin="0" xMax="624" yMax="917">
      <contour>
        <pt x="524" y="843" on="1"/>
        <pt x="325" y="726" on="1"/>
        <pt x="293" y="771" on="1"/>
        <pt x="469" y="917" on="1"/>
      </contour>
      <contour>
        <pt x="624" y="690" on="1"/>
        <pt x="624" y="39" on="1"/>
        <pt x="624" y="0" on="0"/>
        <pt x="587" y="0" on="1"/>
        <pt x="492" y="0" on="1"/>
        <pt x="462" y="0" on="0"/>
        <pt x="449" y="31" on="1"/>
        <pt x="234" y="501" on="1"/>
        <pt x="198" y="579" on="0"/>
        <pt x="193" y="597" on="1"/>
        <pt x="179" y="597" on="1"/>
        <pt x="184" y="557" on="0"/>
        <pt x="184" y="501" on="1"/>
        <pt x="184" y="0" on="1"/>
        <pt x="84" y="0" on="1"/>
        <pt x="84" y="651" on="1"/>
        <pt x="84" y="690" on="0"/>
        <pt x="122" y="690" on="1"/>
        <pt x="214" y="690" on="1"/>
        <pt x="243" y="690" on="0"/>
        <pt x="258" y="659" on="1"/>
        <pt x="467" y="201" on="1"/>
        <pt x="471" y="192" on="0"/>
        <pt x="491" y="151" on="0"/>
        <pt x="508" y="114" on="0"/>
        <pt x="515" y="98" on="1"/>
        <pt x="530" y="98" on="1"/>
        <pt x="525" y="158" on="0"/>
        <pt x="525" y="205" on="1"/>
        <pt x="525" y="690" on="1"/>
      </contour>
    </TTGlyph>
    <TTGlyph name="Ncaron" xMin="84" yMin="0" xMax="624" yMax="913">
      <contour>
        <pt x="529" y="872" on="1"/>
        <pt x="384" y="743" on="1"/>
        <pt x="340" y="743" on="1"/>
        <pt x="196" y="872" on="1"/>
        <pt x="228" y="913" on="1"/>
        <pt x="358" y="829" on="1"/>
        <pt x="366" y="829" on="1"/>
        <pt x="495" y="913" on="1"/>
      </contour>
      <contour>
        <pt x="624" y="690" on="1"/>
        <pt x="624" y="39" on="1"/>
        <pt x="624" y="0" on="0"/>
        <pt x="587" y="0" on="1"/>
        <pt x="492" y="0" on="1"/>
        <pt x="462" y="0" on="0"/>
        <pt x="449" y="31" on="1"/>
        <pt x="234" y="501" on="1"/>
        <pt x="198" y="579" on="0"/>
        <pt x="193" y="597" on="1"/>
        <pt x="179" y="597" on="1"/>
        <pt x="184" y="557" on="0"/>
        <pt x="184" y="501" on="1"/>
        <pt x="184" y="0" on="1"/>
        <pt x="84" y="0" on="1"/>
        <pt x="84" y="651" on="1"/>
        <pt x="84" y="690" on="0"/>
        <pt x="122" y="690" on="1"/>
        <pt x="214" y="690" on="1"/>
        <pt x="243" y="690" on="0"/>
        <pt x="258" y="659" on="1"/>
        <pt x="467" y="201" on="1"/>
        <pt x="471" y="192" on="0"/>
        <pt x="491" y="151" on="0"/>
        <pt x="508" y="114" on="0"/>
        <pt x="515" y="98" on="1"/>
        <pt x="530" y="98" on="1"/>
        <pt x="525" y="158" on="0"/>
        <pt x="525" y="205" on="1"/>
        <pt x="525" y="690" on="1"/>
      </contour>
    </TTGlyph>
    <TTGlyph name="Ncommaaccent" xMin="84" yMin="-277" xMax="624" yMax="690">
      <contour>
        <pt x="624" y="690" on="1"/>
        <pt x="624" y="39" on="1"/>
        <pt x="624" y="0" on="0"/>
        <pt x="587" y="0" on="1"/>
        <pt x="492" y="0" on="1"/>
        <pt x="462" y="0" on="0"/>
        <pt x="449" y="31" on="1"/>
        <pt x="234" y="501" on="1"/>
        <pt x="198" y="579" on="0"/>
        <pt x="193" y="597" on="1"/>
        <pt x="179" y="597" on="1"/>
        <pt x="184" y="557" on="0"/>
        <pt x="184" y="501" on="1"/>
        <pt x="184" y="0" on="1"/>
        <pt x="84" y="0" on="1"/>
        <pt x="84" y="651" on="1"/>
        <pt x="84" y="690" on="0"/>
        <pt x="122" y="690" on="1"/>
        <pt x="214" y="690" on="1"/>
        <pt x="243" y="690" on="0"/>
        <pt x="258" y="659" on="1"/>
        <pt x="467" y="201" on="1"/>
        <pt x="471" y="192" on="0"/>
        <pt x="491" y="151" on="0"/>
        <pt x="508" y="114" on="0"/>
        <pt x="515" y="98" on="1"/>
        <pt x="530" y="98" on="1"/>
        <pt x="525" y="158" on="0"/>
        <pt x="525" y="205" on="1"/>
        <pt x="525" y="690" on="1"/>
      </contour>
      <contour>
        <pt x="329" y="-58" on="1"/>
        <pt x="355" y="-58" on="1"/>
        <pt x="373" y="-58" on="0"/>
        <pt x="386" y="-71" on="0"/>
        <pt x="386" y="-88" on="1"/>
        <pt x="386" y="-142" on="1"/>
        <pt x="385" y="-217" on="0"/>
        <pt x="352" y="-277" on="1"/>
        <pt x="310" y="-266" on="1"/>
        <pt x="320" y="-216" on="0"/>
        <pt x="320" y="-163" on="1"/>
        <pt x="295" y="-163" on="0"/>
        <pt x="295" y="-137" on="1"/>
        <pt x="295" y="-88" on="1"/>
        <pt x="296" y="-71" on="0"/>
        <pt x="312" y="-58" on="0"/>
      </contour>
    </TTGlyph>
    <TTGlyph name="Ntilde" xMin="84" yMin="0" xMax="624" yMax="883">
      <contour>
        <pt x="245" y="763" on="1"/>
        <pt x="201" y="763" on="1"/>
        <pt x="194" y="823" on="0"/>
        <pt x="240" y="886" on="0"/>
        <pt x="279" y="883" on="1"/>
        <pt x="312" y="880" on="0"/>
        <pt x="404" y="832" on="0"/>
        <pt x="431" y="829" on="1"/>
        <pt x="457" y="826" on="0"/>
        <pt x="477" y="849" on="0"/>
        <pt x="477" y="878" on="1"/>
        <pt x="521" y="878" on="1"/>
        <pt x="528" y="820" on="0"/>
        <pt x="484" y="757" on="0"/>
        <pt x="443" y="760" on="1"/>
        <pt x="406" y="763" on="0"/>
        <pt x="311" y="812" on="0"/>
        <pt x="291" y="815" on="1"/>
        <pt x="264" y="818" on="0"/>
        <pt x="245" y="794" on="0"/>
      </contour>
      <contour>
        <pt x="624" y="690" on="1"/>
        <pt x="624" y="39" on="1"/>
        <pt x="624" y="0" on="0"/>
        <pt x="587" y="0" on="1"/>
        <pt x="492" y="0" on="1"/>
        <pt x="462" y="0" on="0"/>
        <pt x="449" y="31" on="1"/>
        <pt x="234" y="501" on="1"/>
        <pt x="198" y="579" on="0"/>
        <pt x="193" y="597" on="1"/>
        <pt x="179" y="597" on="1"/>
        <pt x="184" y="557" on="0"/>
        <pt x="184" y="501" on="1"/>
        <pt x="184" y="0" on="1"/>
        <pt x="84" y="0" on="1"/>
        <pt x="84" y="651" on="1"/>
        <pt x="84" y="690" on="0"/>
        <pt x="122" y="690" on="1"/>
        <pt x="214" y="690" on="1"/>
        <pt x="243" y="690" on="0"/>
        <pt x="258" y="659" on="1"/>
        <pt x="467" y="201" on="1"/>
        <pt x="471" y="192" on="0"/>
        <pt x="491" y="151" on="0"/>
        <pt x="508" y="114" on="0"/>
        <pt x="515" y="98" on="1"/>
        <pt x="530" y="98" on="1"/>
        <pt x="525" y="158" on="0"/>
        <pt x="525" y="205" on="1"/>
        <pt x="525" y="690" on="1"/>
      </contour>
    </TTGlyph>
    <TTGlyph name="O" xMin="59" yMin="-13" xMax="610" yMax="703">
      <contour>
        <pt x="334" y="703" on="1"/>
        <pt x="488" y="703" on="0"/>
        <pt x="610" y="547" on="0"/>
        <pt x="610" y="143" on="0"/>
        <pt x="488" y="-13" on="0"/>
        <pt x="334" y="-13" on="1"/>
        <pt x="181" y="-13" on="0"/>
        <pt x="59" y="143" on="0"/>
        <pt x="59" y="547" on="0"/>
        <pt x="181" y="703" on="0"/>
      </contour>
      <contour>
        <pt x="431" y="614" on="0"/>
        <pt x="237" y="614" on="0"/>
        <pt x="164" y="498" on="0"/>
        <pt x="164" y="192" on="0"/>
        <pt x="237" y="76" on="0"/>
        <pt x="431" y="76" on="0"/>
        <pt x="505" y="192" on="0"/>
        <pt x="505" y="498" on="0"/>
      </contour>
    </TTGlyph>
    <TTGlyph name="OE" xMin="59" yMin="-13" xMax="868" yMax="703">
      <contour>
        <pt x="864" y="83" on="1"/>
        <pt x="868" y="6" on="1"/>
        <pt x="776" y="-2" on="0"/>
        <pt x="567" y="-2" on="1"/>
        <pt x="528" y="-2" on="0"/>
        <pt x="498" y="20" on="1"/>
        <pt x="426" y="-13" on="0"/>
        <pt x="334" y="-13" on="1"/>
        <pt x="181" y="-13" on="0"/>
        <pt x="59" y="143" on="0"/>
        <pt x="59" y="547" on="0"/>
        <pt x="181" y="703" on="0"/>
        <pt x="334" y="703" on="1"/>
        <pt x="425" y="703" on="0"/>
        <pt x="504" y="672" on="1"/>
        <pt x="535" y="692" on="0"/>
        <pt x="576" y="692" on="1"/>
        <pt x="778" y="692" on="0"/>
        <pt x="868" y="684" on="1"/>
        <pt x="864" y="606" on="1"/>
        <pt x="610" y="606" on="1"/>
        <pt x="575" y="606" on="0"/>
        <pt x="546" y="577" on="0"/>
        <pt x="546" y="542" on="1"/>
        <pt x="546" y="404" on="1"/>
        <pt x="825" y="404" on="1"/>
        <pt x="825" y="322" on="1"/>
        <pt x="546" y="322" on="1"/>
        <pt x="546" y="147" on="1"/>
        <pt x="546" y="112" on="0"/>
        <pt x="575" y="83" on="0"/>
        <pt x="610" y="83" on="1"/>
      </contour>
      <contour>
        <pt x="445" y="134" on="1"/>
        <pt x="445" y="556" on="1"/>
        <pt x="445" y="576" on="0"/>
        <pt x="452" y="600" on="1"/>
        <pt x="393" y="614" on="0"/>
        <pt x="334" y="614" on="1"/>
        <pt x="237" y="614" on="0"/>
        <pt x="164" y="499" on="0"/>
        <pt x="164" y="345" on="1"/>
        <pt x="164" y="192" on="0"/>
        <pt x="237" y="76" on="0"/>
        <pt x="334" y="76" on="1"/>
        <pt x="400" y="76" on="0"/>
        <pt x="451" y="90" on="1"/>
        <pt x="445" y="111" on="0"/>
      </contour>
    </TTGlyph>
    <TTGlyph name="Oacute" xMin="59" yMin="-13" xMax="610" yMax="917">
      <contour>
        <pt x="496" y="843" on="1"/>
        <pt x="297" y="726" on="1"/>
        <pt x="265" y="771" on="1"/>
        <pt x="442" y="917" on="1"/>
      </contour>
      <contour>
        <pt x="334" y="703" on="1"/>
        <pt x="488" y="703" on="0"/>
        <pt x="610" y="547" on="0"/>
        <pt x="610" y="143" on="0"/>
        <pt x="488" y="-13" on="0"/>
        <pt x="334" y="-13" on="1"/>
        <pt x="181" y="-13" on="0"/>
        <pt x="59" y="143" on="0"/>
        <pt x="59" y="547" on="0"/>
        <pt x="181" y="703" on="0"/>
      </contour>
      <contour>
        <pt x="431" y="614" on="0"/>
        <pt x="237" y="614" on="0"/>
        <pt x="164" y="498" on="0"/>
        <pt x="164" y="192" on="0"/>
        <pt x="237" y="76" on="0"/>
        <pt x="431" y="76" on="0"/>
        <pt x="505" y="192" on="0"/>
        <pt x="505" y="498" on="0"/>
      </contour>
    </TTGlyph>
    <TTGlyph name="Ocircumflex" xMin="59" yMin="-13" xMax="610" yMax="899">
      <contour>
        <pt x="500" y="770" on="1"/>
        <pt x="467" y="729" on="1"/>
        <pt x="337" y="825" on="1"/>
        <pt x="329" y="825" on="1"/>
        <pt x="200" y="729" on="1"/>
        <pt x="168" y="770" on="1"/>
        <pt x="298" y="899" on="1"/>
        <pt x="369" y="899" on="1"/>
      </contour>
      <contour>
        <pt x="334" y="703" on="1"/>
        <pt x="488" y="703" on="0"/>
        <pt x="610" y="547" on="0"/>
        <pt x="610" y="143" on="0"/>
        <pt x="488" y="-13" on="0"/>
        <pt x="334" y="-13" on="1"/>
        <pt x="181" y="-13" on="0"/>
        <pt x="59" y="143" on="0"/>
        <pt x="59" y="547" on="0"/>
        <pt x="181" y="703" on="0"/>
      </contour>
      <contour>
        <pt x="431" y="614" on="0"/>
        <pt x="237" y="614" on="0"/>
        <pt x="164" y="498" on="0"/>
        <pt x="164" y="192" on="0"/>
        <pt x="237" y="76" on="0"/>
        <pt x="431" y="76" on="0"/>
        <pt x="505" y="192" on="0"/>
        <pt x="505" y="498" on="0"/>
      </contour>
    </TTGlyph>
    <TTGlyph name="Odieresis" xMin="59" yMin="-13" xMax="610" yMax="872">
      <contour>
        <pt x="228" y="872" on="1"/>
        <pt x="261" y="872" on="1"/>
        <pt x="287" y="872" on="0"/>
        <pt x="287" y="846" on="1"/>
        <pt x="287" y="792" on="1"/>
        <pt x="287" y="765" on="0"/>
        <pt x="261" y="765" on="1"/>
        <pt x="228" y="765" on="1"/>
        <pt x="203" y="765" on="0"/>
        <pt x="203" y="792" on="1"/>
        <pt x="203" y="846" on="1"/>
        <pt x="203" y="872" on="0"/>
      </contour>
      <contour>
        <pt x="406" y="872" on="1"/>
        <pt x="438" y="872" on="1"/>
        <pt x="465" y="872" on="0"/>
        <pt x="465" y="846" on="1"/>
        <pt x="465" y="792" on="1"/>
        <pt x="465" y="765" on="0"/>
        <pt x="438" y="765" on="1"/>
        <pt x="406" y="765" on="1"/>
        <pt x="380" y="765" on="0"/>
        <pt x="380" y="792" on="1"/>
        <pt x="380" y="846" on="1"/>
        <pt x="380" y="872" on="0"/>
      </contour>
      <contour>
        <pt x="334" y="703" on="1"/>
        <pt x="488" y="703" on="0"/>
        <pt x="610" y="547" on="0"/>
        <pt x="610" y="143" on="0"/>
        <pt x="488" y="-13" on="0"/>
        <pt x="334" y="-13" on="1"/>
        <pt x="181" y="-13" on="0"/>
        <pt x="59" y="143" on="0"/>
        <pt x="59" y="547" on="0"/>
        <pt x="181" y="703" on="0"/>
      </contour>
      <contour>
        <pt x="431" y="614" on="0"/>
        <pt x="237" y="614" on="0"/>
        <pt x="164" y="498" on="0"/>
        <pt x="164" y="192" on="0"/>
        <pt x="237" y="76" on="0"/>
        <pt x="431" y="76" on="0"/>
        <pt x="505" y="192" on="0"/>
        <pt x="505" y="498" on="0"/>
      </contour>
    </TTGlyph>
    <TTGlyph name="Ograve" xMin="59" yMin="-13" xMax="610" yMax="917">
      <contour>
        <pt x="385" y="771" on="1"/>
        <pt x="353" y="726" on="1"/>
        <pt x="154" y="843" on="1"/>
        <pt x="209" y="917" on="1"/>
      </contour>
      <contour>
        <pt x="334" y="703" on="1"/>
        <pt x="488" y="703" on="0"/>
        <pt x="610" y="547" on="0"/>
        <pt x="610" y="143" on="0"/>
        <pt x="488" y="-13" on="0"/>
        <pt x="334" y="-13" on="1"/>
        <pt x="181" y="-13" on="0"/>
        <pt x="59" y="143" on="0"/>
        <pt x="59" y="547" on="0"/>
        <pt x="181" y="703" on="0"/>
      </contour>
      <contour>
        <pt x="431" y="614" on="0"/>
        <pt x="237" y="614" on="0"/>
        <pt x="164" y="498" on="0"/>
        <pt x="164" y="192" on="0"/>
        <pt x="237" y="76" on="0"/>
        <pt x="431" y="76" on="0"/>
        <pt x="505" y="192" on="0"/>
        <pt x="505" y="498" on="0"/>
      </contour>
    </TTGlyph>
    <TTGlyph name="Ohungarumlaut" xMin="59" yMin="-13" xMax="610" yMax="929">
      <contour>
        <pt x="375" y="881" on="1"/>
        <pt x="237" y="720" on="1"/>
        <pt x="195" y="752" on="1"/>
        <pt x="305" y="929" on="1"/>
      </contour>
      <contour>
        <pt x="544" y="881" on="1"/>
        <pt x="406" y="720" on="1"/>
        <pt x="365" y="752" on="1"/>
        <pt x="474" y="929" on="1"/>
      </contour>
      <contour>
        <pt x="334" y="703" on="1"/>
        <pt x="488" y="703" on="0"/>
        <pt x="610" y="547" on="0"/>
        <pt x="610" y="143" on="0"/>
        <pt x="488" y="-13" on="0"/>
        <pt x="334" y="-13" on="1"/>
        <pt x="181" y="-13" on="0"/>
        <pt x="59" y="143" on="0"/>
        <pt x="59" y="547" on="0"/>
        <pt x="181" y="703" on="0"/>
      </contour>
      <contour>
        <pt x="431" y="614" on="0"/>
        <pt x="237" y="614" on="0"/>
        <pt x="164" y="498" on="0"/>
        <pt x="164" y="192" on="0"/>
        <pt x="237" y="76" on="0"/>
        <pt x="431" y="76" on="0"/>
        <pt x="505" y="192" on="0"/>
        <pt x="505" y="498" on="0"/>
      </contour>
    </TTGlyph>
    <TTGlyph name="Omacron" xMin="59" yMin="-13" xMax="610" yMax="853">
      <contour>
        <pt x="475" y="782" on="1"/>
        <pt x="192" y="782" on="1"/>
        <pt x="192" y="853" on="1"/>
        <pt x="475" y="853" on="1"/>
      </contour>
      <contour>
        <pt x="334" y="703" on="1"/>
        <pt x="488" y="703" on="0"/>
        <pt x="610" y="547" on="0"/>
        <pt x="610" y="143" on="0"/>
        <pt x="488" y="-13" on="0"/>
        <pt x="334" y="-13" on="1"/>
        <pt x="181" y="-13" on="0"/>
        <pt x="59" y="143" on="0"/>
        <pt x="59" y="547" on="0"/>
        <pt x="181" y="703" on="0"/>
      </contour>
      <contour>
        <pt x="431" y="614" on="0"/>
        <pt x="237" y="614" on="0"/>
        <pt x="164" y="498" on="0"/>
        <pt x="164" y="192" on="0"/>
        <pt x="237" y="76" on="0"/>
        <pt x="431" y="76" on="0"/>
        <pt x="505" y="192" on="0"/>
        <pt x="505" y="498" on="0"/>
      </contour>
    </TTGlyph>
    <TTGlyph name="Omega" xMin="52" yMin="0" xMax="667" yMax="703">
      <contour>
        <pt x="52" y="88" on="1"/>
        <pt x="150" y="88" on="1"/>
        <pt x="185" y="88" on="0"/>
        <pt x="216" y="80" on="1"/>
        <pt x="139" y="137" on="0"/>
        <pt x="74" y="271" on="0"/>
        <pt x="75" y="375" on="1"/>
        <pt x="75" y="542" on="0"/>
        <pt x="209" y="703" on="0"/>
        <pt x="360" y="703" on="1"/>
        <pt x="510" y="703" on="0"/>
        <pt x="644" y="541" on="0"/>
        <pt x="644" y="374" on="1"/>
        <pt x="644" y="268" on="0"/>
        <pt x="579" y="137" on="0"/>
        <pt x="502" y="80" on="1"/>
        <pt x="534" y="88" on="0"/>
        <pt x="568" y="88" on="1"/>
        <pt x="667" y="88" on="1"/>
        <pt x="667" y="0" on="1"/>
        <pt x="411" y="0" on="1"/>
        <pt x="411" y="84" on="1"/>
        <pt x="483" y="135" on="0"/>
        <pt x="539" y="260" on="0"/>
        <pt x="540" y="362" on="1"/>
        <pt x="539" y="498" on="0"/>
        <pt x="456" y="615" on="0"/>
        <pt x="359" y="615" on="1"/>
        <pt x="260" y="615" on="0"/>
        <pt x="179" y="498" on="0"/>
        <pt x="179" y="360" on="1"/>
        <pt x="179" y="255" on="0"/>
        <pt x="236" y="138" on="0"/>
        <pt x="307" y="84" on="1"/>
        <pt x="307" y="0" on="1"/>
        <pt x="52" y="0" on="1"/>
      </contour>
    </TTGlyph>
    <TTGlyph name="Oslash" xMin="59" yMin="-59" xMax="610" yMax="751">
      <contour>
        <pt x="543" y="731" on="1"/>
        <pt x="511" y="662" on="1"/>
        <pt x="564" y="625" on="0"/>
        <pt x="610" y="474" on="0"/>
        <pt x="610" y="345" on="1"/>
        <pt x="610" y="143" on="0"/>
        <pt x="488" y="-13" on="0"/>
        <pt x="334" y="-13" on="1"/>
        <pt x="255" y="-13" on="0"/>
        <pt x="204" y="6" on="1"/>
        <pt x="173" y="-59" on="1"/>
        <pt x="123" y="-38" on="1"/>
        <pt x="155" y="31" on="1"/>
        <pt x="104" y="68" on="0"/>
        <pt x="59" y="218" on="0"/>
        <pt x="59" y="345" on="1"/>
        <pt x="59" y="547" on="0"/>
        <pt x="181" y="703" on="0"/>
        <pt x="334" y="703" on="1"/>
        <pt x="412" y="703" on="0"/>
        <pt x="462" y="686" on="1"/>
        <pt x="492" y="751" on="1"/>
      </contour>
      <contour>
        <pt x="202" y="132" on="1"/>
        <pt x="421" y="598" on="1"/>
        <pt x="388" y="614" on="0"/>
        <pt x="334" y="614" on="1"/>
        <pt x="237" y="614" on="0"/>
        <pt x="164" y="498" on="0"/>
        <pt x="164" y="345" on="1"/>
        <pt x="164" y="191" on="0"/>
      </contour>
      <contour>
        <pt x="464" y="562" on="1"/>
        <pt x="245" y="94" on="1"/>
        <pt x="280" y="76" on="0"/>
        <pt x="334" y="76" on="1"/>
        <pt x="431" y="76" on="0"/>
        <pt x="505" y="192" on="0"/>
        <pt x="505" y="345" on="1"/>
        <pt x="505" y="506" on="0"/>
      </contour>
    </TTGlyph>
    <TTGlyph name="Otilde" xMin="59" yMin="-13" xMax="610" yMax="883">
      <contour>
        <pt x="217" y="763" on="1"/>
        <pt x="173" y="763" on="1"/>
        <pt x="166" y="823" on="0"/>
        <pt x="212" y="886" on="0"/>
        <pt x="252" y="883" on="1"/>
        <pt x="284" y="880" on="0"/>
        <pt x="376" y="832" on="0"/>
        <pt x="430" y="826" on="0"/>
        <pt x="450" y="849" on="0"/>
        <pt x="450" y="878" on="1"/>
        <pt x="494" y="878" on="1"/>
        <pt x="501" y="820" on="0"/>
        <pt x="456" y="757" on="0"/>
        <pt x="415" y="760" on="1"/>
        <pt x="378" y="763" on="0"/>
        <pt x="283" y="812" on="0"/>
        <pt x="263" y="815" on="1"/>
        <pt x="236" y="818" on="0"/>
        <pt x="217" y="794" on="0"/>
      </contour>
      <contour>
        <pt x="334" y="703" on="1"/>
        <pt x="488" y="703" on="0"/>
        <pt x="610" y="547" on="0"/>
        <pt x="610" y="143" on="0"/>
        <pt x="488" y="-13" on="0"/>
        <pt x="334" y="-13" on="1"/>
        <pt x="181" y="-13" on="0"/>
        <pt x="59" y="143" on="0"/>
        <pt x="59" y="547" on="0"/>
        <pt x="181" y="703" on="0"/>
      </contour>
      <contour>
        <pt x="431" y="614" on="0"/>
        <pt x="237" y="614" on="0"/>
        <pt x="164" y="498" on="0"/>
        <pt x="164" y="192" on="0"/>
        <pt x="237" y="76" on="0"/>
        <pt x="431" y="76" on="0"/>
        <pt x="505" y="192" on="0"/>
        <pt x="505" y="498" on="0"/>
      </contour>
    </TTGlyph>
    <TTGlyph name="P" xMin="84" yMin="0" xMax="550" yMax="699">
      <contour>
        <pt x="84" y="0" on="1"/>
        <pt x="84" y="690" on="1"/>
        <pt x="169" y="699" on="0"/>
        <pt x="324" y="699" on="1"/>
        <pt x="453" y="699" on="0"/>
        <pt x="550" y="607" on="0"/>
        <pt x="550" y="481" on="1"/>
        <pt x="550" y="354" on="0"/>
        <pt x="457" y="262" on="0"/>
        <pt x="336" y="262" on="1"/>
        <pt x="261" y="262" on="0"/>
        <pt x="184" y="271" on="1"/>
        <pt x="184" y="0" on="1"/>
      </contour>
      <contour>
        <pt x="184" y="348" on="1"/>
        <pt x="322" y="348" on="1"/>
        <pt x="395" y="349" on="0"/>
        <pt x="449" y="403" on="0"/>
        <pt x="449" y="559" on="0"/>
        <pt x="395" y="613" on="0"/>
        <pt x="322" y="613" on="1"/>
        <pt x="222" y="613" on="0"/>
        <pt x="184" y="612" on="1"/>
      </contour>
    </TTGlyph>
    <TTGlyph name="Q" xMin="59" yMin="-209" xMax="611" yMax="703">
      <contour>
        <pt x="335" y="703" on="1"/>
        <pt x="489" y="703" on="0"/>
        <pt x="611" y="547" on="0"/>
        <pt x="611" y="143" on="0"/>
        <pt x="489" y="-13" on="0"/>
        <pt x="335" y="-13" on="1"/>
        <pt x="182" y="-13" on="0"/>
        <pt x="59" y="143" on="0"/>
        <pt x="59" y="547" on="0"/>
        <pt x="182" y="703" on="0"/>
      </contour>
      <contour>
        <pt x="432" y="614" on="0"/>
        <pt x="238" y="614" on="0"/>
        <pt x="165" y="498" on="0"/>
        <pt x="165" y="192" on="0"/>
        <pt x="238" y="76" on="0"/>
        <pt x="432" y="76" on="0"/>
        <pt x="506" y="192" on="0"/>
        <pt x="506" y="498" on="0"/>
      </contour>
      <contour>
        <pt x="266" y="-102" on="1"/>
        <pt x="293" y="-41" on="1"/>
        <pt x="412" y="-87" on="0"/>
        <pt x="566" y="-109" on="1"/>
        <pt x="534" y="-209" on="1"/>
        <pt x="406" y="-182" on="0"/>
      </contour>
    </TTGlyph>
    <TTGlyph name="R" xMin="84" yMin="0" xMax="578" yMax="699">
      <contour>
        <pt x="578" y="0" on="1"/>
        <pt x="471" y="0" on="1"/>
        <pt x="412" y="215" on="1"/>
        <pt x="390" y="284" on="0"/>
        <pt x="325" y="284" on="1"/>
        <pt x="183" y="285" on="1"/>
        <pt x="183" y="0" on="1"/>
        <pt x="84" y="0" on="1"/>
        <pt x="84" y="690" on="1"/>
        <pt x="169" y="699" on="0"/>
        <pt x="325" y="699" on="1"/>
        <pt x="450" y="699" on="0"/>
        <pt x="553" y="613" on="0"/>
        <pt x="553" y="499" on="1"/>
        <pt x="553" y="416" on="0"/>
        <pt x="494" y="332" on="0"/>
        <pt x="426" y="323" on="1"/>
        <pt x="426" y="318" on="1"/>
        <pt x="493" y="298" on="0"/>
        <pt x="513" y="218" on="1"/>
      </contour>
      <contour>
        <pt x="183" y="370" on="1"/>
        <pt x="323" y="370" on="1"/>
        <pt x="397" y="371" on="0"/>
        <pt x="452" y="422" on="0"/>
        <pt x="452" y="493" on="1"/>
        <pt x="452" y="563" on="0"/>
        <pt x="397" y="613" on="0"/>
        <pt x="323" y="613" on="1"/>
        <pt x="221" y="613" on="0"/>
        <pt x="183" y="612" on="1"/>
      </contour>
    </TTGlyph>
    <TTGlyph name="Racute" xMin="84" yMin="0" xMax="578" yMax="917">
      <contour>
        <pt x="266" y="726" on="1"/>
        <pt x="234" y="771" on="1"/>
        <pt x="411" y="917" on="1"/>
        <pt x="466" y="843" on="1"/>
      </contour>
      <contour>
        <pt x="578" y="0" on="1"/>
        <pt x="471" y="0" on="1"/>
        <pt x="412" y="215" on="1"/>
        <pt x="390" y="284" on="0"/>
        <pt x="325" y="284" on="1"/>
        <pt x="183" y="285" on="1"/>
        <pt x="183" y="0" on="1"/>
        <pt x="84" y="0" on="1"/>
        <pt x="84" y="690" on="1"/>
        <pt x="169" y="699" on="0"/>
        <pt x="325" y="699" on="1"/>
        <pt x="450" y="699" on="0"/>
        <pt x="553" y="613" on="0"/>
        <pt x="553" y="499" on="1"/>
        <pt x="553" y="416" on="0"/>
        <pt x="494" y="332" on="0"/>
        <pt x="426" y="323" on="1"/>
        <pt x="426" y="318" on="1"/>
        <pt x="493" y="298" on="0"/>
        <pt x="513" y="218" on="1"/>
      </contour>
      <contour>
        <pt x="183" y="370" on="1"/>
        <pt x="323" y="370" on="1"/>
        <pt x="397" y="371" on="0"/>
        <pt x="452" y="422" on="0"/>
        <pt x="452" y="493" on="1"/>
        <pt x="452" y="563" on="0"/>
        <pt x="397" y="613" on="0"/>
        <pt x="323" y="613" on="1"/>
        <pt x="221" y="613" on="0"/>
        <pt x="183" y="612" on="1"/>
      </contour>
    </TTGlyph>
    <TTGlyph name="Rcaron" xMin="84" yMin="0" xMax="578" yMax="913">
      <contour>
        <pt x="282" y="743" on="1"/>
        <pt x="138" y="872" on="1"/>
        <pt x="170" y="913" on="1"/>
        <pt x="300" y="829" on="1"/>
        <pt x="308" y="829" on="1"/>
        <pt x="437" y="913" on="1"/>
        <pt x="471" y="872" on="1"/>
        <pt x="326" y="743" on="1"/>
      </contour>
      <contour>
        <pt x="578" y="0" on="1"/>
        <pt x="471" y="0" on="1"/>
        <pt x="412" y="215" on="1"/>
        <pt x="390" y="284" on="0"/>
        <pt x="325" y="284" on="1"/>
        <pt x="183" y="285" on="1"/>
        <pt x="183" y="0" on="1"/>
        <pt x="84" y="0" on="1"/>
        <pt x="84" y="690" on="1"/>
        <pt x="169" y="699" on="0"/>
        <pt x="325" y="699" on="1"/>
        <pt x="450" y="699" on="0"/>
        <pt x="553" y="613" on="0"/>
        <pt x="553" y="499" on="1"/>
        <pt x="553" y="416" on="0"/>
        <pt x="494" y="332" on="0"/>
        <pt x="426" y="323" on="1"/>
        <pt x="426" y="318" on="1"/>
        <pt x="493" y="298" on="0"/>
        <pt x="513" y="218" on="1"/>
      </contour>
      <contour>
        <pt x="183" y="370" on="1"/>
        <pt x="323" y="370" on="1"/>
        <pt x="397" y="371" on="0"/>
        <pt x="452" y="422" on="0"/>
        <pt x="452" y="493" on="1"/>
        <pt x="452" y="563" on="0"/>
        <pt x="397" y="613" on="0"/>
        <pt x="323" y="613" on="1"/>
        <pt x="221" y="613" on="0"/>
        <pt x="183" y="612" on="1"/>
      </contour>
    </TTGlyph>
    <TTGlyph name="Rcommaaccent" xMin="84" yMin="-277" xMax="578" yMax="699">
      <contour>
        <pt x="578" y="0" on="1"/>
        <pt x="471" y="0" on="1"/>
        <pt x="412" y="215" on="1"/>
        <pt x="390" y="284" on="0"/>
        <pt x="325" y="284" on="1"/>
        <pt x="183" y="285" on="1"/>
        <pt x="183" y="0" on="1"/>
        <pt x="84" y="0" on="1"/>
        <pt x="84" y="690" on="1"/>
        <pt x="169" y="699" on="0"/>
        <pt x="325" y="699" on="1"/>
        <pt x="450" y="699" on="0"/>
        <pt x="553" y="613" on="0"/>
        <pt x="553" y="499" on="1"/>
        <pt x="553" y="416" on="0"/>
        <pt x="494" y="332" on="0"/>
        <pt x="426" y="323" on="1"/>
        <pt x="426" y="318" on="1"/>
        <pt x="493" y="298" on="0"/>
        <pt x="513" y="218" on="1"/>
      </contour>
      <contour>
        <pt x="183" y="370" on="1"/>
        <pt x="323" y="370" on="1"/>
        <pt x="397" y="371" on="0"/>
        <pt x="452" y="422" on="0"/>
        <pt x="452" y="493" on="1"/>
        <pt x="452" y="563" on="0"/>
        <pt x="397" y="613" on="0"/>
        <pt x="323" y="613" on="1"/>
        <pt x="221" y="613" on="0"/>
        <pt x="183" y="612" on="1"/>
      </contour>
      <contour>
        <pt x="316" y="-58" on="1"/>
        <pt x="341" y="-58" on="1"/>
        <pt x="359" y="-58" on="0"/>
        <pt x="373" y="-71" on="0"/>
        <pt x="373" y="-88" on="1"/>
        <pt x="373" y="-142" on="1"/>
        <pt x="372" y="-215" on="0"/>
        <pt x="338" y="-277" on="1"/>
        <pt x="297" y="-266" on="1"/>
        <pt x="307" y="-208" on="0"/>
        <pt x="307" y="-163" on="1"/>
        <pt x="282" y="-163" on="0"/>
        <pt x="282" y="-137" on="1"/>
        <pt x="282" y="-88" on="1"/>
        <pt x="283" y="-71" on="0"/>
        <pt x="299" y="-58" on="0"/>
      </contour>
    </TTGlyph>
    <TTGlyph name="S" xMin="53" yMin="-12" xMax="514" yMax="702">
      <contour>
        <pt x="330" y="285" on="1"/>
        <pt x="190" y="324" on="1"/>
        <pt x="116" y="344" on="0"/>
        <pt x="53" y="439" on="0"/>
        <pt x="53" y="520" on="1"/>
        <pt x="53" y="579" on="0"/>
        <pt x="78" y="652" on="0"/>
        <pt x="140" y="690" on="0"/>
        <pt x="216" y="702" on="0"/>
        <pt x="280" y="702" on="1"/>
        <pt x="402" y="702" on="0"/>
        <pt x="488" y="681" on="1"/>
        <pt x="482" y="608" on="1"/>
        <pt x="337" y="613" on="0"/>
        <pt x="284" y="613" on="1"/>
        <pt x="206" y="613" on="0"/>
        <pt x="154" y="582" on="0"/>
        <pt x="154" y="517" on="1"/>
        <pt x="154" y="466" on="0"/>
        <pt x="191" y="424" on="0"/>
        <pt x="237" y="412" on="1"/>
        <pt x="374" y="374" on="1"/>
        <pt x="451" y="353" on="0"/>
        <pt x="514" y="259" on="0"/>
        <pt x="514" y="178" on="1"/>
        <pt x="514" y="64" on="0"/>
        <pt x="410" y="-12" on="0"/>
        <pt x="279" y="-12" on="1"/>
        <pt x="169" y="-12" on="0"/>
        <pt x="62" y="8" on="1"/>
        <pt x="69" y="82" on="1"/>
        <pt x="225" y="77" on="0"/>
        <pt x="281" y="77" on="1"/>
        <pt x="359" y="78" on="0"/>
        <pt x="412" y="116" on="0"/>
        <pt x="412" y="179" on="1"/>
        <pt x="412" y="232" on="0"/>
        <pt x="376" y="273" on="0"/>
      </contour>
    </TTGlyph>
    <TTGlyph name="Sacute" xMin="53" yMin="-12" xMax="514" yMax="917">
      <contour>
        <pt x="441" y="843" on="1"/>
        <pt x="242" y="726" on="1"/>
        <pt x="209" y="771" on="1"/>
        <pt x="386" y="917" on="1"/>
      </contour>
      <contour>
        <pt x="330" y="285" on="1"/>
        <pt x="190" y="324" on="1"/>
        <pt x="116" y="344" on="0"/>
        <pt x="53" y="439" on="0"/>
        <pt x="53" y="520" on="1"/>
        <pt x="53" y="579" on="0"/>
        <pt x="78" y="652" on="0"/>
        <pt x="140" y="690" on="0"/>
        <pt x="216" y="702" on="0"/>
        <pt x="280" y="702" on="1"/>
        <pt x="402" y="702" on="0"/>
        <pt x="488" y="681" on="1"/>
        <pt x="482" y="608" on="1"/>
        <pt x="337" y="613" on="0"/>
        <pt x="284" y="613" on="1"/>
        <pt x="206" y="613" on="0"/>
        <pt x="154" y="582" on="0"/>
        <pt x="154" y="517" on="1"/>
        <pt x="154" y="466" on="0"/>
        <pt x="191" y="424" on="0"/>
        <pt x="237" y="412" on="1"/>
        <pt x="374" y="374" on="1"/>
        <pt x="451" y="353" on="0"/>
        <pt x="514" y="259" on="0"/>
        <pt x="514" y="178" on="1"/>
        <pt x="514" y="64" on="0"/>
        <pt x="410" y="-12" on="0"/>
        <pt x="279" y="-12" on="1"/>
        <pt x="169" y="-12" on="0"/>
        <pt x="62" y="8" on="1"/>
        <pt x="69" y="82" on="1"/>
        <pt x="225" y="77" on="0"/>
        <pt x="281" y="77" on="1"/>
        <pt x="359" y="78" on="0"/>
        <pt x="412" y="116" on="0"/>
        <pt x="412" y="179" on="1"/>
        <pt x="412" y="232" on="0"/>
        <pt x="376" y="273" on="0"/>
      </contour>
    </TTGlyph>
    <TTGlyph name="Scaron" xMin="53" yMin="-12" xMax="514" yMax="913">
      <contour>
        <pt x="446" y="872" on="1"/>
        <pt x="301" y="743" on="1"/>
        <pt x="257" y="743" on="1"/>
        <pt x="113" y="872" on="1"/>
        <pt x="145" y="913" on="1"/>
        <pt x="275" y="829" on="1"/>
        <pt x="283" y="829" on="1"/>
        <pt x="412" y="913" on="1"/>
      </contour>
      <contour>
        <pt x="330" y="285" on="1"/>
        <pt x="190" y="324" on="1"/>
        <pt x="116" y="344" on="0"/>
        <pt x="53" y="439" on="0"/>
        <pt x="53" y="520" on="1"/>
        <pt x="53" y="579" on="0"/>
        <pt x="78" y="652" on="0"/>
        <pt x="140" y="690" on="0"/>
        <pt x="216" y="702" on="0"/>
        <pt x="280" y="702" on="1"/>
        <pt x="402" y="702" on="0"/>
        <pt x="488" y="681" on="1"/>
        <pt x="482" y="608" on="1"/>
        <pt x="337" y="613" on="0"/>
        <pt x="284" y="613" on="1"/>
        <pt x="206" y="613" on="0"/>
        <pt x="154" y="582" on="0"/>
        <pt x="154" y="517" on="1"/>
        <pt x="154" y="466" on="0"/>
        <pt x="191" y="424" on="0"/>
        <pt x="237" y="412" on="1"/>
        <pt x="374" y="374" on="1"/>
        <pt x="451" y="353" on="0"/>
        <pt x="514" y="259" on="0"/>
        <pt x="514" y="178" on="1"/>
        <pt x="514" y="64" on="0"/>
        <pt x="410" y="-12" on="0"/>
        <pt x="279" y="-12" on="1"/>
        <pt x="169" y="-12" on="0"/>
        <pt x="62" y="8" on="1"/>
        <pt x="69" y="82" on="1"/>
        <pt x="225" y="77" on="0"/>
        <pt x="281" y="77" on="1"/>
        <pt x="359" y="78" on="0"/>
        <pt x="412" y="116" on="0"/>
        <pt x="412" y="179" on="1"/>
        <pt x="412" y="232" on="0"/>
        <pt x="376" y="273" on="0"/>
      </contour>
    </TTGlyph>
    <TTGlyph name="Scedilla" xMin="53" yMin="-243" xMax="514" yMax="702">
      <contour>
        <pt x="330" y="285" on="1"/>
        <pt x="190" y="324" on="1"/>
        <pt x="116" y="344" on="0"/>
        <pt x="53" y="439" on="0"/>
        <pt x="53" y="520" on="1"/>
        <pt x="53" y="579" on="0"/>
        <pt x="78" y="652" on="0"/>
        <pt x="140" y="690" on="0"/>
        <pt x="216" y="702" on="0"/>
        <pt x="280" y="702" on="1"/>
        <pt x="402" y="702" on="0"/>
        <pt x="488" y="681" on="1"/>
        <pt x="482" y="608" on="1"/>
        <pt x="337" y="613" on="0"/>
        <pt x="284" y="613" on="1"/>
        <pt x="206" y="613" on="0"/>
        <pt x="154" y="582" on="0"/>
        <pt x="154" y="517" on="1"/>
        <pt x="154" y="466" on="0"/>
        <pt x="191" y="424" on="0"/>
        <pt x="237" y="412" on="1"/>
        <pt x="374" y="374" on="1"/>
        <pt x="451" y="353" on="0"/>
        <pt x="514" y="259" on="0"/>
        <pt x="514" y="178" on="1"/>
        <pt x="514" y="64" on="0"/>
        <pt x="410" y="-12" on="0"/>
        <pt x="279" y="-12" on="1"/>
        <pt x="169" y="-12" on="0"/>
        <pt x="62" y="8" on="1"/>
        <pt x="69" y="82" on="1"/>
        <pt x="225" y="77" on="0"/>
        <pt x="281" y="77" on="1"/>
        <pt x="359" y="78" on="0"/>
        <pt x="412" y="116" on="0"/>
        <pt x="412" y="179" on="1"/>
        <pt x="412" y="232" on="0"/>
        <pt x="376" y="273" on="0"/>
      </contour>
      <contour>
        <pt x="228" y="-99" on="1"/>
        <pt x="238" y="-54" on="1"/>
        <pt x="304" y="-48" on="0"/>
        <pt x="357" y="-74" on="0"/>
        <pt x="356" y="-119" on="1"/>
        <pt x="355" y="-184" on="0"/>
        <pt x="257" y="-253" on="0"/>
        <pt x="183" y="-243" on="1"/>
        <pt x="199" y="-192" on="1"/>
        <pt x="237" y="-193" on="0"/>
        <pt x="285" y="-157" on="0"/>
        <pt x="287" y="-127" on="1"/>
        <pt x="288" y="-110" on="0"/>
        <pt x="264" y="-99" on="0"/>
      </contour>
    </TTGlyph>
    <TTGlyph name="Scommaaccent" xMin="53" yMin="-277" xMax="514" yMax="702">
      <contour>
        <pt x="330" y="285" on="1"/>
        <pt x="190" y="324" on="1"/>
        <pt x="116" y="344" on="0"/>
        <pt x="53" y="439" on="0"/>
        <pt x="53" y="520" on="1"/>
        <pt x="53" y="579" on="0"/>
        <pt x="78" y="652" on="0"/>
        <pt x="140" y="690" on="0"/>
        <pt x="216" y="702" on="0"/>
        <pt x="280" y="702" on="1"/>
        <pt x="402" y="702" on="0"/>
        <pt x="488" y="681" on="1"/>
        <pt x="482" y="608" on="1"/>
        <pt x="337" y="613" on="0"/>
        <pt x="284" y="613" on="1"/>
        <pt x="206" y="613" on="0"/>
        <pt x="154" y="582" on="0"/>
        <pt x="154" y="517" on="1"/>
        <pt x="154" y="466" on="0"/>
        <pt x="191" y="424" on="0"/>
        <pt x="237" y="412" on="1"/>
        <pt x="374" y="374" on="1"/>
        <pt x="451" y="353" on="0"/>
        <pt x="514" y="259" on="0"/>
        <pt x="514" y="178" on="1"/>
        <pt x="514" y="64" on="0"/>
        <pt x="410" y="-12" on="0"/>
        <pt x="279" y="-12" on="1"/>
        <pt x="169" y="-12" on="0"/>
        <pt x="62" y="8" on="1"/>
        <pt x="69" y="82" on="1"/>
        <pt x="225" y="77" on="0"/>
        <pt x="281" y="77" on="1"/>
        <pt x="359" y="78" on="0"/>
        <pt x="412" y="116" on="0"/>
        <pt x="412" y="179" on="1"/>
        <pt x="412" y="232" on="0"/>
        <pt x="376" y="273" on="0"/>
      </contour>
      <contour>
        <pt x="272" y="-58" on="1"/>
        <pt x="298" y="-58" on="1"/>
        <pt x="315" y="-58" on="0"/>
        <pt x="329" y="-71" on="0"/>
        <pt x="329" y="-88" on="1"/>
        <pt x="329" y="-142" on="1"/>
        <pt x="328" y="-217" on="0"/>
        <pt x="295" y="-277" on="1"/>
        <pt x="253" y="-266" on="1"/>
        <pt x="263" y="-208" on="0"/>
        <pt x="263" y="-163" on="1"/>
        <pt x="238" y="-163" on="0"/>
        <pt x="238" y="-137" on="1"/>
        <pt x="238" y="-88" on="1"/>
        <pt x="239" y="-71" on="0"/>
        <pt x="255" y="-58" on="0"/>
      </contour>
    </TTGlyph>
    <TTGlyph name="T" xMin="24" yMin="0" xMax="561" yMax="690">
      <contour>
        <pt x="561" y="601" on="1"/>
        <pt x="342" y="601" on="1"/>
        <pt x="342" y="0" on="1"/>
        <pt x="241" y="0" on="1"/>
        <pt x="241" y="601" on="1"/>
        <pt x="24" y="601" on="1"/>
        <pt x="24" y="690" on="1"/>
        <pt x="561" y="690" on="1"/>
      </contour>
    </TTGlyph>
    <TTGlyph name="Tbar" xMin="24" yMin="0" xMax="561" yMax="690">
      <contour>
        <pt x="342" y="601" on="1"/>
        <pt x="342" y="420" on="1"/>
        <pt x="480" y="420" on="1"/>
        <pt x="480" y="365" on="1"/>
        <pt x="342" y="365" on="1"/>
        <pt x="342" y="0" on="1"/>
        <pt x="241" y="0" on="1"/>
        <pt x="241" y="365" on="1"/>
        <pt x="103" y="365" on="1"/>
        <pt x="103" y="420" on="1"/>
        <pt x="241" y="420" on="1"/>
        <pt x="241" y="601" on="1"/>
        <pt x="24" y="601" on="1"/>
        <pt x="24" y="690" on="1"/>
        <pt x="561" y="690" on="1"/>
        <pt x="561" y="601" on="1"/>
      </contour>
    </TTGlyph>
    <TTGlyph name="Tcaron" xMin="24" yMin="0" xMax="561" yMax="913">
      <contour>
        <pt x="271" y="743" on="1"/>
        <pt x="127" y="872" on="1"/>
        <pt x="159" y="913" on="1"/>
        <pt x="289" y="829" on="1"/>
        <pt x="297" y="829" on="1"/>
        <pt x="426" y="913" on="1"/>
        <pt x="459" y="872" on="1"/>
        <pt x="315" y="743" on="1"/>
      </contour>
      <contour>
        <pt x="561" y="601" on="1"/>
        <pt x="342" y="601" on="1"/>
        <pt x="342" y="0" on="1"/>
        <pt x="241" y="0" on="1"/>
        <pt x="241" y="601" on="1"/>
        <pt x="24" y="601" on="1"/>
        <pt x="24" y="690" on="1"/>
        <pt x="561" y="690" on="1"/>
      </contour>
    </TTGlyph>
    <TTGlyph name="Tcedilla" xMin="24" yMin="-231" xMax="561" yMax="690">
      <contour>
        <pt x="561" y="690" on="1"/>
        <pt x="561" y="601" on="1"/>
        <pt x="342" y="601" on="1"/>
        <pt x="342" y="0" on="1"/>
        <pt x="241" y="0" on="1"/>
        <pt x="241" y="601" on="1"/>
        <pt x="24" y="601" on="1"/>
        <pt x="24" y="690" on="1"/>
      </contour>
      <contour>
        <pt x="233" y="-87" on="1"/>
        <pt x="243" y="-42" on="1"/>
        <pt x="308" y="-36" on="0"/>
        <pt x="362" y="-62" on="0"/>
        <pt x="361" y="-107" on="1"/>
        <pt x="359" y="-172" on="0"/>
        <pt x="261" y="-241" on="0"/>
        <pt x="188" y="-231" on="1"/>
        <pt x="203" y="-180" on="1"/>
        <pt x="241" y="-181" on="0"/>
        <pt x="290" y="-145" on="0"/>
        <pt x="292" y="-115" on="1"/>
        <pt x="292" y="-99" on="0"/>
        <pt x="269" y="-88" on="0"/>
      </contour>
    </TTGlyph>
    <TTGlyph name="Thorn" xMin="84" yMin="0" xMax="550" yMax="690">
      <contour>
        <pt x="184" y="690" on="1"/>
        <pt x="184" y="568" on="1"/>
        <pt x="222" y="570" on="0"/>
        <pt x="325" y="570" on="1"/>
        <pt x="453" y="570" on="0"/>
        <pt x="550" y="477" on="0"/>
        <pt x="550" y="348" on="1"/>
        <pt x="550" y="220" on="0"/>
        <pt x="457" y="128" on="0"/>
        <pt x="336" y="128" on="1"/>
        <pt x="270" y="128" on="0"/>
        <pt x="184" y="136" on="1"/>
        <pt x="184" y="0" on="1"/>
        <pt x="84" y="0" on="1"/>
        <pt x="84" y="561" on="1"/>
        <pt x="84" y="690" on="1"/>
      </contour>
      <contour>
        <pt x="184" y="214" on="1"/>
        <pt x="322" y="214" on="1"/>
        <pt x="396" y="215" on="0"/>
        <pt x="449" y="269" on="0"/>
        <pt x="449" y="348" on="1"/>
        <pt x="449" y="429" on="0"/>
        <pt x="395" y="484" on="0"/>
        <pt x="322" y="484" on="1"/>
        <pt x="222" y="484" on="0"/>
        <pt x="184" y="483" on="1"/>
      </contour>
    </TTGlyph>
    <TTGlyph name="U" xMin="79" yMin="-13" xMax="587" yMax="690">
      <contour>
        <pt x="587" y="690" on="1"/>
        <pt x="587" y="266" on="1"/>
        <pt x="587" y="114" on="0"/>
        <pt x="474" y="-13" on="0"/>
        <pt x="337" y="-13" on="1"/>
        <pt x="196" y="-13" on="0"/>
        <pt x="79" y="114" on="0"/>
        <pt x="79" y="266" on="1"/>
        <pt x="79" y="690" on="1"/>
        <pt x="179" y="690" on="1"/>
        <pt x="179" y="266" on="1"/>
        <pt x="179" y="160" on="0"/>
        <pt x="247" y="76" on="0"/>
        <pt x="333" y="76" on="1"/>
        <pt x="418" y="76" on="0"/>
        <pt x="487" y="160" on="0"/>
        <pt x="487" y="266" on="1"/>
        <pt x="487" y="690" on="1"/>
      </contour>
    </TTGlyph>
    <TTGlyph name="Uacute" xMin="79" yMin="-13" xMax="587" yMax="917">
      <contour>
        <pt x="497" y="843" on="1"/>
        <pt x="298" y="726" on="1"/>
        <pt x="265" y="771" on="1"/>
        <pt x="442" y="917" on="1"/>
      </contour>
      <contour>
        <pt x="587" y="690" on="1"/>
        <pt x="587" y="266" on="1"/>
        <pt x="587" y="114" on="0"/>
        <pt x="474" y="-13" on="0"/>
        <pt x="337" y="-13" on="1"/>
        <pt x="196" y="-13" on="0"/>
        <pt x="79" y="114" on="0"/>
        <pt x="79" y="266" on="1"/>
        <pt x="79" y="690" on="1"/>
        <pt x="179" y="690" on="1"/>
        <pt x="179" y="266" on="1"/>
        <pt x="179" y="160" on="0"/>
        <pt x="247" y="76" on="0"/>
        <pt x="333" y="76" on="1"/>
        <pt x="418" y="76" on="0"/>
        <pt x="487" y="160" on="0"/>
        <pt x="487" y="266" on="1"/>
        <pt x="487" y="690" on="1"/>
      </contour>
    </TTGlyph>
    <TTGlyph name="Ucircumflex" xMin="79" yMin="-13" xMax="587" yMax="899">
      <contour>
        <pt x="501" y="770" on="1"/>
        <pt x="467" y="729" on="1"/>
        <pt x="338" y="825" on="1"/>
        <pt x="330" y="825" on="1"/>
        <pt x="200" y="729" on="1"/>
        <pt x="168" y="770" on="1"/>
        <pt x="299" y="899" on="1"/>
        <pt x="369" y="899" on="1"/>
      </contour>
      <contour>
        <pt x="587" y="690" on="1"/>
        <pt x="587" y="266" on="1"/>
        <pt x="587" y="114" on="0"/>
        <pt x="474" y="-13" on="0"/>
        <pt x="337" y="-13" on="1"/>
        <pt x="196" y="-13" on="0"/>
        <pt x="79" y="114" on="0"/>
        <pt x="79" y="266" on="1"/>
        <pt x="79" y="690" on="1"/>
        <pt x="179" y="690" on="1"/>
        <pt x="179" y="266" on="1"/>
        <pt x="179" y="160" on="0"/>
        <pt x="247" y="76" on="0"/>
        <pt x="333" y="76" on="1"/>
        <pt x="418" y="76" on="0"/>
        <pt x="487" y="160" on="0"/>
        <pt x="487" y="266" on="1"/>
        <pt x="487" y="690" on="1"/>
      </contour>
    </TTGlyph>
    <TTGlyph name="Udieresis" xMin="79" yMin="-13" xMax="587" yMax="872">
      <contour>
        <pt x="229" y="872" on="1"/>
        <pt x="261" y="872" on="1"/>
        <pt x="287" y="872" on="0"/>
        <pt x="287" y="846" on="1"/>
        <pt x="287" y="792" on="1"/>
        <pt x="287" y="765" on="0"/>
        <pt x="261" y="765" on="1"/>
        <pt x="229" y="765" on="1"/>
        <pt x="203" y="765" on="0"/>
        <pt x="203" y="792" on="1"/>
        <pt x="203" y="846" on="1"/>
        <pt x="203" y="872" on="0"/>
      </contour>
      <contour>
        <pt x="407" y="872" on="1"/>
        <pt x="438" y="872" on="1"/>
        <pt x="465" y="872" on="0"/>
        <pt x="465" y="846" on="1"/>
        <pt x="465" y="792" on="1"/>
        <pt x="465" y="765" on="0"/>
        <pt x="438" y="765" on="1"/>
        <pt x="407" y="765" on="1"/>
        <pt x="380" y="765" on="0"/>
        <pt x="380" y="792" on="1"/>
        <pt x="380" y="846" on="1"/>
        <pt x="380" y="872" on="0"/>
      </contour>
      <contour>
        <pt x="587" y="690" on="1"/>
        <pt x="587" y="266" on="1"/>
        <pt x="587" y="114" on="0"/>
        <pt x="474" y="-13" on="0"/>
        <pt x="337" y="-13" on="1"/>
        <pt x="196" y="-13" on="0"/>
        <pt x="79" y="114" on="0"/>
        <pt x="79" y="266" on="1"/>
        <pt x="79" y="690" on="1"/>
        <pt x="179" y="690" on="1"/>
        <pt x="179" y="266" on="1"/>
        <pt x="179" y="160" on="0"/>
        <pt x="247" y="76" on="0"/>
        <pt x="333" y="76" on="1"/>
        <pt x="418" y="76" on="0"/>
        <pt x="487" y="160" on="0"/>
        <pt x="487" y="266" on="1"/>
        <pt x="487" y="690" on="1"/>
      </contour>
    </TTGlyph>
    <TTGlyph name="Ugrave" xMin="79" yMin="-13" xMax="587" yMax="917">
      <contour>
        <pt x="386" y="771" on="1"/>
        <pt x="354" y="726" on="1"/>
        <pt x="154" y="843" on="1"/>
        <pt x="209" y="917" on="1"/>
      </contour>
      <contour>
        <pt x="587" y="690" on="1"/>
        <pt x="587" y="266" on="1"/>
        <pt x="587" y="114" on="0"/>
        <pt x="474" y="-13" on="0"/>
        <pt x="337" y="-13" on="1"/>
        <pt x="196" y="-13" on="0"/>
        <pt x="79" y="114" on="0"/>
        <pt x="79" y="266" on="1"/>
        <pt x="79" y="690" on="1"/>
        <pt x="179" y="690" on="1"/>
        <pt x="179" y="266" on="1"/>
        <pt x="179" y="160" on="0"/>
        <pt x="247" y="76" on="0"/>
        <pt x="333" y="76" on="1"/>
        <pt x="418" y="76" on="0"/>
        <pt x="487" y="160" on="0"/>
        <pt x="487" y="266" on="1"/>
        <pt x="487" y="690" on="1"/>
      </contour>
    </TTGlyph>
    <TTGlyph name="Uhungarumlaut" xMin="79" yMin="-13" xMax="587" yMax="929">
      <contour>
        <pt x="376" y="881" on="1"/>
        <pt x="238" y="720" on="1"/>
        <pt x="196" y="752" on="1"/>
        <pt x="306" y="929" on="1"/>
      </contour>
      <contour>
        <pt x="544" y="881" on="1"/>
        <pt x="406" y="720" on="1"/>
        <pt x="365" y="752" on="1"/>
        <pt x="474" y="929" on="1"/>
      </contour>
      <contour>
        <pt x="587" y="690" on="1"/>
        <pt x="587" y="266" on="1"/>
        <pt x="587" y="114" on="0"/>
        <pt x="474" y="-13" on="0"/>
        <pt x="337" y="-13" on="1"/>
        <pt x="196" y="-13" on="0"/>
        <pt x="79" y="114" on="0"/>
        <pt x="79" y="266" on="1"/>
        <pt x="79" y="690" on="1"/>
        <pt x="179" y="690" on="1"/>
        <pt x="179" y="266" on="1"/>
        <pt x="179" y="160" on="0"/>
        <pt x="247" y="76" on="0"/>
        <pt x="333" y="76" on="1"/>
        <pt x="418" y="76" on="0"/>
        <pt x="487" y="160" on="0"/>
        <pt x="487" y="266" on="1"/>
        <pt x="487" y="690" on="1"/>
      </contour>
    </TTGlyph>
    <TTGlyph name="Umacron" xMin="79" yMin="-13" xMax="587" yMax="853">
      <contour>
        <pt x="475" y="782" on="1"/>
        <pt x="193" y="782" on="1"/>
        <pt x="193" y="853" on="1"/>
        <pt x="475" y="853" on="1"/>
      </contour>
      <contour>
        <pt x="587" y="690" on="1"/>
        <pt x="587" y="266" on="1"/>
        <pt x="587" y="114" on="0"/>
        <pt x="474" y="-13" on="0"/>
        <pt x="337" y="-13" on="1"/>
        <pt x="196" y="-13" on="0"/>
        <pt x="79" y="114" on="0"/>
        <pt x="79" y="266" on="1"/>
        <pt x="79" y="690" on="1"/>
        <pt x="179" y="690" on="1"/>
        <pt x="179" y="266" on="1"/>
        <pt x="179" y="160" on="0"/>
        <pt x="247" y="76" on="0"/>
        <pt x="333" y="76" on="1"/>
        <pt x="418" y="76" on="0"/>
        <pt x="487" y="160" on="0"/>
        <pt x="487" y="266" on="1"/>
        <pt x="487" y="690" on="1"/>
      </contour>
    </TTGlyph>
    <TTGlyph name="Uogonek" xMin="79" yMin="-222" xMax="587" yMax="690">
      <contour>
        <pt x="587" y="690" on="1"/>
        <pt x="587" y="266" on="1"/>
        <pt x="587" y="124" on="0"/>
        <pt x="489" y="-5" on="0"/>
        <pt x="372" y="-12" on="1"/>
        <pt x="323" y="-68" on="0"/>
        <pt x="303" y="-120" on="1"/>
        <pt x="288" y="-155" on="0"/>
        <pt x="332" y="-177" on="0"/>
        <pt x="378" y="-162" on="1"/>
        <pt x="389" y="-202" on="1"/>
        <pt x="342" y="-221" on="0"/>
        <pt x="271" y="-223" on="0"/>
        <pt x="237" y="-196" on="0"/>
        <pt x="223" y="-152" on="0"/>
        <pt x="235" y="-125" on="1"/>
        <pt x="255" y="-67" on="0"/>
        <pt x="325" y="-13" on="1"/>
        <pt x="191" y="-10" on="0"/>
        <pt x="79" y="118" on="0"/>
        <pt x="79" y="266" on="1"/>
        <pt x="79" y="690" on="1"/>
        <pt x="179" y="690" on="1"/>
        <pt x="179" y="266" on="1"/>
        <pt x="179" y="160" on="0"/>
        <pt x="247" y="76" on="0"/>
        <pt x="333" y="76" on="1"/>
        <pt x="418" y="76" on="0"/>
        <pt x="487" y="160" on="0"/>
        <pt x="487" y="266" on="1"/>
        <pt x="487" y="690" on="1"/>
      </contour>
    </TTGlyph>
    <TTGlyph name="Uring" xMin="79" yMin="-13" xMax="587" yMax="927">
      <contour>
        <pt x="289" y="927" on="0"/>
        <pt x="379" y="927" on="0"/>
        <pt x="443" y="865" on="0"/>
        <pt x="443" y="775" on="0"/>
        <pt x="379" y="714" on="0"/>
        <pt x="334" y="714" on="1"/>
        <pt x="288" y="714" on="0"/>
        <pt x="225" y="775" on="0"/>
        <pt x="225" y="865" on="0"/>
      </contour>
      <contour>
        <pt x="358" y="879" on="0"/>
        <pt x="310" y="879" on="0"/>
        <pt x="278" y="847" on="0"/>
        <pt x="278" y="820" on="1"/>
        <pt x="278" y="794" on="0"/>
        <pt x="310" y="762" on="0"/>
        <pt x="334" y="762" on="1"/>
        <pt x="359" y="762" on="0"/>
        <pt x="391" y="794" on="0"/>
        <pt x="391" y="846" on="0"/>
      </contour>
      <contour>
        <pt x="587" y="690" on="1"/>
        <pt x="587" y="266" on="1"/>
        <pt x="587" y="114" on="0"/>
        <pt x="474" y="-13" on="0"/>
        <pt x="337" y="-13" on="1"/>
        <pt x="196" y="-13" on="0"/>
        <pt x="79" y="114" on="0"/>
        <pt x="79" y="266" on="1"/>
        <pt x="79" y="690" on="1"/>
        <pt x="179" y="690" on="1"/>
        <pt x="179" y="266" on="1"/>
        <pt x="179" y="160" on="0"/>
        <pt x="247" y="76" on="0"/>
        <pt x="333" y="76" on="1"/>
        <pt x="418" y="76" on="0"/>
        <pt x="487" y="160" on="0"/>
        <pt x="487" y="266" on="1"/>
        <pt x="487" y="690" on="1"/>
      </contour>
    </TTGlyph>
    <TTGlyph name="V" xMin="15" yMin="0" xMax="597" yMax="690">
      <contour>
        <pt x="597" y="690" on="1"/>
        <pt x="393" y="28" on="1"/>
        <pt x="384" y="0" on="0"/>
        <pt x="355" y="0" on="1"/>
        <pt x="257" y="0" on="1"/>
        <pt x="228" y="0" on="0"/>
        <pt x="219" y="28" on="1"/>
        <pt x="15" y="690" on="1"/>
        <pt x="118" y="690" on="1"/>
        <pt x="274" y="153" on="1"/>
        <pt x="279" y="134" on="0"/>
        <pt x="293" y="77" on="1"/>
        <pt x="320" y="77" on="1"/>
        <pt x="326" y="106" on="0"/>
        <pt x="339" y="153" on="1"/>
        <pt x="494" y="690" on="1"/>
      </contour>
    </TTGlyph>
    <TTGlyph name="W" xMin="30" yMin="0" xMax="921" yMax="690">
      <contour>
        <pt x="921" y="690" on="1"/>
        <pt x="789" y="29" on="1"/>
        <pt x="780" y="0" on="0"/>
        <pt x="750" y="0" on="1"/>
        <pt x="639" y="0" on="1"/>
        <pt x="607" y="0" on="0"/>
        <pt x="600" y="30" on="1"/>
        <pt x="500" y="537" on="1"/>
        <pt x="490" y="589" on="0"/>
        <pt x="486" y="615" on="1"/>
        <pt x="465" y="615" on="1"/>
        <pt x="450" y="537" on="1"/>
        <pt x="351" y="30" on="1"/>
        <pt x="349" y="17" on="0"/>
        <pt x="326" y="0" on="0"/>
        <pt x="312" y="0" on="1"/>
        <pt x="200" y="0" on="1"/>
        <pt x="169" y="0" on="0"/>
        <pt x="162" y="29" on="1"/>
        <pt x="30" y="690" on="1"/>
        <pt x="136" y="690" on="1"/>
        <pt x="235" y="164" on="1"/>
        <pt x="238" y="147" on="0"/>
        <pt x="247" y="76" on="1"/>
        <pt x="270" y="76" on="1"/>
        <pt x="275" y="119" on="0"/>
        <pt x="285" y="164" on="1"/>
        <pt x="384" y="657" on="1"/>
        <pt x="391" y="690" on="0"/>
        <pt x="422" y="690" on="1"/>
        <pt x="529" y="690" on="1"/>
        <pt x="543" y="690" on="0"/>
        <pt x="564" y="671" on="0"/>
        <pt x="567" y="657" on="1"/>
        <pt x="665" y="163" on="1"/>
        <pt x="673" y="123" on="0"/>
        <pt x="680" y="76" on="1"/>
        <pt x="703" y="76" on="1"/>
        <pt x="705" y="90" on="0"/>
        <pt x="713" y="148" on="0"/>
        <pt x="716" y="162" on="1"/>
        <pt x="815" y="690" on="1"/>
      </contour>
    </TTGlyph>
    <TTGlyph name="Wacute" xMin="30" yMin="0" xMax="921" yMax="917">
      <contour>
        <pt x="639" y="842" on="1"/>
        <pt x="440" y="725" on="1"/>
        <pt x="408" y="770" on="1"/>
        <pt x="584" y="917" on="1"/>
      </contour>
      <contour>
        <pt x="921" y="690" on="1"/>
        <pt x="789" y="29" on="1"/>
        <pt x="780" y="0" on="0"/>
        <pt x="750" y="0" on="1"/>
        <pt x="639" y="0" on="1"/>
        <pt x="607" y="0" on="0"/>
        <pt x="600" y="30" on="1"/>
        <pt x="500" y="537" on="1"/>
        <pt x="490" y="589" on="0"/>
        <pt x="486" y="615" on="1"/>
        <pt x="465" y="615" on="1"/>
        <pt x="450" y="537" on="1"/>
        <pt x="351" y="30" on="1"/>
        <pt x="349" y="17" on="0"/>
        <pt x="326" y="0" on="0"/>
        <pt x="312" y="0" on="1"/>
        <pt x="200" y="0" on="1"/>
        <pt x="169" y="0" on="0"/>
        <pt x="162" y="29" on="1"/>
        <pt x="30" y="690" on="1"/>
        <pt x="136" y="690" on="1"/>
        <pt x="235" y="164" on="1"/>
        <pt x="238" y="147" on="0"/>
        <pt x="247" y="76" on="1"/>
        <pt x="270" y="76" on="1"/>
        <pt x="275" y="119" on="0"/>
        <pt x="285" y="164" on="1"/>
        <pt x="384" y="657" on="1"/>
        <pt x="391" y="690" on="0"/>
        <pt x="422" y="690" on="1"/>
        <pt x="529" y="690" on="1"/>
        <pt x="543" y="690" on="0"/>
        <pt x="564" y="671" on="0"/>
        <pt x="567" y="657" on="1"/>
        <pt x="665" y="163" on="1"/>
        <pt x="673" y="123" on="0"/>
        <pt x="680" y="76" on="1"/>
        <pt x="703" y="76" on="1"/>
        <pt x="705" y="90" on="0"/>
        <pt x="713" y="148" on="0"/>
        <pt x="716" y="162" on="1"/>
        <pt x="815" y="690" on="1"/>
      </contour>
    </TTGlyph>
    <TTGlyph name="Wcircumflex" xMin="30" yMin="0" xMax="921" yMax="899">
      <contour>
        <pt x="643" y="769" on="1"/>
        <pt x="609" y="728" on="1"/>
        <pt x="480" y="825" on="1"/>
        <pt x="472" y="825" on="1"/>
        <pt x="342" y="728" on="1"/>
        <pt x="310" y="769" on="1"/>
        <pt x="441" y="899" on="1"/>
        <pt x="511" y="899" on="1"/>
      </contour>
      <contour>
        <pt x="921" y="690" on="1"/>
        <pt x="789" y="29" on="1"/>
        <pt x="780" y="0" on="0"/>
        <pt x="750" y="0" on="1"/>
        <pt x="639" y="0" on="1"/>
        <pt x="607" y="0" on="0"/>
        <pt x="600" y="30" on="1"/>
        <pt x="500" y="537" on="1"/>
        <pt x="490" y="589" on="0"/>
        <pt x="486" y="615" on="1"/>
        <pt x="465" y="615" on="1"/>
        <pt x="450" y="537" on="1"/>
        <pt x="351" y="30" on="1"/>
        <pt x="349" y="17" on="0"/>
        <pt x="326" y="0" on="0"/>
        <pt x="312" y="0" on="1"/>
        <pt x="200" y="0" on="1"/>
        <pt x="169" y="0" on="0"/>
        <pt x="162" y="29" on="1"/>
        <pt x="30" y="690" on="1"/>
        <pt x="136" y="690" on="1"/>
        <pt x="235" y="164" on="1"/>
        <pt x="238" y="147" on="0"/>
        <pt x="247" y="76" on="1"/>
        <pt x="270" y="76" on="1"/>
        <pt x="275" y="119" on="0"/>
        <pt x="285" y="164" on="1"/>
        <pt x="384" y="657" on="1"/>
        <pt x="391" y="690" on="0"/>
        <pt x="422" y="690" on="1"/>
        <pt x="529" y="690" on="1"/>
        <pt x="543" y="690" on="0"/>
        <pt x="564" y="671" on="0"/>
        <pt x="567" y="657" on="1"/>
        <pt x="665" y="163" on="1"/>
        <pt x="673" y="123" on="0"/>
        <pt x="680" y="76" on="1"/>
        <pt x="703" y="76" on="1"/>
        <pt x="705" y="90" on="0"/>
        <pt x="713" y="148" on="0"/>
        <pt x="716" y="162" on="1"/>
        <pt x="815" y="690" on="1"/>
      </contour>
    </TTGlyph>
    <TTGlyph name="Wdieresis" xMin="30" yMin="0" xMax="921" yMax="872">
      <contour>
        <pt x="371" y="872" on="1"/>
        <pt x="404" y="872" on="1"/>
        <pt x="429" y="872" on="0"/>
        <pt x="429" y="845" on="1"/>
        <pt x="429" y="791" on="1"/>
        <pt x="429" y="764" on="0"/>
        <pt x="404" y="764" on="1"/>
        <pt x="371" y="764" on="1"/>
        <pt x="346" y="764" on="0"/>
        <pt x="346" y="791" on="1"/>
        <pt x="346" y="845" on="1"/>
        <pt x="346" y="872" on="0"/>
      </contour>
      <contour>
        <pt x="549" y="872" on="1"/>
        <pt x="581" y="872" on="1"/>
        <pt x="607" y="872" on="0"/>
        <pt x="607" y="845" on="1"/>
        <pt x="607" y="791" on="1"/>
        <pt x="607" y="764" on="0"/>
        <pt x="581" y="764" on="1"/>
        <pt x="549" y="764" on="1"/>
        <pt x="523" y="764" on="0"/>
        <pt x="523" y="791" on="1"/>
        <pt x="523" y="845" on="1"/>
        <pt x="523" y="872" on="0"/>
      </contour>
      <contour>
        <pt x="921" y="690" on="1"/>
        <pt x="789" y="29" on="1"/>
        <pt x="780" y="0" on="0"/>
        <pt x="750" y="0" on="1"/>
        <pt x="639" y="0" on="1"/>
        <pt x="607" y="0" on="0"/>
        <pt x="600" y="30" on="1"/>
        <pt x="500" y="537" on="1"/>
        <pt x="490" y="589" on="0"/>
        <pt x="486" y="615" on="1"/>
        <pt x="465" y="615" on="1"/>
        <pt x="450" y="537" on="1"/>
        <pt x="351" y="30" on="1"/>
        <pt x="349" y="17" on="0"/>
        <pt x="326" y="0" on="0"/>
        <pt x="312" y="0" on="1"/>
        <pt x="200" y="0" on="1"/>
        <pt x="169" y="0" on="0"/>
        <pt x="162" y="29" on="1"/>
        <pt x="30" y="690" on="1"/>
        <pt x="136" y="690" on="1"/>
        <pt x="235" y="164" on="1"/>
        <pt x="238" y="147" on="0"/>
        <pt x="247" y="76" on="1"/>
        <pt x="270" y="76" on="1"/>
        <pt x="275" y="119" on="0"/>
        <pt x="285" y="164" on="1"/>
        <pt x="384" y="657" on="1"/>
        <pt x="391" y="690" on="0"/>
        <pt x="422" y="690" on="1"/>
        <pt x="529" y="690" on="1"/>
        <pt x="543" y="690" on="0"/>
        <pt x="564" y="671" on="0"/>
        <pt x="567" y="657" on="1"/>
        <pt x="665" y="163" on="1"/>
        <pt x="673" y="123" on="0"/>
        <pt x="680" y="76" on="1"/>
        <pt x="703" y="76" on="1"/>
        <pt x="705" y="90" on="0"/>
        <pt x="713" y="148" on="0"/>
        <pt x="716" y="162" on="1"/>
        <pt x="815" y="690" on="1"/>
      </contour>
    </TTGlyph>
    <TTGlyph name="Wgrave" xMin="30" yMin="0" xMax="921" yMax="917">
      <contour>
        <pt x="528" y="770" on="1"/>
        <pt x="496" y="725" on="1"/>
        <pt x="297" y="842" on="1"/>
        <pt x="351" y="917" on="1"/>
      </contour>
      <contour>
        <pt x="921" y="690" on="1"/>
        <pt x="789" y="29" on="1"/>
        <pt x="780" y="0" on="0"/>
        <pt x="750" y="0" on="1"/>
        <pt x="639" y="0" on="1"/>
        <pt x="607" y="0" on="0"/>
        <pt x="600" y="30" on="1"/>
        <pt x="500" y="537" on="1"/>
        <pt x="490" y="589" on="0"/>
        <pt x="486" y="615" on="1"/>
        <pt x="465" y="615" on="1"/>
        <pt x="450" y="537" on="1"/>
        <pt x="351" y="30" on="1"/>
        <pt x="349" y="17" on="0"/>
        <pt x="326" y="0" on="0"/>
        <pt x="312" y="0" on="1"/>
        <pt x="200" y="0" on="1"/>
        <pt x="169" y="0" on="0"/>
        <pt x="162" y="29" on="1"/>
        <pt x="30" y="690" on="1"/>
        <pt x="136" y="690" on="1"/>
        <pt x="235" y="164" on="1"/>
        <pt x="238" y="147" on="0"/>
        <pt x="247" y="76" on="1"/>
        <pt x="270" y="76" on="1"/>
        <pt x="275" y="119" on="0"/>
        <pt x="285" y="164" on="1"/>
        <pt x="384" y="657" on="1"/>
        <pt x="391" y="690" on="0"/>
        <pt x="422" y="690" on="1"/>
        <pt x="529" y="690" on="1"/>
        <pt x="543" y="690" on="0"/>
        <pt x="564" y="671" on="0"/>
        <pt x="567" y="657" on="1"/>
        <pt x="665" y="163" on="1"/>
        <pt x="673" y="123" on="0"/>
        <pt x="680" y="76" on="1"/>
        <pt x="703" y="76" on="1"/>
        <pt x="705" y="90" on="0"/>
        <pt x="713" y="148" on="0"/>
        <pt x="716" y="162" on="1"/>
        <pt x="815" y="690" on="1"/>
      </contour>
    </TTGlyph>
    <TTGlyph name="X" xMin="22" yMin="0" xMax="592" yMax="690">
      <contour>
        <pt x="319" y="320" on="1"/>
        <pt x="295" y="320" on="1"/>
        <pt x="131" y="0" on="1"/>
        <pt x="22" y="0" on="1"/>
        <pt x="212" y="357" on="1"/>
        <pt x="35" y="690" on="1"/>
        <pt x="143" y="690" on="1"/>
        <pt x="294" y="396" on="1"/>
        <pt x="320" y="396" on="1"/>
        <pt x="471" y="690" on="1"/>
        <pt x="579" y="690" on="1"/>
        <pt x="402" y="357" on="1"/>
        <pt x="592" y="0" on="1"/>
        <pt x="483" y="0" on="1"/>
      </contour>
    </TTGlyph>
    <TTGlyph name="Y" xMin="9" yMin="0" xMax="564" yMax="690">
      <contour>
        <pt x="337" y="239" on="1"/>
        <pt x="337" y="0" on="1"/>
        <pt x="237" y="0" on="1"/>
        <pt x="237" y="240" on="1"/>
        <pt x="9" y="690" on="1"/>
        <pt x="115" y="690" on="1"/>
        <pt x="254" y="407" on="1"/>
        <pt x="262" y="390" on="0"/>
        <pt x="284" y="327" on="1"/>
        <pt x="291" y="327" on="1"/>
        <pt x="312" y="389" on="0"/>
        <pt x="321" y="406" on="1"/>
        <pt x="460" y="690" on="1"/>
        <pt x="564" y="690" on="1"/>
      </contour>
    </TTGlyph>
    <TTGlyph name="Yacute" xMin="9" yMin="0" xMax="564" yMax="917">
      <contour>
        <pt x="250" y="726" on="1"/>
        <pt x="218" y="771" on="1"/>
        <pt x="395" y="917" on="1"/>
        <pt x="449" y="843" on="1"/>
      </contour>
      <contour>
        <pt x="337" y="239" on="1"/>
        <pt x="337" y="0" on="1"/>
        <pt x="237" y="0" on="1"/>
        <pt x="237" y="240" on="1"/>
        <pt x="9" y="690" on="1"/>
        <pt x="115" y="690" on="1"/>
        <pt x="254" y="407" on="1"/>
        <pt x="262" y="390" on="0"/>
        <pt x="284" y="327" on="1"/>
        <pt x="291" y="327" on="1"/>
        <pt x="312" y="389" on="0"/>
        <pt x="321" y="406" on="1"/>
        <pt x="460" y="690" on="1"/>
        <pt x="564" y="690" on="1"/>
      </contour>
    </TTGlyph>
    <TTGlyph name="Ycircumflex" xMin="9" yMin="0" xMax="564" yMax="899">
      <contour>
        <pt x="152" y="729" on="1"/>
        <pt x="120" y="770" on="1"/>
        <pt x="251" y="899" on="1"/>
        <pt x="321" y="899" on="1"/>
        <pt x="453" y="770" on="1"/>
        <pt x="419" y="729" on="1"/>
        <pt x="290" y="825" on="1"/>
        <pt x="282" y="825" on="1"/>
      </contour>
      <contour>
        <pt x="337" y="239" on="1"/>
        <pt x="337" y="0" on="1"/>
        <pt x="237" y="0" on="1"/>
        <pt x="237" y="240" on="1"/>
        <pt x="9" y="690" on="1"/>
        <pt x="115" y="690" on="1"/>
        <pt x="254" y="407" on="1"/>
        <pt x="262" y="390" on="0"/>
        <pt x="284" y="327" on="1"/>
        <pt x="291" y="327" on="1"/>
        <pt x="312" y="389" on="0"/>
        <pt x="321" y="406" on="1"/>
        <pt x="460" y="690" on="1"/>
        <pt x="564" y="690" on="1"/>
      </contour>
    </TTGlyph>
    <TTGlyph name="Ydieresis" xMin="9" yMin="0" xMax="564" yMax="872">
      <contour>
        <pt x="214" y="765" on="1"/>
        <pt x="181" y="765" on="1"/>
        <pt x="156" y="765" on="0"/>
        <pt x="156" y="792" on="1"/>
        <pt x="156" y="846" on="1"/>
        <pt x="156" y="872" on="0"/>
        <pt x="181" y="872" on="1"/>
        <pt x="214" y="872" on="1"/>
        <pt x="240" y="872" on="0"/>
        <pt x="240" y="846" on="1"/>
        <pt x="240" y="792" on="1"/>
        <pt x="240" y="765" on="0"/>
      </contour>
      <contour>
        <pt x="391" y="765" on="1"/>
        <pt x="359" y="765" on="1"/>
        <pt x="333" y="765" on="0"/>
        <pt x="333" y="792" on="1"/>
        <pt x="333" y="846" on="1"/>
        <pt x="333" y="872" on="0"/>
        <pt x="359" y="872" on="1"/>
        <pt x="391" y="872" on="1"/>
        <pt x="418" y="872" on="0"/>
        <pt x="418" y="846" on="1"/>
        <pt x="418" y="792" on="1"/>
        <pt x="418" y="765" on="0"/>
      </contour>
      <contour>
        <pt x="337" y="239" on="1"/>
        <pt x="337" y="0" on="1"/>
        <pt x="237" y="0" on="1"/>
        <pt x="237" y="240" on="1"/>
        <pt x="9" y="690" on="1"/>
        <pt x="115" y="690" on="1"/>
        <pt x="254" y="407" on="1"/>
        <pt x="262" y="390" on="0"/>
        <pt x="284" y="327" on="1"/>
        <pt x="291" y="327" on="1"/>
        <pt x="312" y="389" on="0"/>
        <pt x="321" y="406" on="1"/>
        <pt x="460" y="690" on="1"/>
        <pt x="564" y="690" on="1"/>
      </contour>
    </TTGlyph>
    <TTGlyph name="Ygrave" xMin="9" yMin="0" xMax="564" yMax="917">
      <contour>
        <pt x="306" y="726" on="1"/>
        <pt x="107" y="843" on="1"/>
        <pt x="162" y="917" on="1"/>
        <pt x="338" y="771" on="1"/>
      </contour>
      <contour>
        <pt x="337" y="239" on="1"/>
        <pt x="337" y="0" on="1"/>
        <pt x="237" y="0" on="1"/>
        <pt x="237" y="240" on="1"/>
        <pt x="9" y="690" on="1"/>
        <pt x="115" y="690" on="1"/>
        <pt x="254" y="407" on="1"/>
        <pt x="262" y="390" on="0"/>
        <pt x="284" y="327" on="1"/>
        <pt x="291" y="327" on="1"/>
        <pt x="312" y="389" on="0"/>
        <pt x="321" y="406" on="1"/>
        <pt x="460" y="690" on="1"/>
        <pt x="564" y="690" on="1"/>
      </contour>
    </TTGlyph>
    <TTGlyph name="Z" xMin="48" yMin="0" xMax="521" yMax="690">
      <contour>
        <pt x="521" y="85" on="1"/>
        <pt x="521" y="0" on="1"/>
        <pt x="48" y="0" on="1"/>
        <pt x="48" y="85" on="1"/>
        <pt x="405" y="605" on="1"/>
        <pt x="53" y="605" on="1"/>
        <pt x="53" y="690" on="1"/>
        <pt x="514" y="690" on="1"/>
        <pt x="514" y="605" on="1"/>
        <pt x="158" y="85" on="1"/>
      </contour>
    </TTGlyph>
    <TTGlyph name="Zacute" xMin="48" yMin="0" xMax="521" yMax="917">
      <contour>
        <pt x="250" y="726" on="1"/>
        <pt x="218" y="771" on="1"/>
        <pt x="395" y="917" on="1"/>
        <pt x="449" y="843" on="1"/>
      </contour>
      <contour>
        <pt x="521" y="85" on="1"/>
        <pt x="521" y="0" on="1"/>
        <pt x="48" y="0" on="1"/>
        <pt x="48" y="85" on="1"/>
        <pt x="405" y="605" on="1"/>
        <pt x="53" y="605" on="1"/>
        <pt x="53" y="690" on="1"/>
        <pt x="514" y="690" on="1"/>
        <pt x="514" y="605" on="1"/>
        <pt x="158" y="85" on="1"/>
      </contour>
    </TTGlyph>
    <TTGlyph name="Zcaron" xMin="48" yMin="0" xMax="521" yMax="913">
      <contour>
        <pt x="266" y="743" on="1"/>
        <pt x="122" y="872" on="1"/>
        <pt x="154" y="913" on="1"/>
        <pt x="284" y="829" on="1"/>
        <pt x="292" y="829" on="1"/>
        <pt x="421" y="913" on="1"/>
        <pt x="455" y="872" on="1"/>
        <pt x="310" y="743" on="1"/>
      </contour>
      <contour>
        <pt x="521" y="85" on="1"/>
        <pt x="521" y="0" on="1"/>
        <pt x="48" y="0" on="1"/>
        <pt x="48" y="85" on="1"/>
        <pt x="405" y="605" on="1"/>
        <pt x="53" y="605" on="1"/>
        <pt x="53" y="690" on="1"/>
        <pt x="514" y="690" on="1"/>
        <pt x="514" y="605" on="1"/>
        <pt x="158" y="85" on="1"/>
      </contour>
    </TTGlyph>
    <TTGlyph name="Zdotaccent" xMin="48" yMin="0" xMax="521" yMax="869">
      <contour>
        <pt x="302" y="756" on="1"/>
        <pt x="271" y="756" on="1"/>
        <pt x="243" y="756" on="0"/>
        <pt x="243" y="784" on="1"/>
        <pt x="243" y="840" on="1"/>
        <pt x="243" y="869" on="0"/>
        <pt x="271" y="869" on="1"/>
        <pt x="302" y="869" on="1"/>
        <pt x="331" y="869" on="0"/>
        <pt x="331" y="840" on="1"/>
        <pt x="331" y="784" on="1"/>
        <pt x="331" y="756" on="0"/>
      </contour>
      <contour>
        <pt x="521" y="85" on="1"/>
        <pt x="521" y="0" on="1"/>
        <pt x="48" y="0" on="1"/>
        <pt x="48" y="85" on="1"/>
        <pt x="405" y="605" on="1"/>
        <pt x="53" y="605" on="1"/>
        <pt x="53" y="690" on="1"/>
        <pt x="514" y="690" on="1"/>
        <pt x="514" y="605" on="1"/>
        <pt x="158" y="85" on="1"/>
      </contour>
    </TTGlyph>
    <TTGlyph name="a" xMin="49" yMin="-9" xMax="480" yMax="501">
      <contour>
        <pt x="79" y="407" on="1"/>
        <pt x="70" y="478" on="1"/>
        <pt x="202" y="501" on="0"/>
        <pt x="307" y="501" on="1"/>
        <pt x="396" y="501" on="0"/>
        <pt x="480" y="429" on="0"/>
        <pt x="480" y="340" on="1"/>
        <pt x="480" y="0" on="1"/>
        <pt x="404" y="0" on="1"/>
        <pt x="393" y="77" on="1"/>
        <pt x="309" y="-9" on="0"/>
        <pt x="198" y="-9" on="1"/>
        <pt x="130" y="-9" on="0"/>
        <pt x="49" y="63" on="0"/>
        <pt x="49" y="129" on="1"/>
        <pt x="49" y="180" on="1"/>
        <pt x="49" y="238" on="0"/>
        <pt x="121" y="302" on="0"/>
        <pt x="187" y="302" on="1"/>
        <pt x="383" y="302" on="1"/>
        <pt x="383" y="340" on="1"/>
        <pt x="382" y="385" on="0"/>
        <pt x="342" y="419" on="0"/>
        <pt x="286" y="419" on="1"/>
        <pt x="231" y="419" on="0"/>
      </contour>
      <contour>
        <pt x="147" y="167" on="1"/>
        <pt x="147" y="141" on="1"/>
        <pt x="147" y="105" on="0"/>
        <pt x="181" y="73" on="0"/>
        <pt x="218" y="73" on="1"/>
        <pt x="305" y="73" on="0"/>
        <pt x="383" y="141" on="1"/>
        <pt x="383" y="229" on="1"/>
        <pt x="205" y="229" on="1"/>
        <pt x="173" y="228" on="0"/>
        <pt x="147" y="197" on="0"/>
      </contour>
    </TTGlyph>
    <TTGlyph name="aacute" xMin="49" yMin="-9" xMax="480" yMax="738">
      <contour>
        <pt x="233" y="547" on="1"/>
        <pt x="201" y="591" on="1"/>
        <pt x="378" y="738" on="1"/>
        <pt x="432" y="664" on="1"/>
      </contour>
      <contour>
        <pt x="79" y="407" on="1"/>
        <pt x="70" y="478" on="1"/>
        <pt x="202" y="501" on="0"/>
        <pt x="307" y="501" on="1"/>
        <pt x="396" y="501" on="0"/>
        <pt x="480" y="429" on="0"/>
        <pt x="480" y="340" on="1"/>
        <pt x="480" y="0" on="1"/>
        <pt x="404" y="0" on="1"/>
        <pt x="393" y="77" on="1"/>
        <pt x="309" y="-9" on="0"/>
        <pt x="198" y="-9" on="1"/>
        <pt x="130" y="-9" on="0"/>
        <pt x="49" y="63" on="0"/>
        <pt x="49" y="129" on="1"/>
        <pt x="49" y="180" on="1"/>
        <pt x="49" y="238" on="0"/>
        <pt x="121" y="302" on="0"/>
        <pt x="187" y="302" on="1"/>
        <pt x="383" y="302" on="1"/>
        <pt x="383" y="340" on="1"/>
        <pt x="382" y="385" on="0"/>
        <pt x="342" y="419" on="0"/>
        <pt x="286" y="419" on="1"/>
        <pt x="231" y="419" on="0"/>
      </contour>
      <contour>
        <pt x="147" y="167" on="1"/>
        <pt x="147" y="141" on="1"/>
        <pt x="147" y="105" on="0"/>
        <pt x="181" y="73" on="0"/>
        <pt x="218" y="73" on="1"/>
        <pt x="305" y="73" on="0"/>
        <pt x="383" y="141" on="1"/>
        <pt x="383" y="229" on="1"/>
        <pt x="205" y="229" on="1"/>
        <pt x="173" y="228" on="0"/>
        <pt x="147" y="197" on="0"/>
      </contour>
    </TTGlyph>
    <TTGlyph name="abreve" xMin="49" yMin="-9" xMax="480" yMax="706">
      <contour>
        <pt x="373" y="706" on="1"/>
        <pt x="421" y="699" on="1"/>
        <pt x="426" y="639" on="0"/>
        <pt x="343" y="564" on="0"/>
        <pt x="270" y="564" on="1"/>
        <pt x="196" y="564" on="0"/>
        <pt x="111" y="639" on="0"/>
        <pt x="116" y="699" on="1"/>
        <pt x="165" y="706" on="1"/>
        <pt x="165" y="635" on="0"/>
        <pt x="270" y="635" on="1"/>
        <pt x="319" y="635" on="0"/>
        <pt x="373" y="672" on="0"/>
      </contour>
      <contour>
        <pt x="79" y="407" on="1"/>
        <pt x="70" y="478" on="1"/>
        <pt x="202" y="501" on="0"/>
        <pt x="307" y="501" on="1"/>
        <pt x="396" y="501" on="0"/>
        <pt x="480" y="429" on="0"/>
        <pt x="480" y="340" on="1"/>
        <pt x="480" y="0" on="1"/>
        <pt x="404" y="0" on="1"/>
        <pt x="393" y="77" on="1"/>
        <pt x="309" y="-9" on="0"/>
        <pt x="198" y="-9" on="1"/>
        <pt x="130" y="-9" on="0"/>
        <pt x="49" y="63" on="0"/>
        <pt x="49" y="129" on="1"/>
        <pt x="49" y="180" on="1"/>
        <pt x="49" y="238" on="0"/>
        <pt x="121" y="302" on="0"/>
        <pt x="187" y="302" on="1"/>
        <pt x="383" y="302" on="1"/>
        <pt x="383" y="340" on="1"/>
        <pt x="382" y="385" on="0"/>
        <pt x="342" y="419" on="0"/>
        <pt x="286" y="419" on="1"/>
        <pt x="231" y="419" on="0"/>
      </contour>
      <contour>
        <pt x="147" y="167" on="1"/>
        <pt x="147" y="141" on="1"/>
        <pt x="147" y="105" on="0"/>
        <pt x="181" y="73" on="0"/>
        <pt x="218" y="73" on="1"/>
        <pt x="305" y="73" on="0"/>
        <pt x="383" y="141" on="1"/>
        <pt x="383" y="229" on="1"/>
        <pt x="205" y="229" on="1"/>
        <pt x="173" y="228" on="0"/>
        <pt x="147" y="197" on="0"/>
      </contour>
    </TTGlyph>
    <TTGlyph name="acircumflex" xMin="49" yMin="-9" xMax="480" yMax="720">
      <contour>
        <pt x="135" y="549" on="1"/>
        <pt x="103" y="591" on="1"/>
        <pt x="234" y="720" on="1"/>
        <pt x="304" y="720" on="1"/>
        <pt x="436" y="591" on="1"/>
        <pt x="402" y="549" on="1"/>
        <pt x="273" y="646" on="1"/>
        <pt x="265" y="646" on="1"/>
      </contour>
      <contour>
        <pt x="79" y="407" on="1"/>
        <pt x="70" y="478" on="1"/>
        <pt x="202" y="501" on="0"/>
        <pt x="307" y="501" on="1"/>
        <pt x="396" y="501" on="0"/>
        <pt x="480" y="429" on="0"/>
        <pt x="480" y="340" on="1"/>
        <pt x="480" y="0" on="1"/>
        <pt x="404" y="0" on="1"/>
        <pt x="393" y="77" on="1"/>
        <pt x="309" y="-9" on="0"/>
        <pt x="198" y="-9" on="1"/>
        <pt x="130" y="-9" on="0"/>
        <pt x="49" y="63" on="0"/>
        <pt x="49" y="129" on="1"/>
        <pt x="49" y="180" on="1"/>
        <pt x="49" y="238" on="0"/>
        <pt x="121" y="302" on="0"/>
        <pt x="187" y="302" on="1"/>
        <pt x="383" y="302" on="1"/>
        <pt x="383" y="340" on="1"/>
        <pt x="382" y="385" on="0"/>
        <pt x="342" y="419" on="0"/>
        <pt x="286" y="419" on="1"/>
        <pt x="231" y="419" on="0"/>
      </contour>
      <contour>
        <pt x="147" y="167" on="1"/>
        <pt x="147" y="141" on="1"/>
        <pt x="147" y="105" on="0"/>
        <pt x="181" y="73" on="0"/>
        <pt x="218" y="73" on="1"/>
        <pt x="305" y="73" on="0"/>
        <pt x="383" y="141" on="1"/>
        <pt x="383" y="229" on="1"/>
        <pt x="205" y="229" on="1"/>
        <pt x="173" y="228" on="0"/>
        <pt x="147" y="197" on="0"/>
      </contour>
    </TTGlyph>
    <TTGlyph name="acute" xMin="54" yMin="535" xMax="285" yMax="726">
      <contour>
        <pt x="285" y="652" on="1"/>
        <pt x="86" y="535" on="1"/>
        <pt x="54" y="580" on="1"/>
        <pt x="231" y="726" on="1"/>
      </contour>
    </TTGlyph>
    <TTGlyph name="adieresis" xMin="49" yMin="-9" xMax="480" yMax="693">
      <contour>
        <pt x="197" y="585" on="1"/>
        <pt x="164" y="585" on="1"/>
        <pt x="139" y="585" on="0"/>
        <pt x="139" y="612" on="1"/>
        <pt x="139" y="666" on="1"/>
        <pt x="139" y="693" on="0"/>
        <pt x="164" y="693" on="1"/>
        <pt x="197" y="693" on="1"/>
        <pt x="223" y="693" on="0"/>
        <pt x="223" y="666" on="1"/>
        <pt x="223" y="612" on="1"/>
        <pt x="223" y="585" on="0"/>
      </contour>
      <contour>
        <pt x="374" y="585" on="1"/>
        <pt x="342" y="585" on="1"/>
        <pt x="316" y="585" on="0"/>
        <pt x="316" y="612" on="1"/>
        <pt x="316" y="666" on="1"/>
        <pt x="316" y="693" on="0"/>
        <pt x="342" y="693" on="1"/>
        <pt x="374" y="693" on="1"/>
        <pt x="401" y="693" on="0"/>
        <pt x="401" y="666" on="1"/>
        <pt x="401" y="612" on="1"/>
        <pt x="401" y="585" on="0"/>
      </contour>
      <contour>
        <pt x="79" y="407" on="1"/>
        <pt x="70" y="478" on="1"/>
        <pt x="202" y="501" on="0"/>
        <pt x="307" y="501" on="1"/>
        <pt x="396" y="501" on="0"/>
        <pt x="480" y="429" on="0"/>
        <pt x="480" y="340" on="1"/>
        <pt x="480" y="0" on="1"/>
        <pt x="404" y="0" on="1"/>
        <pt x="393" y="77" on="1"/>
        <pt x="309" y="-9" on="0"/>
        <pt x="198" y="-9" on="1"/>
        <pt x="130" y="-9" on="0"/>
        <pt x="49" y="63" on="0"/>
        <pt x="49" y="129" on="1"/>
        <pt x="49" y="180" on="1"/>
        <pt x="49" y="238" on="0"/>
        <pt x="121" y="302" on="0"/>
        <pt x="187" y="302" on="1"/>
        <pt x="383" y="302" on="1"/>
        <pt x="383" y="340" on="1"/>
        <pt x="382" y="385" on="0"/>
        <pt x="342" y="419" on="0"/>
        <pt x="286" y="419" on="1"/>
        <pt x="231" y="419" on="0"/>
      </contour>
      <contour>
        <pt x="147" y="167" on="1"/>
        <pt x="147" y="141" on="1"/>
        <pt x="147" y="105" on="0"/>
        <pt x="181" y="73" on="0"/>
        <pt x="218" y="73" on="1"/>
        <pt x="305" y="73" on="0"/>
        <pt x="383" y="141" on="1"/>
        <pt x="383" y="229" on="1"/>
        <pt x="205" y="229" on="1"/>
        <pt x="173" y="228" on="0"/>
        <pt x="147" y="197" on="0"/>
      </contour>
    </TTGlyph>
    <TTGlyph name="ae" xMin="49" yMin="-12" xMax="822" yMax="501">
      <contour>
        <pt x="699" y="197" on="1"/>
        <pt x="485" y="197" on="1"/>
        <pt x="491" y="121" on="0"/>
        <pt x="556" y="69" on="0"/>
        <pt x="630" y="69" on="1"/>
        <pt x="697" y="69" on="0"/>
        <pt x="801" y="81" on="1"/>
        <pt x="810" y="17" on="1"/>
        <pt x="745" y="-12" on="0"/>
        <pt x="618" y="-12" on="1"/>
        <pt x="533" y="-12" on="0"/>
        <pt x="432" y="37" on="0"/>
        <pt x="407" y="91" on="1"/>
        <pt x="375" y="53" on="0"/>
        <pt x="265" y="-9" on="0"/>
        <pt x="198" y="-9" on="1"/>
        <pt x="130" y="-9" on="0"/>
        <pt x="49" y="63" on="0"/>
        <pt x="49" y="129" on="1"/>
        <pt x="49" y="180" on="1"/>
        <pt x="49" y="238" on="0"/>
        <pt x="121" y="302" on="0"/>
        <pt x="187" y="302" on="1"/>
        <pt x="383" y="302" on="1"/>
        <pt x="383" y="340" on="1"/>
        <pt x="383" y="385" on="0"/>
        <pt x="342" y="419" on="0"/>
        <pt x="286" y="419" on="1"/>
        <pt x="231" y="419" on="0"/>
        <pt x="79" y="407" on="1"/>
        <pt x="70" y="478" on="1"/>
        <pt x="202" y="501" on="0"/>
        <pt x="307" y="501" on="1"/>
        <pt x="407" y="501" on="0"/>
        <pt x="447" y="456" on="1"/>
        <pt x="499" y="501" on="0"/>
        <pt x="609" y="501" on="1"/>
        <pt x="720" y="501" on="0"/>
        <pt x="822" y="419" on="0"/>
        <pt x="822" y="337" on="1"/>
        <pt x="824" y="197" on="0"/>
      </contour>
      <contour>
        <pt x="483" y="272" on="1"/>
        <pt x="672" y="272" on="1"/>
        <pt x="725" y="272" on="0"/>
        <pt x="725" y="337" on="1"/>
        <pt x="725" y="381" on="0"/>
        <pt x="675" y="419" on="0"/>
        <pt x="613" y="419" on="1"/>
        <pt x="541" y="419" on="0"/>
        <pt x="485" y="358" on="0"/>
      </contour>
      <contour>
        <pt x="147" y="167" on="1"/>
        <pt x="147" y="141" on="1"/>
        <pt x="147" y="105" on="0"/>
        <pt x="181" y="73" on="0"/>
        <pt x="218" y="73" on="1"/>
        <pt x="256" y="73" on="0"/>
        <pt x="350" y="110" on="0"/>
        <pt x="390" y="147" on="1"/>
        <pt x="383" y="187" on="0"/>
        <pt x="382" y="229" on="1"/>
        <pt x="205" y="229" on="1"/>
        <pt x="173" y="228" on="0"/>
        <pt x="147" y="197" on="0"/>
      </contour>
    </TTGlyph>
    <TTGlyph name="agrave" xMin="49" yMin="-9" xMax="480" yMax="738">
      <contour>
        <pt x="289" y="547" on="1"/>
        <pt x="90" y="664" on="1"/>
        <pt x="144" y="738" on="1"/>
        <pt x="321" y="591" on="1"/>
      </contour>
      <contour>
        <pt x="79" y="407" on="1"/>
        <pt x="70" y="478" on="1"/>
        <pt x="202" y="501" on="0"/>
        <pt x="307" y="501" on="1"/>
        <pt x="396" y="501" on="0"/>
        <pt x="480" y="429" on="0"/>
        <pt x="480" y="340" on="1"/>
        <pt x="480" y="0" on="1"/>
        <pt x="404" y="0" on="1"/>
        <pt x="393" y="77" on="1"/>
        <pt x="309" y="-9" on="0"/>
        <pt x="198" y="-9" on="1"/>
        <pt x="130" y="-9" on="0"/>
        <pt x="49" y="63" on="0"/>
        <pt x="49" y="129" on="1"/>
        <pt x="49" y="180" on="1"/>
        <pt x="49" y="238" on="0"/>
        <pt x="121" y="302" on="0"/>
        <pt x="187" y="302" on="1"/>
        <pt x="383" y="302" on="1"/>
        <pt x="383" y="340" on="1"/>
        <pt x="382" y="385" on="0"/>
        <pt x="342" y="419" on="0"/>
        <pt x="286" y="419" on="1"/>
        <pt x="231" y="419" on="0"/>
      </contour>
      <contour>
        <pt x="147" y="167" on="1"/>
        <pt x="147" y="141" on="1"/>
        <pt x="147" y="105" on="0"/>
        <pt x="181" y="73" on="0"/>
        <pt x="218" y="73" on="1"/>
        <pt x="305" y="73" on="0"/>
        <pt x="383" y="141" on="1"/>
        <pt x="383" y="229" on="1"/>
        <pt x="205" y="229" on="1"/>
        <pt x="173" y="228" on="0"/>
        <pt x="147" y="197" on="0"/>
      </contour>
    </TTGlyph>
    <TTGlyph name="amacron" xMin="49" yMin="-9" xMax="480" yMax="674">
      <contour>
        <pt x="411" y="603" on="1"/>
        <pt x="128" y="603" on="1"/>
        <pt x="128" y="674" on="1"/>
        <pt x="411" y="674" on="1"/>
      </contour>
      <contour>
        <pt x="79" y="407" on="1"/>
        <pt x="70" y="478" on="1"/>
        <pt x="202" y="501" on="0"/>
        <pt x="307" y="501" on="1"/>
        <pt x="396" y="501" on="0"/>
        <pt x="480" y="429" on="0"/>
        <pt x="480" y="340" on="1"/>
        <pt x="480" y="0" on="1"/>
        <pt x="404" y="0" on="1"/>
        <pt x="393" y="77" on="1"/>
        <pt x="309" y="-9" on="0"/>
        <pt x="198" y="-9" on="1"/>
        <pt x="130" y="-9" on="0"/>
        <pt x="49" y="63" on="0"/>
        <pt x="49" y="129" on="1"/>
        <pt x="49" y="180" on="1"/>
        <pt x="49" y="238" on="0"/>
        <pt x="121" y="302" on="0"/>
        <pt x="187" y="302" on="1"/>
        <pt x="383" y="302" on="1"/>
        <pt x="383" y="340" on="1"/>
        <pt x="382" y="385" on="0"/>
        <pt x="342" y="419" on="0"/>
        <pt x="286" y="419" on="1"/>
        <pt x="231" y="419" on="0"/>
      </contour>
      <contour>
        <pt x="147" y="167" on="1"/>
        <pt x="147" y="141" on="1"/>
        <pt x="147" y="105" on="0"/>
        <pt x="181" y="73" on="0"/>
        <pt x="218" y="73" on="1"/>
        <pt x="305" y="73" on="0"/>
        <pt x="383" y="141" on="1"/>
        <pt x="383" y="229" on="1"/>
        <pt x="205" y="229" on="1"/>
        <pt x="173" y="228" on="0"/>
        <pt x="147" y="197" on="0"/>
      </contour>
    </TTGlyph>
    <TTGlyph name="ampersand" xMin="64" yMin="-11" xMax="724" yMax="701">
      <contour>
        <pt x="713" y="75" on="1"/>
        <pt x="724" y="4" on="1"/>
        <pt x="679" y="-9" on="0"/>
        <pt x="615" y="-9" on="1"/>
        <pt x="513" y="-9" on="0"/>
        <pt x="494" y="73" on="1"/>
        <pt x="450" y="27" on="0"/>
        <pt x="345" y="-11" on="0"/>
        <pt x="267" y="-11" on="1"/>
        <pt x="157" y="-11" on="0"/>
        <pt x="64" y="72" on="0"/>
        <pt x="64" y="175" on="1"/>
        <pt x="64" y="258" on="0"/>
        <pt x="127" y="350" on="0"/>
        <pt x="200" y="356" on="1"/>
        <pt x="200" y="360" on="1"/>
        <pt x="138" y="366" on="0"/>
        <pt x="84" y="444" on="0"/>
        <pt x="84" y="521" on="1"/>
        <pt x="84" y="569" on="0"/>
        <pt x="105" y="634" on="0"/>
        <pt x="141" y="673" on="0"/>
        <pt x="209" y="694" on="0"/>
        <pt x="286" y="701" on="0"/>
        <pt x="346" y="701" on="1"/>
        <pt x="439" y="701" on="0"/>
        <pt x="506" y="690" on="1"/>
        <pt x="494" y="615" on="1"/>
        <pt x="452" y="618" on="0"/>
        <pt x="343" y="618" on="1"/>
        <pt x="250" y="618" on="0"/>
        <pt x="186" y="577" on="0"/>
        <pt x="186" y="507" on="1"/>
        <pt x="186" y="441" on="0"/>
        <pt x="240" y="395" on="0"/>
        <pt x="312" y="395" on="1"/>
        <pt x="492" y="395" on="1"/>
        <pt x="500" y="518" on="1"/>
        <pt x="581" y="518" on="1"/>
        <pt x="581" y="395" on="1"/>
        <pt x="703" y="395" on="1"/>
        <pt x="703" y="319" on="1"/>
        <pt x="581" y="319" on="1"/>
        <pt x="581" y="138" on="1"/>
        <pt x="581" y="103" on="0"/>
        <pt x="608" y="75" on="0"/>
        <pt x="642" y="75" on="1"/>
      </contour>
      <contour>
        <pt x="490" y="319" on="1"/>
        <pt x="306" y="319" on="1"/>
        <pt x="229" y="319" on="0"/>
        <pt x="170" y="266" on="0"/>
        <pt x="170" y="192" on="1"/>
        <pt x="170" y="125" on="0"/>
        <pt x="222" y="76" on="0"/>
        <pt x="292" y="76" on="1"/>
        <pt x="417" y="77" on="0"/>
        <pt x="490" y="148" on="1"/>
      </contour>
    </TTGlyph>
    <TTGlyph name="aogonek" xMin="49" yMin="-212" xMax="496" yMax="501">
      <contour>
        <pt x="484" y="-153" on="1"/>
        <pt x="496" y="-193" on="1"/>
        <pt x="431" y="-219" on="0"/>
        <pt x="354" y="-205" on="0"/>
        <pt x="328" y="-152" on="0"/>
        <pt x="341" y="-116" on="1"/>
        <pt x="363" y="-57" on="0"/>
        <pt x="435" y="0" on="1"/>
        <pt x="404" y="0" on="1"/>
        <pt x="393" y="77" on="1"/>
        <pt x="309" y="-9" on="0"/>
        <pt x="198" y="-9" on="1"/>
        <pt x="130" y="-9" on="0"/>
        <pt x="49" y="63" on="0"/>
        <pt x="49" y="129" on="1"/>
        <pt x="49" y="180" on="1"/>
        <pt x="49" y="238" on="0"/>
        <pt x="121" y="302" on="0"/>
        <pt x="187" y="302" on="1"/>
        <pt x="383" y="302" on="1"/>
        <pt x="383" y="340" on="1"/>
        <pt x="382" y="385" on="0"/>
        <pt x="342" y="419" on="0"/>
        <pt x="286" y="419" on="1"/>
        <pt x="231" y="419" on="0"/>
        <pt x="79" y="407" on="1"/>
        <pt x="70" y="478" on="1"/>
        <pt x="202" y="501" on="0"/>
        <pt x="307" y="501" on="1"/>
        <pt x="396" y="501" on="0"/>
        <pt x="480" y="429" on="0"/>
        <pt x="480" y="340" on="1"/>
        <pt x="480" y="0" on="1"/>
        <pt x="428" y="-61" on="0"/>
        <pt x="409" y="-111" on="1"/>
        <pt x="394" y="-146" on="0"/>
        <pt x="438" y="-168" on="0"/>
      </contour>
      <contour>
        <pt x="147" y="167" on="1"/>
        <pt x="147" y="141" on="1"/>
        <pt x="147" y="105" on="0"/>
        <pt x="181" y="73" on="0"/>
        <pt x="218" y="73" on="1"/>
        <pt x="305" y="73" on="0"/>
        <pt x="383" y="141" on="1"/>
        <pt x="383" y="229" on="1"/>
        <pt x="205" y="229" on="1"/>
        <pt x="173" y="228" on="0"/>
        <pt x="147" y="197" on="0"/>
      </contour>
    </TTGlyph>
    <TTGlyph name="approxequal" xMin="75" yMin="129" xMax="512" yMax="450">
      <contour>
        <pt x="139" y="324" on="1"/>
        <pt x="75" y="324" on="1"/>
        <pt x="65" y="390" on="0"/>
        <pt x="120" y="452" on="0"/>
        <pt x="174" y="450" on="1"/>
        <pt x="207" y="449" on="0"/>
        <pt x="371" y="395" on="0"/>
        <pt x="406" y="393" on="1"/>
        <pt x="430" y="392" on="0"/>
        <pt x="447" y="413" on="0"/>
        <pt x="447" y="445" on="1"/>
        <pt x="512" y="445" on="1"/>
        <pt x="521" y="382" on="0"/>
        <pt x="470" y="319" on="0"/>
        <pt x="410" y="320" on="1"/>
        <pt x="373" y="321" on="0"/>
        <pt x="211" y="377" on="0"/>
        <pt x="180" y="378" on="1"/>
        <pt x="157" y="379" on="0"/>
        <pt x="139" y="356" on="0"/>
      </contour>
      <contour>
        <pt x="139" y="132" on="1"/>
        <pt x="75" y="132" on="1"/>
        <pt x="65" y="199" on="0"/>
        <pt x="120" y="261" on="0"/>
        <pt x="174" y="259" on="1"/>
        <pt x="207" y="258" on="0"/>
        <pt x="371" y="203" on="0"/>
        <pt x="406" y="201" on="1"/>
        <pt x="430" y="200" on="0"/>
        <pt x="447" y="222" on="0"/>
        <pt x="447" y="253" on="1"/>
        <pt x="512" y="253" on="1"/>
        <pt x="521" y="190" on="0"/>
        <pt x="470" y="128" on="0"/>
        <pt x="410" y="129" on="1"/>
        <pt x="373" y="130" on="0"/>
        <pt x="211" y="185" on="0"/>
        <pt x="180" y="186" on="1"/>
        <pt x="156" y="187" on="0"/>
        <pt x="139" y="165" on="0"/>
      </contour>
    </TTGlyph>
    <TTGlyph name="aring" xMin="49" yMin="-9" xMax="480" yMax="748">
      <contour>
        <pt x="270" y="534" on="1"/>
        <pt x="224" y="534" on="0"/>
        <pt x="161" y="595" on="0"/>
        <pt x="161" y="641" on="1"/>
        <pt x="161" y="686" on="0"/>
        <pt x="225" y="748" on="0"/>
        <pt x="315" y="748" on="0"/>
        <pt x="379" y="686" on="0"/>
        <pt x="379" y="596" on="0"/>
        <pt x="315" y="534" on="0"/>
      </contour>
      <contour>
        <pt x="270" y="699" on="1"/>
        <pt x="245" y="699" on="0"/>
        <pt x="213" y="668" on="0"/>
        <pt x="213" y="641" on="1"/>
        <pt x="213" y="615" on="0"/>
        <pt x="245" y="583" on="0"/>
        <pt x="270" y="583" on="1"/>
        <pt x="294" y="583" on="0"/>
        <pt x="326" y="615" on="0"/>
        <pt x="326" y="667" on="0"/>
        <pt x="294" y="699" on="0"/>
      </contour>
      <contour>
        <pt x="79" y="407" on="1"/>
        <pt x="70" y="478" on="1"/>
        <pt x="202" y="501" on="0"/>
        <pt x="307" y="501" on="1"/>
        <pt x="396" y="501" on="0"/>
        <pt x="480" y="429" on="0"/>
        <pt x="480" y="340" on="1"/>
        <pt x="480" y="0" on="1"/>
        <pt x="404" y="0" on="1"/>
        <pt x="393" y="77" on="1"/>
        <pt x="309" y="-9" on="0"/>
        <pt x="198" y="-9" on="1"/>
        <pt x="130" y="-9" on="0"/>
        <pt x="49" y="63" on="0"/>
        <pt x="49" y="129" on="1"/>
        <pt x="49" y="180" on="1"/>
        <pt x="49" y="238" on="0"/>
        <pt x="121" y="302" on="0"/>
        <pt x="187" y="302" on="1"/>
        <pt x="383" y="302" on="1"/>
        <pt x="383" y="340" on="1"/>
        <pt x="382" y="385" on="0"/>
        <pt x="342" y="419" on="0"/>
        <pt x="286" y="419" on="1"/>
        <pt x="231" y="419" on="0"/>
      </contour>
      <contour>
        <pt x="147" y="167" on="1"/>
        <pt x="147" y="141" on="1"/>
        <pt x="147" y="105" on="0"/>
        <pt x="181" y="73" on="0"/>
        <pt x="218" y="73" on="1"/>
        <pt x="305" y="73" on="0"/>
        <pt x="383" y="141" on="1"/>
        <pt x="383" y="229" on="1"/>
        <pt x="205" y="229" on="1"/>
        <pt x="173" y="228" on="0"/>
        <pt x="147" y="197" on="0"/>
      </contour>
    </TTGlyph>
    <TTGlyph name="asciicircum" xMin="30" yMin="368" xMax="403" yMax="605">
      <contour>
        <pt x="403" y="392" on="1"/>
        <pt x="364" y="368" on="1"/>
        <pt x="221" y="541" on="1"/>
        <pt x="213" y="541" on="1"/>
        <pt x="69" y="368" on="1"/>
        <pt x="30" y="392" on="1"/>
        <pt x="182" y="605" on="1"/>
        <pt x="252" y="605" on="1"/>
      </contour>
    </TTGlyph>
    <TTGlyph name="asciitilde" xMin="75" yMin="223" xMax="450" yMax="351">
      <contour>
        <pt x="124" y="225" on="1"/>
        <pt x="75" y="225" on="1"/>
        <pt x="67" y="288" on="0"/>
        <pt x="112" y="353" on="0"/>
        <pt x="152" y="351" on="1"/>
        <pt x="188" y="349" on="0"/>
        <pt x="332" y="297" on="0"/>
        <pt x="382" y="291" on="0"/>
        <pt x="400" y="315" on="0"/>
        <pt x="400" y="346" on="1"/>
        <pt x="450" y="346" on="1"/>
        <pt x="457" y="285" on="0"/>
        <pt x="413" y="220" on="0"/>
        <pt x="372" y="223" on="1"/>
        <pt x="331" y="225" on="0"/>
        <pt x="189" y="277" on="0"/>
        <pt x="166" y="279" on="1"/>
        <pt x="141" y="282" on="0"/>
        <pt x="124" y="257" on="0"/>
      </contour>
    </TTGlyph>
    <TTGlyph name="asterisk" xMin="50" yMin="366" xMax="399" yMax="691">
      <contour>
        <pt x="244" y="529" on="1"/>
        <pt x="346" y="400" on="1"/>
        <pt x="300" y="366" on="1"/>
        <pt x="224" y="490" on="1"/>
        <pt x="149" y="367" on="1"/>
        <pt x="102" y="401" on="1"/>
        <pt x="204" y="529" on="1"/>
        <pt x="196" y="691" on="1"/>
        <pt x="254" y="691" on="1"/>
      </contour>
      <contour>
        <pt x="186" y="557" on="1"/>
        <pt x="186" y="532" on="1"/>
        <pt x="174" y="516" on="1"/>
        <pt x="50" y="549" on="1"/>
        <pt x="69" y="603" on="1"/>
      </contour>
      <contour>
        <pt x="399" y="548" on="1"/>
        <pt x="275" y="516" on="1"/>
        <pt x="262" y="532" on="1"/>
        <pt x="262" y="557" on="1"/>
        <pt x="381" y="603" on="1"/>
      </contour>
    </TTGlyph>
    <TTGlyph name="at" xMin="71" yMin="-60" xMax="653" yMax="588">
      <contour>
        <pt x="354" y="588" on="1"/>
        <pt x="499" y="588" on="1"/>
        <pt x="575" y="588" on="0"/>
        <pt x="653" y="519" on="0"/>
        <pt x="653" y="441" on="1"/>
        <pt x="653" y="132" on="1"/>
        <pt x="581" y="132" on="1"/>
        <pt x="571" y="207" on="1"/>
        <pt x="540" y="175" on="0"/>
        <pt x="435" y="124" on="0"/>
        <pt x="379" y="124" on="1"/>
        <pt x="319" y="124" on="0"/>
        <pt x="247" y="187" on="0"/>
        <pt x="247" y="246" on="1"/>
        <pt x="247" y="296" on="1"/>
        <pt x="247" y="346" on="0"/>
        <pt x="305" y="400" on="0"/>
        <pt x="362" y="400" on="1"/>
        <pt x="562" y="400" on="1"/>
        <pt x="562" y="438" on="1"/>
        <pt x="562" y="478" on="0"/>
        <pt x="527" y="508" on="0"/>
        <pt x="480" y="508" on="1"/>
        <pt x="355" y="508" on="1"/>
        <pt x="306" y="508" on="0"/>
        <pt x="256" y="505" on="0"/>
        <pt x="205" y="488" on="0"/>
        <pt x="185" y="461" on="0"/>
        <pt x="167" y="402" on="0"/>
        <pt x="163" y="328" on="0"/>
        <pt x="163" y="267" on="1"/>
        <pt x="163" y="219" on="0"/>
        <pt x="165" y="156" on="0"/>
        <pt x="176" y="99" on="0"/>
        <pt x="186" y="68" on="0"/>
        <pt x="216" y="41" on="0"/>
        <pt x="241" y="30" on="0"/>
        <pt x="298" y="22" on="0"/>
        <pt x="345" y="21" on="0"/>
        <pt x="390" y="21" on="1"/>
        <pt x="651" y="21" on="1"/>
        <pt x="651" y="-51" on="1"/>
        <pt x="496" y="-60" on="0"/>
        <pt x="391" y="-60" on="1"/>
        <pt x="314" y="-61" on="0"/>
        <pt x="220" y="-54" on="0"/>
        <pt x="142" y="-26" on="0"/>
        <pt x="104" y="13" on="0"/>
        <pt x="78" y="94" on="0"/>
        <pt x="71" y="189" on="0"/>
        <pt x="71" y="267" on="1"/>
        <pt x="71" y="343" on="0"/>
        <pt x="77" y="435" on="0"/>
        <pt x="100" y="514" on="0"/>
        <pt x="134" y="553" on="0"/>
        <pt x="203" y="580" on="0"/>
        <pt x="286" y="588" on="0"/>
      </contour>
      <contour>
        <pt x="562" y="341" on="1"/>
        <pt x="396" y="337" on="1"/>
        <pt x="362" y="336" on="0"/>
        <pt x="337" y="313" on="0"/>
        <pt x="337" y="284" on="1"/>
        <pt x="337" y="263" on="1"/>
        <pt x="337" y="201" on="0"/>
        <pt x="398" y="201" on="1"/>
        <pt x="440" y="201" on="0"/>
        <pt x="531" y="234" on="0"/>
        <pt x="562" y="263" on="1"/>
      </contour>
    </TTGlyph>
    <TTGlyph name="atilde" xMin="49" yMin="-9" xMax="480" yMax="703">
      <contour>
        <pt x="153" y="584" on="1"/>
        <pt x="109" y="584" on="1"/>
        <pt x="102" y="643" on="0"/>
        <pt x="148" y="706" on="0"/>
        <pt x="187" y="703" on="1"/>
        <pt x="220" y="700" on="0"/>
        <pt x="312" y="653" on="0"/>
        <pt x="339" y="650" on="1"/>
        <pt x="365" y="646" on="0"/>
        <pt x="385" y="670" on="0"/>
        <pt x="385" y="698" on="1"/>
        <pt x="429" y="698" on="1"/>
        <pt x="436" y="640" on="0"/>
        <pt x="392" y="578" on="0"/>
        <pt x="351" y="581" on="1"/>
        <pt x="314" y="584" on="0"/>
        <pt x="219" y="633" on="0"/>
        <pt x="199" y="636" on="1"/>
        <pt x="172" y="639" on="0"/>
        <pt x="153" y="614" on="0"/>
      </contour>
      <contour>
        <pt x="79" y="407" on="1"/>
        <pt x="70" y="478" on="1"/>
        <pt x="202" y="501" on="0"/>
        <pt x="307" y="501" on="1"/>
        <pt x="396" y="501" on="0"/>
        <pt x="480" y="429" on="0"/>
        <pt x="480" y="340" on="1"/>
        <pt x="480" y="0" on="1"/>
        <pt x="404" y="0" on="1"/>
        <pt x="393" y="77" on="1"/>
        <pt x="309" y="-9" on="0"/>
        <pt x="198" y="-9" on="1"/>
        <pt x="130" y="-9" on="0"/>
        <pt x="49" y="63" on="0"/>
        <pt x="49" y="129" on="1"/>
        <pt x="49" y="180" on="1"/>
        <pt x="49" y="238" on="0"/>
        <pt x="121" y="302" on="0"/>
        <pt x="187" y="302" on="1"/>
        <pt x="383" y="302" on="1"/>
        <pt x="383" y="340" on="1"/>
        <pt x="382" y="385" on="0"/>
        <pt x="342" y="419" on="0"/>
        <pt x="286" y="419" on="1"/>
        <pt x="231" y="419" on="0"/>
      </contour>
      <contour>
        <pt x="147" y="167" on="1"/>
        <pt x="147" y="141" on="1"/>
        <pt x="147" y="105" on="0"/>
        <pt x="181" y="73" on="0"/>
        <pt x="218" y="73" on="1"/>
        <pt x="305" y="73" on="0"/>
        <pt x="383" y="141" on="1"/>
        <pt x="383" y="229" on="1"/>
        <pt x="205" y="229" on="1"/>
        <pt x="173" y="228" on="0"/>
        <pt x="147" y="197" on="0"/>
      </contour>
    </TTGlyph>
    <TTGlyph name="b" xMin="73" yMin="-12" xMax="521" yMax="700">
      <contour>
        <pt x="170" y="700" on="1"/>
        <pt x="170" y="525" on="1"/>
        <pt x="170" y="458" on="0"/>
        <pt x="160" y="414" on="1"/>
        <pt x="242" y="501" on="0"/>
        <pt x="344" y="501" on="1"/>
        <pt x="435" y="501" on="0"/>
        <pt x="521" y="381" on="0"/>
        <pt x="521" y="246" on="1"/>
        <pt x="521" y="115" on="0"/>
        <pt x="424" y="-12" on="0"/>
        <pt x="301" y="-12" on="1"/>
        <pt x="170" y="-12" on="0"/>
        <pt x="73" y="23" on="1"/>
        <pt x="73" y="700" on="1"/>
      </contour>
      <contour>
        <pt x="170" y="349" on="1"/>
        <pt x="170" y="84" on="1"/>
        <pt x="230" y="69" on="0"/>
        <pt x="299" y="69" on="1"/>
        <pt x="366" y="70" on="0"/>
        <pt x="420" y="148" on="0"/>
        <pt x="421" y="246" on="1"/>
        <pt x="420" y="344" on="0"/>
        <pt x="376" y="417" on="0"/>
        <pt x="310" y="417" on="1"/>
        <pt x="276" y="417" on="0"/>
        <pt x="215" y="385" on="0"/>
      </contour>
    </TTGlyph>
    <TTGlyph name="backslash" xMin="25" yMin="-67" xMax="498" yMax="690">
      <contour>
        <pt x="498" y="-67" on="1"/>
        <pt x="418" y="-67" on="1"/>
        <pt x="25" y="690" on="1"/>
        <pt x="105" y="690" on="1"/>
      </contour>
    </TTGlyph>
    <TTGlyph name="bar" xMin="89" yMin="-169" xMax="159" yMax="781">
      <contour>
        <pt x="159" y="-169" on="1"/>
        <pt x="89" y="-169" on="1"/>
        <pt x="89" y="781" on="1"/>
        <pt x="159" y="781" on="1"/>
      </contour>
    </TTGlyph>
    <TTGlyph name="braceleft" xMin="44" yMin="-165" xMax="285" yMax="768">
      <contour>
        <pt x="281" y="768" on="1"/>
        <pt x="281" y="707" on="1"/>
        <pt x="231" y="707" on="0"/>
        <pt x="194" y="671" on="0"/>
        <pt x="194" y="626" on="1"/>
        <pt x="194" y="453" on="1"/>
        <pt x="195" y="391" on="0"/>
        <pt x="157" y="338" on="0"/>
        <pt x="102" y="328" on="1"/>
        <pt x="158" y="311" on="0"/>
        <pt x="197" y="260" on="0"/>
        <pt x="198" y="207" on="1"/>
        <pt x="198" y="-24" on="1"/>
        <pt x="198" y="-69" on="0"/>
        <pt x="235" y="-104" on="0"/>
        <pt x="285" y="-104" on="1"/>
        <pt x="285" y="-165" on="1"/>
        <pt x="105" y="-180" on="0"/>
        <pt x="105" y="-31" on="1"/>
        <pt x="105" y="222" on="1"/>
        <pt x="105" y="241" on="0"/>
        <pt x="100" y="263" on="0"/>
        <pt x="80" y="279" on="0"/>
        <pt x="67" y="285" on="0"/>
        <pt x="44" y="294" on="1"/>
        <pt x="44" y="362" on="1"/>
        <pt x="83" y="374" on="0"/>
        <pt x="101" y="395" on="0"/>
        <pt x="101" y="438" on="1"/>
        <pt x="101" y="634" on="1"/>
        <pt x="101" y="783" on="0"/>
      </contour>
    </TTGlyph>
    <TTGlyph name="braceright" xMin="39" yMin="-165" xMax="280" yMax="768">
      <contour>
        <pt x="43" y="707" on="1"/>
        <pt x="43" y="768" on="1"/>
        <pt x="223" y="783" on="0"/>
        <pt x="223" y="634" on="1"/>
        <pt x="223" y="438" on="1"/>
        <pt x="223" y="395" on="0"/>
        <pt x="241" y="374" on="0"/>
        <pt x="280" y="362" on="1"/>
        <pt x="280" y="294" on="1"/>
        <pt x="239" y="278" on="0"/>
        <pt x="230" y="267" on="1"/>
        <pt x="219" y="254" on="0"/>
        <pt x="219" y="222" on="1"/>
        <pt x="219" y="-31" on="1"/>
        <pt x="219" y="-180" on="0"/>
        <pt x="39" y="-165" on="1"/>
        <pt x="39" y="-104" on="1"/>
        <pt x="89" y="-104" on="0"/>
        <pt x="126" y="-69" on="0"/>
        <pt x="126" y="-24" on="1"/>
        <pt x="126" y="207" on="1"/>
        <pt x="127" y="260" on="0"/>
        <pt x="166" y="311" on="0"/>
        <pt x="222" y="328" on="1"/>
        <pt x="167" y="338" on="0"/>
        <pt x="129" y="391" on="0"/>
        <pt x="130" y="453" on="1"/>
        <pt x="130" y="626" on="1"/>
        <pt x="130" y="671" on="0"/>
        <pt x="93" y="707" on="0"/>
      </contour>
    </TTGlyph>
    <TTGlyph name="bracketleft" xMin="89" yMin="-165" xMax="292" yMax="768">
      <contour>
        <pt x="292" y="705" on="1"/>
        <pt x="195" y="705" on="1"/>
        <pt x="180" y="705" on="0"/>
        <pt x="180" y="689" on="1"/>
        <pt x="180" y="-86" on="1"/>
        <pt x="180" y="-102" on="0"/>
        <pt x="195" y="-102" on="1"/>
        <pt x="292" y="-102" on="1"/>
        <pt x="292" y="-165" on="1"/>
        <pt x="147" y="-165" on="1"/>
        <pt x="89" y="-165" on="0"/>
        <pt x="89" y="-107" on="1"/>
        <pt x="89" y="710" on="1"/>
        <pt x="89" y="736" on="0"/>
        <pt x="122" y="768" on="0"/>
        <pt x="147" y="768" on="1"/>
        <pt x="292" y="768" on="1"/>
      </contour>
    </TTGlyph>
    <TTGlyph name="bracketright" xMin="40" yMin="-165" xMax="243" yMax="768">
      <contour>
        <pt x="40" y="768" on="1"/>
        <pt x="185" y="768" on="1"/>
        <pt x="210" y="768" on="0"/>
        <pt x="243" y="736" on="0"/>
        <pt x="243" y="710" on="1"/>
        <pt x="243" y="-107" on="1"/>
        <pt x="243" y="-132" on="0"/>
        <pt x="210" y="-165" on="0"/>
        <pt x="185" y="-165" on="1"/>
        <pt x="40" y="-165" on="1"/>
        <pt x="40" y="-102" on="1"/>
        <pt x="136" y="-102" on="1"/>
        <pt x="152" y="-102" on="0"/>
        <pt x="152" y="-86" on="1"/>
        <pt x="152" y="689" on="1"/>
        <pt x="152" y="705" on="0"/>
        <pt x="136" y="705" on="1"/>
        <pt x="40" y="705" on="1"/>
      </contour>
    </TTGlyph>
    <TTGlyph name="breve" xMin="37" yMin="556" xMax="342" yMax="698">
      <contour>
        <pt x="293" y="698" on="1"/>
        <pt x="342" y="691" on="1"/>
        <pt x="347" y="631" on="0"/>
        <pt x="264" y="556" on="0"/>
        <pt x="116" y="556" on="0"/>
        <pt x="32" y="631" on="0"/>
        <pt x="37" y="691" on="1"/>
        <pt x="86" y="698" on="1"/>
        <pt x="85" y="664" on="0"/>
        <pt x="139" y="627" on="0"/>
        <pt x="190" y="627" on="1"/>
        <pt x="240" y="627" on="0"/>
        <pt x="294" y="664" on="0"/>
      </contour>
    </TTGlyph>
    <TTGlyph name="brevecy" xMin="37" yMin="556" xMax="342" yMax="696">
      <contour>
        <pt x="269" y="696" on="1"/>
        <pt x="342" y="696" on="1"/>
        <pt x="347" y="636" on="0"/>
        <pt x="263" y="556" on="0"/>
        <pt x="117" y="556" on="0"/>
        <pt x="32" y="636" on="0"/>
        <pt x="37" y="696" on="1"/>
        <pt x="110" y="696" on="1"/>
        <pt x="110" y="609" on="0"/>
        <pt x="190" y="609" on="1"/>
        <pt x="269" y="609" on="0"/>
      </contour>
    </TTGlyph>
    <TTGlyph name="brokenbar" xMin="90" yMin="-169" xMax="160" yMax="781">
      <contour>
        <pt x="160" y="381" on="1"/>
        <pt x="90" y="381" on="1"/>
        <pt x="90" y="781" on="1"/>
        <pt x="160" y="781" on="1"/>
      </contour>
      <contour>
        <pt x="160" y="-169" on="1"/>
        <pt x="90" y="-169" on="1"/>
        <pt x="90" y="231" on="1"/>
        <pt x="160" y="231" on="1"/>
      </contour>
    </TTGlyph>
    <TTGlyph name="bullet" xMin="88" yMin="173" xMax="277" yMax="362">
      <contour>
        <pt x="178" y="362" on="1"/>
        <pt x="191" y="362" on="1"/>
        <pt x="239" y="362" on="0"/>
        <pt x="277" y="324" on="0"/>
        <pt x="277" y="276" on="1"/>
        <pt x="277" y="263" on="1"/>
        <pt x="277" y="212" on="0"/>
        <pt x="239" y="173" on="0"/>
        <pt x="191" y="173" on="1"/>
        <pt x="178" y="173" on="1"/>
        <pt x="127" y="173" on="0"/>
        <pt x="88" y="212" on="0"/>
        <pt x="88" y="263" on="1"/>
        <pt x="88" y="276" on="1"/>
        <pt x="88" y="324" on="0"/>
        <pt x="127" y="362" on="0"/>
      </contour>
    </TTGlyph>
    <TTGlyph name="c" xMin="52" yMin="-12" xMax="455" yMax="501">
      <contour>
        <pt x="446" y="80" on="1"/>
        <pt x="455" y="15" on="1"/>
        <pt x="381" y="-12" on="0"/>
        <pt x="285" y="-12" on="1"/>
        <pt x="157" y="-12" on="0"/>
        <pt x="52" y="103" on="0"/>
        <pt x="52" y="385" on="0"/>
        <pt x="157" y="501" on="0"/>
        <pt x="285" y="501" on="1"/>
        <pt x="383" y="501" on="0"/>
        <pt x="447" y="476" on="1"/>
        <pt x="434" y="414" on="1"/>
        <pt x="359" y="419" on="0"/>
        <pt x="302" y="419" on="1"/>
        <pt x="218" y="419" on="0"/>
        <pt x="153" y="345" on="0"/>
        <pt x="153" y="143" on="0"/>
        <pt x="218" y="69" on="0"/>
        <pt x="302" y="69" on="1"/>
        <pt x="384" y="69" on="0"/>
      </contour>
    </TTGlyph>
    <TTGlyph name="cacute" xMin="52" yMin="-12" xMax="455" yMax="738">
      <contour>
        <pt x="429" y="664" on="1"/>
        <pt x="230" y="547" on="1"/>
        <pt x="198" y="591" on="1"/>
        <pt x="375" y="738" on="1"/>
      </contour>
      <contour>
        <pt x="446" y="80" on="1"/>
        <pt x="455" y="15" on="1"/>
        <pt x="381" y="-12" on="0"/>
        <pt x="285" y="-12" on="1"/>
        <pt x="157" y="-12" on="0"/>
        <pt x="52" y="103" on="0"/>
        <pt x="52" y="385" on="0"/>
        <pt x="157" y="501" on="0"/>
        <pt x="285" y="501" on="1"/>
        <pt x="383" y="501" on="0"/>
        <pt x="447" y="476" on="1"/>
        <pt x="434" y="414" on="1"/>
        <pt x="359" y="419" on="0"/>
        <pt x="302" y="419" on="1"/>
        <pt x="218" y="419" on="0"/>
        <pt x="153" y="345" on="0"/>
        <pt x="153" y="143" on="0"/>
        <pt x="218" y="69" on="0"/>
        <pt x="302" y="69" on="1"/>
        <pt x="384" y="69" on="0"/>
      </contour>
    </TTGlyph>
    <TTGlyph name="caron" xMin="47" yMin="558" xMax="380" yMax="728">
      <contour>
        <pt x="380" y="687" on="1"/>
        <pt x="235" y="558" on="1"/>
        <pt x="191" y="558" on="1"/>
        <pt x="47" y="687" on="1"/>
        <pt x="80" y="728" on="1"/>
        <pt x="209" y="644" on="1"/>
        <pt x="217" y="644" on="1"/>
        <pt x="347" y="728" on="1"/>
      </contour>
    </TTGlyph>
    <TTGlyph name="ccaron" xMin="52" yMin="-12" xMax="455" yMax="734">
      <contour>
        <pt x="435" y="692" on="1"/>
        <pt x="290" y="563" on="1"/>
        <pt x="246" y="563" on="1"/>
        <pt x="102" y="692" on="1"/>
        <pt x="134" y="734" on="1"/>
        <pt x="264" y="649" on="1"/>
        <pt x="272" y="649" on="1"/>
        <pt x="401" y="734" on="1"/>
      </contour>
      <contour>
        <pt x="446" y="80" on="1"/>
        <pt x="455" y="15" on="1"/>
        <pt x="381" y="-12" on="0"/>
        <pt x="285" y="-12" on="1"/>
        <pt x="157" y="-12" on="0"/>
        <pt x="52" y="103" on="0"/>
        <pt x="52" y="385" on="0"/>
        <pt x="157" y="501" on="0"/>
        <pt x="285" y="501" on="1"/>
        <pt x="383" y="501" on="0"/>
        <pt x="447" y="476" on="1"/>
        <pt x="434" y="414" on="1"/>
        <pt x="359" y="419" on="0"/>
        <pt x="302" y="419" on="1"/>
        <pt x="218" y="419" on="0"/>
        <pt x="153" y="345" on="0"/>
        <pt x="153" y="143" on="0"/>
        <pt x="218" y="69" on="0"/>
        <pt x="302" y="69" on="1"/>
        <pt x="384" y="69" on="0"/>
      </contour>
    </TTGlyph>
    <TTGlyph name="ccedilla" xMin="52" yMin="-243" xMax="455" yMax="501">
      <contour>
        <pt x="446" y="80" on="1"/>
        <pt x="455" y="15" on="1"/>
        <pt x="381" y="-12" on="0"/>
        <pt x="285" y="-12" on="1"/>
        <pt x="157" y="-12" on="0"/>
        <pt x="52" y="103" on="0"/>
        <pt x="52" y="385" on="0"/>
        <pt x="157" y="501" on="0"/>
        <pt x="285" y="501" on="1"/>
        <pt x="383" y="501" on="0"/>
        <pt x="447" y="476" on="1"/>
        <pt x="434" y="414" on="1"/>
        <pt x="359" y="419" on="0"/>
        <pt x="302" y="419" on="1"/>
        <pt x="218" y="419" on="0"/>
        <pt x="153" y="345" on="0"/>
        <pt x="153" y="143" on="0"/>
        <pt x="218" y="69" on="0"/>
        <pt x="302" y="69" on="1"/>
        <pt x="384" y="69" on="0"/>
      </contour>
      <contour>
        <pt x="221" y="-99" on="1"/>
        <pt x="231" y="-54" on="1"/>
        <pt x="296" y="-48" on="0"/>
        <pt x="350" y="-74" on="0"/>
        <pt x="349" y="-119" on="1"/>
        <pt x="347" y="-184" on="0"/>
        <pt x="249" y="-253" on="0"/>
        <pt x="176" y="-243" on="1"/>
        <pt x="191" y="-192" on="1"/>
        <pt x="229" y="-193" on="0"/>
        <pt x="278" y="-157" on="0"/>
        <pt x="280" y="-127" on="1"/>
        <pt x="281" y="-111" on="0"/>
        <pt x="257" y="-100" on="0"/>
      </contour>
    </TTGlyph>
    <TTGlyph name="cdotaccent" xMin="52" yMin="-12" xMax="455" yMax="689">
      <contour>
        <pt x="251" y="689" on="1"/>
        <pt x="282" y="689" on="1"/>
        <pt x="311" y="689" on="0"/>
        <pt x="311" y="661" on="1"/>
        <pt x="311" y="605" on="1"/>
        <pt x="311" y="576" on="0"/>
        <pt x="282" y="576" on="1"/>
        <pt x="251" y="576" on="1"/>
        <pt x="223" y="576" on="0"/>
        <pt x="223" y="605" on="1"/>
        <pt x="223" y="661" on="1"/>
        <pt x="223" y="689" on="0"/>
      </contour>
      <contour>
        <pt x="446" y="80" on="1"/>
        <pt x="455" y="15" on="1"/>
        <pt x="381" y="-12" on="0"/>
        <pt x="285" y="-12" on="1"/>
        <pt x="157" y="-12" on="0"/>
        <pt x="52" y="103" on="0"/>
        <pt x="52" y="385" on="0"/>
        <pt x="157" y="501" on="0"/>
        <pt x="285" y="501" on="1"/>
        <pt x="383" y="501" on="0"/>
        <pt x="447" y="476" on="1"/>
        <pt x="434" y="414" on="1"/>
        <pt x="359" y="419" on="0"/>
        <pt x="302" y="419" on="1"/>
        <pt x="218" y="419" on="0"/>
        <pt x="153" y="345" on="0"/>
        <pt x="153" y="143" on="0"/>
        <pt x="218" y="69" on="0"/>
        <pt x="302" y="69" on="1"/>
        <pt x="384" y="69" on="0"/>
      </contour>
    </TTGlyph>
    <TTGlyph name="cedilla" xMin="32" yMin="-231" xMax="205" yMax="-42">
      <contour>
        <pt x="77" y="-87" on="1"/>
        <pt x="87" y="-42" on="1"/>
        <pt x="153" y="-36" on="0"/>
        <pt x="206" y="-62" on="0"/>
        <pt x="205" y="-107" on="1"/>
        <pt x="204" y="-172" on="0"/>
        <pt x="106" y="-241" on="0"/>
        <pt x="32" y="-231" on="1"/>
        <pt x="48" y="-180" on="1"/>
        <pt x="86" y="-181" on="0"/>
        <pt x="135" y="-145" on="0"/>
        <pt x="136" y="-115" on="1"/>
        <pt x="137" y="-99" on="0"/>
        <pt x="113" y="-88" on="0"/>
      </contour>
    </TTGlyph>
    <TTGlyph name="cent" xMin="51" yMin="0" xMax="454" yMax="690">
      <contour>
        <pt x="445" y="184" on="1"/>
        <pt x="454" y="119" on="1"/>
        <pt x="384" y="95" on="0"/>
        <pt x="296" y="93" on="1"/>
        <pt x="287" y="0" on="1"/>
        <pt x="238" y="0" on="1"/>
        <pt x="247" y="94" on="1"/>
        <pt x="140" y="101" on="0"/>
        <pt x="51" y="218" on="0"/>
        <pt x="51" y="349" on="1"/>
        <pt x="51" y="490" on="0"/>
        <pt x="157" y="605" on="0"/>
        <pt x="285" y="605" on="1"/>
        <pt x="293" y="605" on="1"/>
        <pt x="301" y="690" on="1"/>
        <pt x="351" y="690" on="1"/>
        <pt x="343" y="603" on="1"/>
        <pt x="403" y="596" on="0"/>
        <pt x="446" y="581" on="1"/>
        <pt x="434" y="516" on="1"/>
        <pt x="392" y="521" on="0"/>
        <pt x="335" y="523" on="1"/>
        <pt x="305" y="174" on="1"/>
        <pt x="375" y="174" on="0"/>
      </contour>
      <contour>
        <pt x="255" y="177" on="1"/>
        <pt x="284" y="523" on="1"/>
        <pt x="207" y="520" on="0"/>
        <pt x="147" y="445" on="0"/>
        <pt x="147" y="349" on="1"/>
        <pt x="147" y="262" on="0"/>
        <pt x="196" y="185" on="0"/>
      </contour>
    </TTGlyph>
    <TTGlyph name="circumflex" xMin="48" yMin="544" xMax="380" yMax="714">
      <contour>
        <pt x="380" y="585" on="1"/>
        <pt x="347" y="544" on="1"/>
        <pt x="217" y="640" on="1"/>
        <pt x="209" y="640" on="1"/>
        <pt x="80" y="544" on="1"/>
        <pt x="48" y="585" on="1"/>
        <pt x="178" y="714" on="1"/>
        <pt x="249" y="714" on="1"/>
      </contour>
    </TTGlyph>
    <TTGlyph name="colon" xMin="66" yMin="0" xMax="169" yMax="442">
      <contour>
        <pt x="101" y="442" on="1"/>
        <pt x="133" y="442" on="1"/>
        <pt x="153" y="442" on="0"/>
        <pt x="169" y="427" on="0"/>
        <pt x="169" y="407" on="1"/>
        <pt x="169" y="353" on="1"/>
        <pt x="169" y="333" on="0"/>
        <pt x="153" y="318" on="0"/>
        <pt x="133" y="318" on="1"/>
        <pt x="101" y="318" on="1"/>
        <pt x="82" y="318" on="0"/>
        <pt x="66" y="334" on="0"/>
        <pt x="66" y="353" on="1"/>
        <pt x="66" y="407" on="1"/>
        <pt x="66" y="426" on="0"/>
        <pt x="82" y="442" on="0"/>
      </contour>
      <contour>
        <pt x="101" y="124" on="1"/>
        <pt x="133" y="124" on="1"/>
        <pt x="153" y="124" on="0"/>
        <pt x="169" y="109" on="0"/>
        <pt x="169" y="89" on="1"/>
        <pt x="169" y="36" on="1"/>
        <pt x="169" y="16" on="0"/>
        <pt x="153" y="0" on="0"/>
        <pt x="133" y="0" on="1"/>
        <pt x="101" y="0" on="1"/>
        <pt x="81" y="0" on="0"/>
        <pt x="66" y="16" on="0"/>
        <pt x="66" y="36" on="1"/>
        <pt x="66" y="89" on="1"/>
        <pt x="66" y="108" on="0"/>
        <pt x="82" y="124" on="0"/>
      </contour>
    </TTGlyph>
    <TTGlyph name="comma" xMin="65" yMin="-134" xMax="165" yMax="124">
      <contour>
        <pt x="103" y="124" on="1"/>
        <pt x="131" y="124" on="1"/>
        <pt x="150" y="124" on="0"/>
        <pt x="165" y="109" on="0"/>
        <pt x="165" y="89" on="1"/>
        <pt x="165" y="25" on="1"/>
        <pt x="164" y="-64" on="0"/>
        <pt x="127" y="-134" on="1"/>
        <pt x="81" y="-122" on="1"/>
        <pt x="92" y="-66" on="0"/>
        <pt x="92" y="0" on="1"/>
        <pt x="65" y="0" on="0"/>
        <pt x="65" y="31" on="1"/>
        <pt x="65" y="89" on="1"/>
        <pt x="66" y="108" on="0"/>
        <pt x="83" y="124" on="0"/>
      </contour>
    </TTGlyph>
    <TTGlyph name="copyright" xMin="56" yMin="-13" xMax="776" yMax="703">
      <contour>
        <pt x="264" y="703" on="0"/>
        <pt x="568" y="703" on="0"/>
        <pt x="776" y="500" on="0"/>
        <pt x="776" y="190" on="0"/>
        <pt x="568" y="-13" on="0"/>
        <pt x="264" y="-13" on="0"/>
        <pt x="56" y="191" on="0"/>
        <pt x="56" y="499" on="0"/>
      </contour>
      <contour>
        <pt x="544" y="652" on="0"/>
        <pt x="288" y="652" on="0"/>
        <pt x="109" y="476" on="0"/>
        <pt x="109" y="214" on="0"/>
        <pt x="288" y="38" on="0"/>
        <pt x="544" y="38" on="0"/>
        <pt x="723" y="214" on="0"/>
        <pt x="723" y="476" on="0"/>
      </contour>
      <contour>
        <pt x="559" y="200" on="1"/>
        <pt x="566" y="145" on="1"/>
        <pt x="506" y="129" on="0"/>
        <pt x="421" y="129" on="1"/>
        <pt x="314" y="129" on="0"/>
        <pt x="226" y="227" on="0"/>
        <pt x="226" y="467" on="0"/>
        <pt x="314" y="565" on="0"/>
        <pt x="421" y="565" on="1"/>
        <pt x="500" y="565" on="0"/>
        <pt x="556" y="551" on="1"/>
        <pt x="548" y="496" on="1"/>
        <pt x="491" y="500" on="0"/>
        <pt x="420" y="500" on="1"/>
        <pt x="352" y="500" on="0"/>
        <pt x="301" y="434" on="0"/>
        <pt x="301" y="260" on="0"/>
        <pt x="352" y="194" on="0"/>
        <pt x="420" y="194" on="1"/>
        <pt x="510" y="194" on="0"/>
      </contour>
    </TTGlyph>
    <TTGlyph name="currency" xMin="63" yMin="120" xMax="528" yMax="582">
      <contour>
        <pt x="485" y="120" on="1"/>
        <pt x="412" y="193" on="1"/>
        <pt x="362" y="154" on="0"/>
        <pt x="230" y="154" on="0"/>
        <pt x="179" y="192" on="1"/>
        <pt x="108" y="121" on="1"/>
        <pt x="63" y="166" on="1"/>
        <pt x="134" y="237" on="1"/>
        <pt x="98" y="287" on="0"/>
        <pt x="98" y="351" on="1"/>
        <pt x="98" y="418" on="0"/>
        <pt x="137" y="469" on="1"/>
        <pt x="66" y="540" on="1"/>
        <pt x="108" y="582" on="1"/>
        <pt x="178" y="511" on="1"/>
        <pt x="230" y="549" on="0"/>
        <pt x="296" y="549" on="1"/>
        <pt x="363" y="549" on="0"/>
        <pt x="414" y="510" on="1"/>
        <pt x="486" y="582" on="1"/>
        <pt x="527" y="540" on="1"/>
        <pt x="455" y="468" on="1"/>
        <pt x="493" y="416" on="0"/>
        <pt x="493" y="351" on="1"/>
        <pt x="493" y="287" on="0"/>
        <pt x="454" y="235" on="1"/>
        <pt x="528" y="162" on="1"/>
      </contour>
      <contour>
        <pt x="296" y="212" on="1"/>
        <pt x="352" y="211" on="0"/>
        <pt x="433" y="294" on="0"/>
        <pt x="433" y="410" on="0"/>
        <pt x="352" y="492" on="0"/>
        <pt x="296" y="492" on="1"/>
        <pt x="238" y="492" on="0"/>
        <pt x="156" y="410" on="0"/>
        <pt x="156" y="294" on="0"/>
        <pt x="238" y="211" on="0"/>
      </contour>
    </TTGlyph>
    <TTGlyph name="d" xMin="53" yMin="-12" xMax="500" yMax="700">
      <contour>
        <pt x="424" y="0" on="1"/>
        <pt x="416" y="67" on="1"/>
        <pt x="322" y="-12" on="0"/>
        <pt x="224" y="-12" on="1"/>
        <pt x="134" y="-12" on="0"/>
        <pt x="53" y="117" on="0"/>
        <pt x="53" y="246" on="1"/>
        <pt x="53" y="386" on="0"/>
        <pt x="143" y="501" on="0"/>
        <pt x="239" y="501" on="1"/>
        <pt x="331" y="501" on="0"/>
        <pt x="407" y="457" on="1"/>
        <pt x="403" y="500" on="0"/>
        <pt x="403" y="553" on="1"/>
        <pt x="403" y="700" on="1"/>
        <pt x="500" y="700" on="1"/>
        <pt x="500" y="0" on="1"/>
      </contour>
      <contour>
        <pt x="403" y="133" on="1"/>
        <pt x="403" y="393" on="1"/>
        <pt x="312" y="417" on="0"/>
        <pt x="263" y="417" on="1"/>
        <pt x="201" y="417" on="0"/>
        <pt x="153" y="348" on="0"/>
        <pt x="153" y="146" on="0"/>
        <pt x="200" y="72" on="0"/>
        <pt x="257" y="72" on="1"/>
        <pt x="294" y="72" on="0"/>
        <pt x="351" y="98" on="0"/>
      </contour>
    </TTGlyph>
    <TTGlyph name="dagger" xMin="40" yMin="-110" xMax="417" yMax="691">
      <contour>
        <pt x="268" y="-110" on="1"/>
        <pt x="189" y="-110" on="1"/>
        <pt x="189" y="484" on="1"/>
        <pt x="185" y="691" on="1"/>
        <pt x="273" y="691" on="1"/>
        <pt x="268" y="484" on="1"/>
      </contour>
      <contour>
        <pt x="40" y="404" on="1"/>
        <pt x="40" y="488" on="1"/>
        <pt x="170" y="488" on="1"/>
        <pt x="170" y="415" on="1"/>
      </contour>
      <contour>
        <pt x="417" y="488" on="1"/>
        <pt x="417" y="404" on="1"/>
        <pt x="287" y="415" on="1"/>
        <pt x="287" y="488" on="1"/>
      </contour>
    </TTGlyph>
    <TTGlyph name="daggerdbl" xMin="59" yMin="-110" xMax="436" yMax="691">
      <contour>
        <pt x="287" y="486" on="1"/>
        <pt x="287" y="93" on="1"/>
        <pt x="291" y="-110" on="1"/>
        <pt x="204" y="-110" on="1"/>
        <pt x="208" y="93" on="1"/>
        <pt x="208" y="486" on="1"/>
        <pt x="204" y="691" on="1"/>
        <pt x="291" y="691" on="1"/>
      </contour>
      <contour>
        <pt x="189" y="415" on="1"/>
        <pt x="59" y="404" on="1"/>
        <pt x="59" y="488" on="1"/>
        <pt x="189" y="488" on="1"/>
      </contour>
      <contour>
        <pt x="436" y="404" on="1"/>
        <pt x="306" y="415" on="1"/>
        <pt x="306" y="488" on="1"/>
        <pt x="436" y="488" on="1"/>
      </contour>
      <contour>
        <pt x="189" y="166" on="1"/>
        <pt x="189" y="93" on="1"/>
        <pt x="59" y="93" on="1"/>
        <pt x="59" y="177" on="1"/>
      </contour>
      <contour>
        <pt x="436" y="93" on="1"/>
        <pt x="306" y="93" on="1"/>
        <pt x="306" y="166" on="1"/>
        <pt x="436" y="177" on="1"/>
      </contour>
    </TTGlyph>
    <TTGlyph name="dcaron" xMin="53" yMin="-12" xMax="642" yMax="703">
      <contour>
        <pt x="642" y="675" on="1"/>
        <pt x="642" y="626" on="1"/>
        <pt x="641" y="558" on="0"/>
        <pt x="608" y="502" on="1"/>
        <pt x="566" y="512" on="1"/>
        <pt x="576" y="558" on="0"/>
        <pt x="576" y="606" on="1"/>
        <pt x="565" y="606" on="0"/>
        <pt x="551" y="620" on="0"/>
        <pt x="552" y="630" on="1"/>
        <pt x="552" y="675" on="1"/>
        <pt x="553" y="703" on="0"/>
        <pt x="585" y="703" on="1"/>
        <pt x="611" y="703" on="1"/>
        <pt x="629" y="703" on="0"/>
        <pt x="642" y="691" on="0"/>
      </contour>
      <contour>
        <pt x="500" y="700" on="1"/>
        <pt x="500" y="0" on="1"/>
        <pt x="424" y="0" on="1"/>
        <pt x="416" y="67" on="1"/>
        <pt x="322" y="-12" on="0"/>
        <pt x="224" y="-12" on="1"/>
        <pt x="134" y="-12" on="0"/>
        <pt x="53" y="117" on="0"/>
        <pt x="53" y="246" on="1"/>
        <pt x="53" y="386" on="0"/>
        <pt x="143" y="501" on="0"/>
        <pt x="239" y="501" on="1"/>
        <pt x="331" y="501" on="0"/>
        <pt x="407" y="457" on="1"/>
        <pt x="403" y="500" on="0"/>
        <pt x="403" y="553" on="1"/>
        <pt x="403" y="700" on="1"/>
      </contour>
      <contour>
        <pt x="403" y="133" on="1"/>
        <pt x="403" y="393" on="1"/>
        <pt x="312" y="417" on="0"/>
        <pt x="263" y="417" on="1"/>
        <pt x="201" y="417" on="0"/>
        <pt x="153" y="348" on="0"/>
        <pt x="153" y="146" on="0"/>
        <pt x="200" y="72" on="0"/>
        <pt x="257" y="72" on="1"/>
        <pt x="294" y="72" on="0"/>
        <pt x="351" y="98" on="0"/>
      </contour>
    </TTGlyph>
    <TTGlyph name="dcroat" xMin="53" yMin="-12" xMax="566" yMax="700">
      <contour>
        <pt x="566" y="570" on="1"/>
        <pt x="500" y="570" on="1"/>
        <pt x="500" y="0" on="1"/>
        <pt x="424" y="0" on="1"/>
        <pt x="416" y="67" on="1"/>
        <pt x="322" y="-12" on="0"/>
        <pt x="224" y="-12" on="1"/>
        <pt x="134" y="-12" on="0"/>
        <pt x="53" y="117" on="0"/>
        <pt x="53" y="246" on="1"/>
        <pt x="53" y="386" on="0"/>
        <pt x="143" y="501" on="0"/>
        <pt x="239" y="501" on="1"/>
        <pt x="331" y="501" on="0"/>
        <pt x="407" y="457" on="1"/>
        <pt x="403" y="500" on="0"/>
        <pt x="403" y="553" on="1"/>
        <pt x="403" y="570" on="1"/>
        <pt x="254" y="570" on="1"/>
        <pt x="254" y="625" on="1"/>
        <pt x="403" y="625" on="1"/>
        <pt x="403" y="700" on="1"/>
        <pt x="500" y="700" on="1"/>
        <pt x="500" y="625" on="1"/>
        <pt x="566" y="625" on="1"/>
      </contour>
      <contour>
        <pt x="403" y="133" on="1"/>
        <pt x="403" y="393" on="1"/>
        <pt x="312" y="417" on="0"/>
        <pt x="263" y="417" on="1"/>
        <pt x="201" y="417" on="0"/>
        <pt x="153" y="348" on="0"/>
        <pt x="153" y="146" on="0"/>
        <pt x="200" y="72" on="0"/>
        <pt x="257" y="72" on="1"/>
        <pt x="294" y="72" on="0"/>
        <pt x="351" y="98" on="0"/>
      </contour>
    </TTGlyph>
    <TTGlyph name="degree" xMin="49" yMin="446" xMax="311" yMax="703">
      <contour>
        <pt x="180" y="703" on="1"/>
        <pt x="233" y="703" on="0"/>
        <pt x="311" y="628" on="0"/>
        <pt x="311" y="576" on="1"/>
        <pt x="311" y="523" on="0"/>
        <pt x="233" y="446" on="0"/>
        <pt x="180" y="446" on="1"/>
        <pt x="126" y="446" on="0"/>
        <pt x="49" y="523" on="0"/>
        <pt x="49" y="576" on="1"/>
        <pt x="49" y="628" on="0"/>
        <pt x="126" y="703" on="0"/>
      </contour>
      <contour>
        <pt x="210" y="645" on="0"/>
        <pt x="150" y="645" on="0"/>
        <pt x="110" y="606" on="0"/>
        <pt x="110" y="576" on="1"/>
        <pt x="110" y="545" on="0"/>
        <pt x="150" y="505" on="0"/>
        <pt x="180" y="505" on="1"/>
        <pt x="209" y="505" on="0"/>
        <pt x="250" y="545" on="0"/>
        <pt x="250" y="576" on="1"/>
        <pt x="250" y="606" on="0"/>
      </contour>
    </TTGlyph>
</ttFont>
